<?xml version="1.0" encoding="UTF-8" standalone="no"?>
<!DOCTYPE svg PUBLIC "-//W3C//DTD SVG 1.1//EN" "http://www.w3.org/Graphics/SVG/1.1/DTD/svg11.dtd">
<svg width="1600.00" height="1600.00" viewBox="0.00 0.00 1600.00 1600.00" xmlns="http://www.w3.org/2000/svg" xmlns:xlink="http://www.w3.org/1999/xlink">
<g stroke-linecap="round" id="Capa_4">
<path d="M216.00,158.00 Q789.00,158.00 1362.00,158.00 Q1422.00,158.00 1422.00,218.00 Q1422.00,785.00 1422.00,1352.00 Q1422.00,1412.00 1362.00,1412.00 Q789.00,1412.00 216.00,1412.00 Q156.00,1412.00 156.00,1352.00 Q156.00,785.00 156.00,218.00 Q156.00,158.00 216.00,158.00 Z" fill="none" stroke="rgb(255, 255, 255)" stroke-width="19.00" stroke-opacity="1.00" stroke-linejoin="round"/>
<path d="M795.00,204.00 C803.51,204.00 842.17,206.14 858.01,207.62 C873.69,209.47 899.25,213.26 919.95,217.62 C935.32,221.25 965.94,229.65 980.96,234.36 C995.80,239.31 1024.88,251.10 1039.36,257.55 C1053.73,264.35 1086.50,281.41 1095.20,286.65 C1108.52,294.94 1134.80,312.65 1147.62,321.97 C1165.79,335.86 1178.83,346.81 1195.67,362.29 C1207.08,373.29 1229.08,396.10 1239.56,407.78 C1246.22,415.44 1268.72,444.75 1277.92,457.72 C1286.78,470.86 1303.44,497.45 1310.89,511.20 C1318.14,525.18 1331.72,553.87 1337.97,568.38 C1345.86,588.01 1354.03,612.52 1358.58,627.65 C1362.78,642.98 1371.60,680.69 1373.08,689.07 C1374.56,697.45 1379.17,735.90 1380.46,751.75 C1381.36,767.51 1382.07,793.34 1381.36,814.49 C1380.46,830.25 1377.50,861.87 1375.47,877.48 C1373.18,892.95 1366.61,923.63 1362.78,939.02 C1358.58,954.35 1347.46,989.59 1343.82,999.06 C1337.97,1013.62 1325.09,1042.58 1318.14,1056.82 C1307.61,1077.13 1299.10,1091.87 1286.78,1111.14 C1277.92,1124.28 1259.28,1149.92 1249.60,1162.26 C1243.21,1170.15 1218.25,1197.40 1207.08,1208.71 C1195.67,1219.71 1172.38,1240.74 1160.13,1250.47 C1147.62,1260.03 1121.72,1278.39 1108.52,1287.06 C1090.56,1298.24 1067.84,1310.55 1053.73,1317.65 C1039.36,1324.45 1003.76,1339.68 995.77,1342.60 C987.77,1345.51 950.71,1356.72 935.32,1360.75 C919.95,1364.38 894.64,1369.55 873.69,1372.53 C858.01,1374.38 826.36,1376.96 810.64,1377.67 C795.00,1378.10 763.64,1376.96 747.83,1375.86 C731.99,1374.38 695.36,1369.55 685.40,1367.61 C670.05,1364.38 639.29,1356.72 624.06,1352.35 C602.23,1345.51 586.24,1339.68 565.12,1330.90 C550.64,1324.45 522.16,1310.55 508.32,1303.16 C499.44,1298.24 468.28,1278.39 455.20,1269.35 C442.38,1260.03 417.62,1240.74 405.92,1230.37 C394.33,1219.71 371.75,1197.40 360.92,1185.90 C346.79,1170.15 330.72,1149.92 321.28,1137.25 C312.08,1124.28 290.90,1091.87 286.64,1084.50 C282.39,1077.13 264.91,1042.58 258.28,1028.13 C252.03,1013.62 242.54,989.59 235.97,969.48 C231.42,954.35 223.39,923.63 219.96,908.27 C216.82,892.95 212.50,861.87 210.83,846.10 C209.54,830.25 207.93,793.34 208.12,783.19 C208.64,767.51 210.83,735.90 212.50,720.13 C215.44,697.45 218.40,680.69 223.39,658.37 C227.22,642.98 235.97,612.52 240.84,597.61 C244.14,588.01 258.28,553.87 264.91,539.42 C271.86,525.18 286.56,497.45 294.74,484.12 C303.22,470.86 321.28,444.75 330.72,432.08 C343.78,415.44 360.92,396.10 371.75,384.60 C382.92,373.29 411.17,346.81 417.68,341.33 C424.21,335.86 455.20,312.65 468.28,303.61 C481.48,294.94 503.50,281.41 522.16,271.45 C536.27,264.35 565.12,251.10 579.65,245.06 C594.20,239.31 624.06,229.65 639.29,225.28 C654.68,221.25 690.75,213.26 700.78,211.68 C716.31,209.47 747.83,206.14 763.64,205.04 C771.50,204.68 791.39,204.00 795.00,204.00 Z" fill="none" stroke="rgb(255, 255, 255)" stroke-width="25.00" stroke-opacity="1.00" stroke-linejoin="round"/>
<path d="M236.46,1302.56 C239.99,1302.57 248.55,1304.28 251.81,1305.61 C255.07,1306.97 262.32,1311.82 264.83,1314.31 C267.31,1316.81 272.16,1324.07 273.53,1327.32 C274.86,1330.58 276.56,1339.15 276.58,1342.67 C276.56,1346.20 274.86,1354.76 273.53,1358.03 C272.16,1361.28 267.31,1368.53 264.83,1371.04 C262.32,1373.52 255.07,1378.37 251.81,1379.74 C248.55,1381.07 239.99,1382.77 236.46,1382.79 C232.94,1382.77 224.37,1381.07 221.11,1379.74 C217.86,1378.37 210.60,1373.52 208.09,1371.04 C205.61,1368.53 200.76,1361.28 199.40,1358.03 C198.07,1354.76 196.36,1346.20 196.34,1342.67 C196.36,1339.15 198.07,1330.58 199.40,1327.32 C200.76,1324.07 205.61,1316.81 208.09,1314.31 C210.60,1311.82 217.86,1306.97 221.11,1305.61 C224.37,1304.28 232.94,1302.57 236.46,1302.56 Z" fill="none" stroke="rgb(255, 255, 255)" stroke-width="22.12" stroke-opacity="1.00" stroke-linejoin="round"/>
<path d="M1349.46,1302.56 C1352.99,1302.57 1361.55,1304.28 1364.81,1305.61 C1368.07,1306.97 1375.32,1311.82 1377.83,1314.31 C1380.31,1316.81 1385.16,1324.07 1386.53,1327.32 C1387.86,1330.58 1389.56,1339.15 1389.58,1342.67 C1389.56,1346.20 1387.86,1354.76 1386.53,1358.03 C1385.16,1361.28 1380.31,1368.53 1377.83,1371.04 C1375.32,1373.52 1368.07,1378.37 1364.81,1379.74 C1361.55,1381.07 1352.99,1382.77 1349.46,1382.79 C1345.94,1382.77 1337.37,1381.07 1334.11,1379.74 C1330.86,1378.37 1323.60,1373.52 1321.09,1371.04 C1318.61,1368.53 1313.76,1361.28 1312.40,1358.03 C1311.07,1354.76 1309.36,1346.20 1309.34,1342.67 C1309.36,1339.15 1311.07,1330.58 1312.40,1327.32 C1313.76,1324.07 1318.61,1316.81 1321.09,1314.31 C1323.60,1311.82 1330.86,1306.97 1334.11,1305.61 C1337.37,1304.28 1345.94,1302.57 1349.46,1302.56 Z" fill="none" stroke="rgb(255, 255, 255)" stroke-width="22.12" stroke-opacity="1.00" stroke-linejoin="round"/>
<path d="M236.46,189.56 C239.99,189.57 248.55,191.28 251.81,192.61 C255.07,193.97 262.32,198.82 264.83,201.31 C267.31,203.81 272.16,211.07 273.53,214.32 C274.86,217.58 276.56,226.15 276.58,229.67 C276.56,233.20 274.86,241.76 273.53,245.03 C272.16,248.28 267.31,255.53 264.83,258.04 C262.32,260.52 255.07,265.37 251.81,266.74 C248.55,268.07 239.99,269.77 236.46,269.79 C232.94,269.77 224.37,268.07 221.11,266.74 C217.86,265.37 210.60,260.52 208.09,258.04 C205.61,255.53 200.76,248.28 199.40,245.03 C198.07,241.76 196.36,233.20 196.34,229.67 C196.36,226.15 198.07,217.58 199.40,214.32 C200.76,211.07 205.61,203.81 208.09,201.31 C210.60,198.82 217.86,193.97 221.11,192.61 C224.37,191.28 232.94,189.57 236.46,189.56 Z" fill="none" stroke="rgb(255, 255, 255)" stroke-width="22.12" stroke-opacity="1.00" stroke-linejoin="round"/>
<path d="M1349.46,189.56 C1352.99,189.57 1361.55,191.28 1364.81,192.61 C1368.07,193.97 1375.32,198.82 1377.83,201.31 C1380.31,203.81 1385.16,211.07 1386.53,214.32 C1387.86,217.58 1389.56,226.15 1389.58,229.67 C1389.56,233.20 1387.86,241.76 1386.53,245.03 C1385.16,248.28 1380.31,255.53 1377.83,258.04 C1375.32,260.52 1368.07,265.37 1364.81,266.74 C1361.55,268.07 1352.99,269.77 1349.46,269.79 C1345.94,269.77 1337.37,268.07 1334.11,266.74 C1330.86,265.37 1323.60,260.52 1321.09,258.04 C1318.61,255.53 1313.76,248.28 1312.40,245.03 C1311.07,241.76 1309.36,233.20 1309.34,229.67 C1309.36,226.15 1311.07,217.58 1312.40,214.32 C1313.76,211.07 1318.61,203.81 1321.09,201.31 C1323.60,198.82 1330.86,193.97 1334.11,192.61 C1337.37,191.28 1345.94,189.57 1349.46,189.56 Z" fill="none" stroke="rgb(255, 255, 255)" stroke-width="22.12" stroke-opacity="1.00" stroke-linejoin="round"/>
<path d="M188.98,1372.45 C188.98,1372.45 189.53,1372.73 189.53,1372.73 C189.52,1374.88 189.45,1377.26 188.71,1378.24 C188.49,1378.49 187.72,1379.44 187.05,1379.61 C186.97,1379.63 182.15,1379.64 180.99,1379.06 C180.71,1378.95 180.25,1373.95 178.79,1371.07 C177.14,1367.74 175.84,1359.21 175.21,1357.30" fill="none" stroke="rgb(255, 255, 255)" stroke-width="25.00" stroke-opacity="1.00" stroke-linejoin="round"/>
<path d="M182.37,1376.86 C182.95,1375.99 182.95,1358.53 182.92,1350.14 C182.92,1341.26 182.92,1329.69 182.92,1327.00 C182.92,1327.00 182.37,1327.82 182.37,1327.82" fill="none" stroke="rgb(255, 255, 255)" stroke-width="25.00" stroke-opacity="1.00" stroke-linejoin="round"/>
<path d="M174.10,1363.09 C174.10,1363.09 173.55,1311.02 173.55,1311.02 C173.31,1314.87 171.03,1329.26 170.67,1335.86 C169.73,1350.54 171.62,1361.01 171.90,1364.74" fill="none" stroke="rgb(255, 255, 255)" stroke-width="25.00" stroke-opacity="1.00" stroke-linejoin="round"/>
<path d="M184.02,1323.42" fill="none" stroke="rgb(255, 255, 255)" stroke-width="40.00" stroke-opacity="1.00" stroke-linejoin="round"/>
<path d="M181.27,1321.21" fill="none" stroke="rgb(255, 255, 255)" stroke-width="40.00" stroke-opacity="1.00" stroke-linejoin="round"/>
<path d="M179.06,1319.01" fill="none" stroke="rgb(255, 255, 255)" stroke-width="40.00" stroke-opacity="1.00" stroke-linejoin="round"/>
<path d="M179.06,1319.01 L180.72,199.45" fill="none" stroke="rgb(255, 255, 255)" stroke-width="40.00" stroke-opacity="1.00" stroke-linejoin="round"/>
<path d="M180.72,199.45" fill="none" stroke="rgb(255, 255, 255)" stroke-width="40.00" stroke-opacity="1.00" stroke-linejoin="round"/>
<path d="M180.17,206.06 C180.05,204.98 186.02,192.71 187.52,190.67 C189.03,188.67 194.63,184.95 194.77,184.85 C196.42,183.47 201.20,179.82 202.48,179.34 C203.11,179.11 208.40,176.86 210.74,176.03 C212.70,175.17 221.89,175.20 223.14,175.21" fill="none" stroke="rgb(255, 255, 255)" stroke-width="40.00" stroke-opacity="1.00" stroke-linejoin="round"/>
<path d="M224.24,175.21" fill="none" stroke="rgb(255, 255, 255)" stroke-width="40.00" stroke-opacity="1.00" stroke-linejoin="round"/>
<path d="M224.24,175.21 L1380.17,180.72" fill="none" stroke="rgb(255, 255, 255)" stroke-width="40.00" stroke-opacity="1.00" stroke-linejoin="round"/>
<path d="M1380.17,180.72" fill="none" stroke="rgb(255, 255, 255)" stroke-width="40.00" stroke-opacity="1.00" stroke-linejoin="round"/>
<path d="M1380.17,180.72 C1383.89,182.41 1387.19,184.81 1387.60,185.12 C1391.64,188.20 1395.36,192.86 1395.87,193.39 C1397.21,194.73 1397.90,196.72 1397.80,196.97 C1399.65,198.49 1402.10,207.09 1402.20,207.44 C1402.80,209.75 1402.75,212.91 1402.75,218.88 C1402.75,220.67 1402.75,223.62 1402.75,224.79" fill="none" stroke="rgb(255, 255, 255)" stroke-width="40.00" stroke-opacity="1.00" stroke-linejoin="round"/>
<path d="M1402.75,224.79 L1403.86,1375.76" fill="none" stroke="rgb(255, 255, 255)" stroke-width="40.00" stroke-opacity="1.00" stroke-linejoin="round"/>
<path d="M1403.86,1375.76" fill="none" stroke="rgb(255, 255, 255)" stroke-width="40.00" stroke-opacity="1.00" stroke-linejoin="round"/>
<path d="M1403.31,1375.21 C1403.07,1375.26 1400.48,1378.29 1398.80,1379.97 C1397.15,1381.61 1393.16,1384.81 1392.56,1385.40 C1390.69,1387.24 1387.88,1388.43 1387.05,1388.71 C1385.95,1389.26 1379.42,1392.07 1378.79,1392.29 C1378.10,1392.29 1370.25,1394.77 1369.42,1395.04 C1365.25,1396.26 1358.64,1396.13 1343.25,1396.14 C1339.32,1396.14 1334.09,1396.14 1332.78,1396.14" fill="none" stroke="rgb(255, 255, 255)" stroke-width="40.00" stroke-opacity="1.00" stroke-linejoin="round"/>
<path d="M1332.78,1396.14 L196.69,1394.49" fill="none" stroke="rgb(255, 255, 255)" stroke-width="40.00" stroke-opacity="1.00" stroke-linejoin="round"/>
<path d="M196.69,1394.49" fill="none" stroke="rgb(255, 255, 255)" stroke-width="40.00" stroke-opacity="1.00" stroke-linejoin="round"/>
<path d="M196.69,1394.49 C196.69,1394.49 191.18,1388.98 191.18,1388.98" fill="none" stroke="rgb(255, 255, 255)" stroke-width="40.00" stroke-opacity="1.00" stroke-linejoin="round"/>
<path d="M288.15,1370.80 C288.23,1370.34 290.49,1367.52 291.18,1366.94 C293.25,1365.19 295.82,1360.05 296.14,1359.50 C297.47,1357.28 299.15,1353.06 299.17,1352.62 C299.19,1352.29 300.78,1348.56 300.83,1347.93 C301.26,1341.72 302.91,1326.37 301.93,1323.14 C301.43,1321.62 299.03,1313.79 298.35,1312.12 C296.69,1308.26 293.36,1300.46 289.53,1296.69 C286.46,1293.66 286.17,1293.32 283.47,1291.74 C282.61,1291.24 279.84,1289.21 275.87,1287.56 C274.42,1286.96 270.21,1284.99 269.70,1284.85 C269.16,1284.71 265.56,1284.02 263.64,1283.47 C259.61,1281.94 245.29,1281.56 243.62,1281.56 C240.20,1281.54 230.97,1281.52 229.48,1281.82 C227.11,1282.32 213.84,1288.77 213.50,1288.98 C213.50,1288.98 210.74,1291.46 210.74,1291.46 C210.74,1291.46 195.59,1295.87 195.59,1295.87" fill="none" stroke="rgb(255, 255, 255)" stroke-width="40.00" stroke-opacity="1.00" stroke-linejoin="round"/>
<path d="M280.44,1297.52 C280.44,1297.52 292.56,1320.11 292.56,1320.11" fill="none" stroke="rgb(255, 255, 255)" stroke-width="40.00" stroke-opacity="1.00" stroke-linejoin="round"/>
<path d="M292.56,1321.21 C292.47,1322.64 293.99,1327.71 294.77,1328.93 C295.69,1330.38 298.21,1338.51 298.62,1339.39 C301.84,1346.20 309.37,1358.68 310.74,1361.16 C311.14,1361.63 312.25,1363.22 314.33,1363.91 C314.80,1364.06 318.62,1365.31 321.14,1365.30 C336.97,1365.31 368.80,1365.30 384.82,1365.29 C397.37,1365.19 461.33,1368.22 465.34,1368.59 C465.40,1368.59 503.62,1374.09 517.16,1376.01 C525.07,1377.18 533.96,1377.53 539.95,1378.77 C541.42,1379.07 553.44,1380.99 567.22,1382.37 C567.31,1382.38 641.42,1382.37 655.37,1382.37 C650.48,1381.86 618.62,1372.73 616.66,1372.34 C616.55,1372.32 601.43,1369.53 593.66,1366.94 C589.86,1365.72 582.81,1361.36 582.37,1361.16 C576.65,1358.56 568.59,1357.08 568.32,1357.02 C557.35,1354.92 545.39,1352.87 541.60,1352.07 C541.33,1352.01 537.68,1351.05 537.19,1350.96 C536.60,1350.87 529.01,1350.50 526.45,1349.86 C526.43,1349.86 501.22,1349.85 500.55,1349.86 C496.80,1349.93 490.01,1348.76 484.30,1347.66 C482.32,1347.27 473.40,1346.59 473.28,1346.56 C471.77,1346.12 470.12,1345.44 465.56,1345.45 C458.39,1345.45 442.52,1345.46 440.36,1345.17 C437.81,1344.90 434.91,1344.58 427.46,1343.07 C423.21,1342.24 410.51,1341.54 403.25,1341.60 C392.12,1341.33 372.51,1341.05 367.77,1340.22 C367.22,1340.12 364.45,1339.23 363.64,1339.12 C362.07,1338.89 359.32,1338.90 358.95,1338.84 C357.08,1338.53 353.49,1336.24 351.24,1335.26 C347.21,1333.54 337.22,1331.36 333.33,1329.20 C331.76,1328.33 319.97,1325.13 319.83,1325.07 C318.93,1324.65 319.03,1322.22 319.01,1321.76 C320.29,1321.28 322.59,1319.77 325.24,1319.57 C327.71,1319.38 348.99,1316.36 351.69,1316.27 C352.24,1316.25 374.26,1316.26 383.31,1316.26 C390.67,1316.26 403.91,1316.25 407.87,1316.99 C420.74,1318.96 453.30,1323.20 459.78,1324.24 C470.72,1326.15 475.18,1326.35 476.03,1326.72 C485.59,1330.89 504.14,1336.95 505.51,1337.19 C507.26,1337.50 515.33,1339.57 515.70,1339.67 C516.76,1339.94 526.17,1339.94 528.10,1339.94 C521.55,1334.80 512.12,1329.29 507.06,1325.29 C504.22,1323.07 496.97,1319.66 495.87,1319.01 C482.72,1310.01 468.37,1305.27 461.43,1301.65 C459.67,1300.73 449.31,1294.08 445.73,1292.01 C438.02,1287.60 421.25,1278.14 409.09,1270.52 C403.65,1267.13 392.80,1264.42 386.86,1262.18 C384.94,1261.48 379.44,1260.39 376.69,1259.21 C374.66,1258.32 369.20,1255.32 366.57,1254.39 C356.00,1250.66 342.90,1241.98 329.92,1235.60 C323.40,1232.22 316.54,1230.51 314.60,1229.48 C312.72,1228.48 304.45,1225.23 303.05,1224.73 C301.03,1223.99 280.95,1219.32 271.35,1215.98 C266.60,1214.43 256.98,1212.33 256.20,1212.12 C255.46,1211.92 232.32,1204.81 231.68,1204.68 C229.16,1204.20 224.99,1203.63 221.49,1203.86 C221.17,1203.89 211.04,1210.26 208.26,1211.85 C200.23,1216.79 195.29,1220.74 194.21,1222.31 C193.82,1222.89 190.40,1228.84 190.08,1230.58 C190.08,1230.59 190.08,1247.80 190.36,1248.48 C191.10,1250.26 191.97,1251.96 192.01,1251.79 C192.92,1251.71 195.82,1252.96 206.06,1252.34 C209.27,1252.13 214.08,1250.80 216.25,1249.31 C218.80,1247.53 220.53,1245.89 223.14,1243.80 C225.85,1241.63 228.21,1235.27 228.37,1234.99 C228.78,1234.27 229.70,1232.44 230.03,1232.51 C230.63,1233.16 229.33,1235.87 226.44,1240.52 C222.90,1246.19 211.67,1258.53 208.54,1260.88 C200.04,1267.14 198.43,1268.80 195.87,1272.18 C194.00,1274.64 188.98,1277.31 188.15,1278.24 C187.83,1278.21 187.98,1272.16 189.44,1269.32 C191.17,1266.04 193.61,1263.40 197.66,1259.68 C200.13,1257.44 203.57,1254.91 206.16,1253.51 C208.98,1252.02 225.60,1247.42 229.48,1247.11 C232.52,1246.89 236.33,1246.81 243.02,1246.81 C247.57,1246.82 249.69,1247.07 253.14,1247.91 C256.74,1248.83 261.28,1250.22 266.74,1252.07 C270.25,1253.30 273.75,1255.31 276.58,1256.75 C278.17,1257.55 283.15,1261.21 283.47,1261.43 C284.62,1262.27 285.05,1265.63 284.57,1267.22 C284.16,1268.37 282.66,1269.43 279.89,1270.52 C276.45,1271.84 271.47,1272.71 267.44,1272.72 C256.03,1272.73 252.56,1272.59 250.96,1271.63 C248.60,1270.11 245.65,1266.15 244.90,1263.64 C243.92,1259.99 243.36,1256.15 243.53,1255.10 C243.82,1253.79 247.13,1252.45 251.30,1251.51 C255.05,1250.69 274.03,1250.89 277.00,1251.24 C280.11,1251.63 298.24,1257.11 306.21,1259.57 C316.31,1262.87 328.80,1267.93 332.80,1270.08 C334.34,1270.91 341.03,1275.43 342.15,1276.31 C345.52,1279.01 347.40,1282.16 347.66,1284.57 C347.72,1285.59 347.51,1287.20 347.11,1287.88 C346.10,1289.46 341.03,1291.81 338.02,1292.56 C333.36,1293.66 312.05,1293.64 310.26,1293.66 C305.43,1293.70 299.37,1292.62 292.72,1290.31 C290.42,1289.49 286.20,1285.64 284.85,1282.64 C283.72,1280.05 282.24,1273.79 282.64,1272.45 C283.44,1270.16 285.19,1268.61 287.68,1268.17 C294.67,1266.92 308.33,1266.46 313.77,1266.87 C316.56,1267.10 322.14,1268.31 325.12,1268.88 C329.55,1269.73 332.79,1270.85 337.74,1273.21 C341.01,1274.66 345.50,1276.68 350.28,1279.27 C355.45,1282.05 356.95,1283.06 361.16,1286.50 C361.85,1287.13 362.41,1289.58 361.71,1290.36 C360.53,1291.58 351.50,1291.40 348.07,1291.48 C337.75,1291.68 316.26,1286.28 315.70,1285.95 C312.26,1283.83 311.27,1280.89 311.29,1279.06 C312.16,1278.37 313.27,1278.09 315.74,1278.13 C320.11,1278.24 328.25,1278.66 330.65,1278.99 C344.46,1281.00 371.80,1289.85 382.77,1292.56 C390.45,1294.52 405.38,1298.54 412.64,1300.60 C419.33,1302.76 429.13,1305.82 430.85,1306.61 C430.74,1307.06 414.15,1308.53 408.82,1307.71 C406.50,1307.34 400.00,1304.56 397.80,1302.48 C397.05,1301.77 396.22,1300.53 395.59,1299.45" fill="none" stroke="rgb(255, 255, 255)" stroke-width="40.00" stroke-opacity="1.00" stroke-linejoin="round"/>
<path d="M404.96,1259.50 C404.96,1258.13 404.94,1256.02 404.68,1255.65 C402.27,1252.23 388.94,1240.81 387.60,1239.67 C386.35,1238.60 356.34,1215.22 351.24,1210.47 C349.14,1208.50 344.30,1202.80 342.42,1201.10 C338.31,1197.40 315.44,1181.28 314.88,1180.72 C310.98,1176.82 303.40,1172.41 298.85,1169.54 C294.59,1166.78 290.84,1164.82 290.36,1164.46 C283.83,1159.56 280.21,1156.19 275.04,1152.98 C271.75,1150.60 267.25,1148.39 263.36,1146.83 C262.32,1146.42 254.78,1145.34 252.26,1145.35 C247.92,1145.38 234.85,1148.48 228.65,1149.86 C220.10,1151.97 208.29,1158.12 204.41,1160.61 C201.56,1162.44 198.77,1164.65 195.02,1167.04 C192.12,1168.91 184.07,1177.16 182.64,1179.89 C181.97,1181.22 181.77,1182.42 181.82,1184.30 C181.90,1185.38 182.71,1186.50 183.75,1186.78 C185.75,1187.24 193.27,1184.90 194.25,1184.71 C200.53,1183.57 216.30,1182.33 220.39,1182.92 C221.19,1183.04 224.97,1184.66 225.62,1184.85 C226.11,1185.00 231.57,1185.89 236.36,1187.33 C237.10,1187.55 243.41,1189.28 247.11,1190.91 C250.17,1192.26 259.45,1194.40 261.16,1195.32 C264.22,1197.16 279.56,1203.37 284.67,1205.45 C286.55,1206.21 298.96,1209.64 301.65,1210.19 C304.20,1210.72 308.39,1212.64 311.29,1213.77 C314.30,1214.95 317.13,1217.40 317.91,1217.63 C318.27,1217.73 322.60,1219.97 325.90,1219.83 C326.15,1219.82 326.34,1219.82 326.45,1219.83 C325.20,1218.52 310.29,1207.02 306.51,1204.74 C292.52,1196.61 262.94,1180.03 259.72,1178.72 C255.66,1177.08 240.96,1172.74 238.29,1171.90 C237.30,1171.59 233.51,1170.30 232.78,1170.25 C229.82,1170.07 228.19,1170.71 227.00,1172.18 C226.58,1172.70 226.00,1173.13 225.62,1173.28" fill="none" stroke="rgb(255, 255, 255)" stroke-width="40.00" stroke-opacity="1.00" stroke-linejoin="round"/>
<path d="M316.80,1172.45 C316.62,1170.49 310.98,1158.66 307.71,1154.55 C301.20,1146.36 295.24,1139.25 291.08,1134.34 C287.32,1130.30 277.29,1118.75 274.11,1114.55 C272.03,1111.87 265.80,1105.79 265.29,1105.23 C262.86,1102.57 259.87,1096.58 257.58,1093.94 C256.55,1092.76 246.46,1078.04 244.36,1075.19 C243.24,1073.66 238.02,1064.19 235.73,1059.39 C234.25,1056.83 231.51,1051.89 229.75,1049.59 C229.08,1048.70 225.36,1039.52 224.79,1035.54 C224.14,1030.84 220.48,1024.09 220.39,1023.42 C218.98,1024.75 216.82,1028.61 215.85,1031.45 C213.14,1039.69 207.97,1050.93 207.16,1053.17 C206.43,1055.23 202.20,1072.04 200.83,1077.96 C200.06,1081.42 197.92,1096.75 196.97,1105.79 C195.82,1115.00 195.59,1120.27 195.59,1130.89 C195.59,1134.04 195.59,1141.28 195.59,1141.32 C195.68,1144.09 196.81,1146.51 196.69,1146.83 C198.70,1141.11 203.10,1107.82 205.03,1093.87 C205.22,1092.38 206.89,1083.31 207.02,1082.26 C207.18,1080.88 207.12,1072.24 207.36,1070.13 C207.50,1068.90 207.87,1067.91 208.54,1066.67 C211.48,1067.17 229.37,1100.42 233.39,1106.53 C235.36,1109.53 244.28,1125.70 248.18,1130.60 C253.02,1136.60 258.40,1145.56 258.40,1147.93 C257.33,1148.03 256.64,1147.81 255.84,1146.87 C253.66,1144.31 234.43,1118.71 224.61,1108.01 C216.17,1099.02 204.42,1091.39 203.03,1090.36 C203.03,1090.36 202.20,1091.18 202.20,1091.18 C202.99,1094.92 206.20,1109.65 208.55,1114.72 C211.87,1121.86 217.69,1134.58 219.95,1138.32 C221.97,1141.67 225.89,1148.76 225.90,1148.76 C226.02,1148.70 226.39,1148.15 227.00,1147.11" fill="none" stroke="rgb(255, 255, 255)" stroke-width="40.00" stroke-opacity="1.00" stroke-linejoin="round"/>
<path d="M262.26,1068.04 C261.29,1067.80 260.79,1067.08 259.23,1063.64 C258.08,1061.10 252.60,1052.09 246.40,1043.06 C244.56,1040.34 242.75,1036.41 241.99,1035.16 C240.85,1033.33 238.59,1030.54 236.64,1026.72 C236.11,1025.68 229.30,1013.70 228.93,1012.95 C228.73,1012.54 221.07,993.33 220.28,991.06 C219.23,987.68 216.94,980.72 215.70,977.13 C214.79,974.96 211.35,968.23 210.95,967.06 C208.11,958.73 206.06,948.19 205.79,947.66 C205.14,946.43 203.32,940.66 203.31,939.12 C203.30,938.75 202.84,935.24 202.75,934.99 C201.84,932.18 200.00,920.39 199.45,918.46 C198.99,914.83 193.30,895.13 193.11,894.21 C192.84,892.91 192.63,888.76 191.46,884.85 C190.47,881.59 190.73,865.25 190.63,864.46 C190.57,863.97 190.00,862.89 190.08,862.53 C190.08,878.22 190.08,912.09 190.80,919.05 C191.66,928.08 191.81,962.23 193.32,972.87 C193.58,974.67 195.73,994.04 196.59,998.17 C197.50,1002.45 199.03,1006.88 200.00,1011.29 C200.26,1012.52 201.49,1018.96 201.10,1021.76 C200.48,1026.10 200.56,1031.14 200.55,1031.96" fill="none" stroke="rgb(255, 255, 255)" stroke-width="40.00" stroke-opacity="1.00" stroke-linejoin="round"/>
<path d="M198.35,737.19" fill="none" stroke="rgb(255, 255, 255)" stroke-width="40.00" stroke-opacity="1.00" stroke-linejoin="round"/>
<path d="M198.35,737.19 L199.45,272.73" fill="none" stroke="rgb(255, 255, 255)" stroke-width="40.00" stroke-opacity="1.00" stroke-linejoin="round"/>
<path d="M199.45,272.73" fill="none" stroke="rgb(255, 255, 255)" stroke-width="40.00" stroke-opacity="1.00" stroke-linejoin="round"/>
<path d="M199.45,273.28 C200.78,276.77 202.53,279.02 202.75,279.34 C203.00,279.67 205.50,283.02 205.79,283.20 C206.28,283.50 210.37,285.69 212.95,288.15 C217.58,292.08 225.90,302.62 227.82,304.96 C228.68,305.99 234.41,313.92 235.81,315.70 C237.84,318.30 243.88,331.45 248.76,337.38 C250.68,339.72 256.06,346.52 256.75,347.38 C257.70,348.59 262.01,356.83 262.26,357.30 C262.76,358.26 266.67,368.72 266.94,369.42 C267.17,370.02 268.99,372.89 269.15,373.28 C269.16,373.32 271.56,382.14 271.96,383.98 C272.97,388.69 274.58,393.64 274.93,394.21 C276.49,396.85 277.37,401.53 277.69,402.75 C278.31,405.14 280.58,410.18 280.97,411.99 C282.15,417.61 284.30,422.72 284.30,425.62 C284.85,427.96 284.96,431.61 285.40,433.33 C286.00,435.68 285.92,438.97 285.95,444.90 C285.98,449.64 285.63,451.78 284.57,455.10 C284.22,456.18 283.24,458.00 282.64,458.95" fill="none" stroke="rgb(255, 255, 255)" stroke-width="40.00" stroke-opacity="1.00" stroke-linejoin="round"/>
<path d="M278.79,469.42 C278.67,471.17 277.77,472.54 277.41,473.00 C277.03,473.49 272.59,479.89 270.52,482.37 C268.29,485.56 256.69,499.70 254.99,502.11 C248.69,511.28 243.23,520.57 241.03,525.05 C238.37,530.42 232.16,538.21 228.65,544.63 C225.48,550.69 219.81,561.54 217.36,568.60 C214.77,577.23 214.05,580.85 213.77,581.82 C213.21,584.14 212.23,593.04 212.12,593.39 C211.85,594.25 209.81,601.02 209.37,601.65 C208.74,602.59 208.81,606.31 208.83,611.50 C208.81,617.28 208.85,617.66 209.09,617.63 C209.33,617.43 209.39,615.39 209.64,614.60 C210.04,613.35 211.56,610.32 211.86,608.27 C213.05,600.29 224.49,571.81 224.79,571.35 C225.03,571.01 226.54,567.83 226.72,567.49 C226.95,567.06 230.65,562.15 231.68,559.50 C234.40,552.17 235.79,546.92 236.36,542.98 C236.36,542.98 236.28,522.09 235.54,519.14 C233.56,513.02 229.01,496.99 228.37,493.39 C227.27,486.36 223.49,466.16 223.42,465.56 C221.90,453.62 217.80,420.43 217.63,417.63 C217.59,410.85 217.35,399.89 216.25,395.32 C215.43,391.76 215.41,374.15 215.42,364.86 C215.42,357.50 215.43,347.38 215.43,344.63 C216.75,344.23 218.79,346.34 220.94,349.86 C222.01,351.65 226.83,357.98 227.34,358.78 C229.47,362.10 240.22,383.87 240.77,385.12 C242.10,388.19 243.59,393.54 244.63,395.87 C245.15,397.03 249.44,405.01 250.58,407.95 C254.53,418.29 256.88,423.63 257.58,426.72 C257.78,427.66 259.54,440.39 259.50,444.63 C259.49,445.96 259.39,452.81 257.30,455.10 C257.08,455.34 253.90,459.96 253.72,460.06 C253.54,460.15 250.02,462.19 249.59,462.53 C248.52,463.41 245.61,469.34 245.73,469.70 C245.83,456.67 245.67,451.91 244.57,443.21 C243.88,437.72 240.53,418.99 240.50,418.73 C239.60,412.55 237.61,405.20 237.47,404.41 C237.47,407.19 239.37,416.48 240.86,427.99 C241.93,437.00 242.01,455.38 241.60,456.75 C241.22,457.97 238.02,465.15 237.47,466.67 C237.47,466.67 236.36,466.94 236.36,466.94 C236.04,466.28 231.00,446.38 224.87,425.59 C221.36,412.23 219.15,404.27 217.36,397.80 C217.10,396.94 215.91,393.43 215.98,391.74" fill="none" stroke="rgb(255, 255, 255)" stroke-width="40.00" stroke-opacity="1.00" stroke-linejoin="round"/>
<path d="M230.30,289.81 C231.08,288.92 237.71,289.89 240.35,289.85 C242.66,289.80 246.36,289.60 249.31,288.43 C251.42,287.57 266.82,277.81 274.10,270.52 C274.48,270.34 281.27,265.29 283.75,263.09 C285.98,261.27 288.52,258.08 290.36,253.44 C290.59,252.87 292.61,248.19 292.84,247.66 C293.71,245.58 294.20,240.97 294.20,233.47 C294.20,226.53 292.87,222.36 292.29,219.28 C291.26,213.89 291.61,206.17 290.08,203.86 C290.08,203.86 283.47,195.87 283.47,195.87 C284.66,195.47 290.12,196.38 293.94,196.69 C307.67,198.53 340.33,203.38 346.61,203.32 C353.16,203.27 354.40,203.35 356.20,203.58 C358.03,210.53 359.36,239.57 358.68,253.72 C358.29,261.34 355.44,275.79 353.44,281.27 C351.91,285.49 349.72,300.06 349.52,300.77 C347.82,305.58 343.59,319.16 341.87,325.62 C340.45,330.39 324.67,362.94 323.69,364.74 C321.77,368.28 319.14,374.36 318.46,376.58 C317.65,379.19 315.12,383.62 314.60,385.40 C312.99,390.60 304.83,418.90 304.41,421.49 C304.01,423.93 302.09,428.88 301.93,429.48 C301.81,429.92 300.66,436.50 300.28,438.29" fill="none" stroke="rgb(255, 255, 255)" stroke-width="40.00" stroke-opacity="1.00" stroke-linejoin="round"/>
<path d="M295.87,386.78 C296.43,385.98 296.45,367.18 296.43,357.84 C296.43,350.96 296.51,337.74 295.59,335.26 C291.12,323.55 281.96,315.31 281.82,315.15 C281.55,315.31 278.73,313.67 274.66,313.50 C273.47,313.44 270.03,311.85 269.42,311.57 C268.93,311.35 267.74,310.68 266.94,311.02 C267.29,312.61 268.22,313.40 268.32,313.77 C268.46,314.33 268.24,317.95 268.32,318.46 C268.54,319.88 272.45,327.96 273.00,329.20 C273.81,331.05 273.83,333.99 274.93,335.81 C275.34,336.47 276.70,342.36 277.41,342.70 C278.77,343.25 279.18,343.28 280.17,342.98 C281.98,337.54 285.27,329.91 289.53,320.94 C290.69,318.55 299.49,295.34 300.53,293.14 C308.47,276.47 316.30,257.56 317.36,253.99 C318.32,250.41 322.33,237.96 322.59,237.19 C324.12,232.58 323.96,222.52 323.97,220.66 C324.78,220.42 325.95,220.32 326.45,220.66 C326.54,220.73 330.44,228.65 332.23,231.96 C335.53,239.24 336.93,262.42 336.57,268.32 C336.37,271.37 334.43,288.38 332.16,296.91 C328.29,310.59 322.48,331.52 320.55,338.79 C319.10,344.22 313.65,349.43 313.22,349.86 C311.96,349.12 311.12,347.74 310.47,345.18 C308.97,338.82 300.75,311.19 300.38,309.29 C300.20,308.33 298.04,290.48 298.07,288.43 C297.02,288.29 296.41,288.55 295.45,289.75 C292.64,293.19 283.18,299.95 278.81,302.05 C277.21,302.83 271.36,309.02 268.87,307.99" fill="none" stroke="rgb(255, 255, 255)" stroke-width="40.00" stroke-opacity="1.00" stroke-linejoin="round"/>
<path d="M321.76,405.51 C322.43,405.45 326.73,399.36 327.27,398.62 C327.72,398.03 332.82,390.47 334.44,388.71 C338.15,384.99 344.79,378.03 348.68,375.73 C350.39,374.72 360.98,365.41 362.65,364.22 C363.75,363.45 374.85,355.87 378.95,352.39 C380.47,351.11 390.79,343.13 393.02,340.84 C394.93,338.88 399.58,334.86 403.31,332.23 C404.25,331.57 411.11,324.44 411.57,323.97 C414.41,321.08 424.64,314.12 429.20,309.37 C430.16,308.36 439.61,300.31 441.32,299.17 C449.43,292.68 454.05,289.45 455.10,288.98 C456.08,288.53 458.97,285.77 464.19,282.92 C467.44,281.18 481.05,273.76 481.54,273.55 C484.23,272.42 489.87,269.49 493.11,268.32 C501.59,265.90 519.35,259.06 519.56,258.95 C523.02,257.10 527.31,253.49 534.44,246.01 C538.15,242.07 547.39,228.55 550.37,225.05 C552.33,222.71 554.96,218.08 556.51,214.56 C558.25,210.57 559.17,208.53 559.78,204.41 C560.46,199.53 560.28,197.51 560.06,197.25 C536.95,197.14 526.58,197.82 522.31,198.35 C517.63,199.02 515.09,199.95 514.33,200.00 C505.11,200.57 487.94,201.09 462.08,201.09 C454.46,201.09 438.15,199.17 431.96,198.35 C427.06,197.80 413.48,197.76 405.46,197.74 C395.75,197.72 379.60,197.77 379.21,197.75 C376.88,197.70 375.48,198.17 375.21,199.45 C374.62,202.55 374.65,232.95 374.66,233.06 C375.12,237.97 380.63,253.18 380.72,253.99 C381.36,260.35 380.17,269.57 377.96,278.24 C376.63,283.24 375.87,286.69 374.93,288.43 C373.37,291.32 371.39,296.66 370.04,298.48 C368.67,300.32 350.83,326.03 347.66,330.58 C347.40,331.00 347.08,332.68 346.83,333.06 C350.14,332.72 352.92,330.28 355.37,327.00 C356.87,324.99 364.01,321.03 367.42,318.94 C369.38,317.74 385.15,307.55 391.32,304.23 C405.41,296.70 426.81,285.42 442.15,278.36 C446.65,276.19 461.38,266.93 465.94,264.54 C470.37,262.22 488.43,252.01 491.74,249.86 C491.84,249.80 506.30,239.03 514.88,233.33 C523.50,227.64 531.89,222.48 537.19,220.66 C541.74,219.28 549.26,216.90 557.30,215.70 C561.77,214.99 568.02,213.71 568.60,213.50 C568.31,212.57 546.45,214.62 546.14,214.65 C543.14,214.96 523.68,218.33 516.84,219.34 C509.53,220.27 496.06,221.98 488.93,223.13 C482.50,224.27 445.52,233.79 435.15,237.36 C428.11,239.65 413.07,245.00 410.11,245.93 C403.54,247.93 391.81,254.04 391.46,254.27 C388.85,256.00 379.22,265.23 377.13,267.77 C369.08,278.13 367.78,279.91 367.49,280.17 C367.69,280.09 369.32,276.12 371.71,273.41 C375.06,269.62 378.82,265.73 380.72,264.18 C384.38,261.23 398.44,253.95 405.27,251.30 C410.49,249.29 426.80,244.64 433.62,242.74 C462.42,234.99 501.66,231.09 501.65,231.13 C500.74,232.00 497.02,236.15 495.04,237.74 C494.13,238.47 487.43,243.27 485.55,244.17 C482.58,245.56 467.99,248.79 459.93,250.10 C446.81,251.91 422.85,255.40 419.56,255.65 C419.27,255.09 419.35,254.09 420.11,253.17 C420.45,252.76 428.20,244.61 428.65,244.08 C430.62,241.80 433.30,239.57 437.47,237.19 C440.46,235.45 448.51,230.83 449.59,230.30 C453.96,228.19 464.71,226.48 473.73,225.56 C475.60,225.38 477.44,225.26 477.96,225.34 C478.55,225.47 479.01,229.54 477.96,232.51 C477.59,233.51 473.80,237.61 470.75,240.54 C467.57,243.56 453.11,252.44 447.82,254.60 C438.67,258.26 426.51,262.52 421.42,263.94 C415.07,265.70 400.49,268.45 395.22,268.72 C393.22,268.82 376.13,268.79 375.48,268.60 C373.39,267.92 371.35,266.56 371.35,265.56 C371.38,264.37 371.46,258.03 372.45,255.37 C373.19,253.52 375.71,250.25 378.83,246.78 C382.92,242.36 393.40,235.35 400.77,231.57 C407.13,228.28 419.57,221.88 428.13,219.51 C438.13,216.87 447.00,215.32 447.93,215.70 C448.14,216.47 448.21,216.82 448.48,218.73 C448.81,221.32 446.33,225.66 443.80,228.93 C441.86,231.29 438.59,233.95 436.05,235.28 C432.27,237.23 421.44,240.11 416.35,240.38 C414.35,240.47 409.03,240.85 407.05,240.63 C405.01,240.38 399.02,238.34 396.69,236.64 C395.54,235.78 393.73,233.93 393.11,233.06 C392.77,232.46 393.20,230.11 393.94,228.93 C394.73,227.74 402.48,225.76 406.34,224.79 C409.88,223.92 417.65,223.41 421.21,223.14 C423.92,223.03 430.29,223.22 432.59,224.24 C433.20,224.52 434.69,225.21 434.71,225.34" fill="none" stroke="rgb(255, 255, 255)" stroke-width="40.00" stroke-opacity="1.00" stroke-linejoin="round"/>
<path d="M543.80,224.79 C549.45,224.93 560.87,222.18 561.16,222.04 C563.83,220.74 581.08,216.63 582.37,215.98 C587.19,213.54 592.82,212.17 595.04,211.57 C596.51,211.18 613.41,206.69 619.52,205.76 C640.24,202.41 661.49,198.56 668.60,198.35 C673.02,198.20 683.84,195.63 688.43,194.77 C690.32,194.47 697.29,194.52 697.52,194.49 C700.55,193.94 719.57,191.12 721.76,191.18" fill="none" stroke="rgb(255, 255, 255)" stroke-width="40.00" stroke-opacity="1.00" stroke-linejoin="round"/>
<path d="M876.03,193.39 C876.03,193.39 880.44,193.39 880.44,193.39" fill="none" stroke="rgb(255, 255, 255)" stroke-width="40.00" stroke-opacity="1.00" stroke-linejoin="round"/>
<path d="M880.44,193.39 L1294.21,204.41" fill="none" stroke="rgb(255, 255, 255)" stroke-width="40.00" stroke-opacity="1.00" stroke-linejoin="round"/>
<path d="M1294.21,204.41" fill="none" stroke="rgb(255, 255, 255)" stroke-width="40.00" stroke-opacity="1.00" stroke-linejoin="round"/>
<path d="M1294.21,204.41 L1293.11,235.26" fill="none" stroke="rgb(255, 255, 255)" stroke-width="40.00" stroke-opacity="1.00" stroke-linejoin="round"/>
<path d="M1293.11,235.26 C1293.11,235.26 1293.11,236.36 1293.11,236.36" fill="none" stroke="rgb(255, 255, 255)" stroke-width="40.00" stroke-opacity="1.00" stroke-linejoin="round"/>
<path d="M1288.71,229.48 C1288.72,231.91 1289.75,242.76 1289.81,242.98 C1290.01,243.65 1292.39,249.51 1292.84,249.59 C1294.94,253.34 1297.53,256.42 1298.35,257.85 C1301.10,261.71 1306.68,269.07 1307.71,269.70 C1307.94,269.83 1311.23,271.12 1311.57,271.35 C1316.24,274.45 1323.15,277.68 1324.24,277.69 C1324.82,277.69 1326.59,278.79 1327.27,279.06 C1328.05,279.38 1329.66,279.30 1329.75,279.34 C1330.52,279.63 1332.95,280.92 1333.61,280.99 C1335.73,281.23 1337.72,281.98 1338.57,282.09 C1338.63,282.10 1363.45,282.15 1363.91,282.09 C1368.64,281.15 1373.05,279.74 1373.83,278.79 C1373.83,278.79 1376.86,278.24 1376.86,278.24" fill="none" stroke="rgb(255, 255, 255)" stroke-width="40.00" stroke-opacity="1.00" stroke-linejoin="round"/>
<path d="M1376.86,278.24" fill="none" stroke="rgb(255, 255, 255)" stroke-width="40.00" stroke-opacity="1.00" stroke-linejoin="round"/>
<path d="M1376.86,278.24 L1385.67,667.77" fill="none" stroke="rgb(255, 255, 255)" stroke-width="40.00" stroke-opacity="1.00" stroke-linejoin="round"/>
<path d="M1385.67,667.77 C1385.67,667.77 1386.23,667.77 1386.23,667.77" fill="none" stroke="rgb(255, 255, 255)" stroke-width="40.00" stroke-opacity="1.00" stroke-linejoin="round"/>
<path d="M1384.57,652.89 C1384.56,645.75 1384.60,643.22 1384.02,640.50 C1383.79,639.40 1382.86,635.74 1382.92,634.16" fill="none" stroke="rgb(255, 255, 255)" stroke-width="40.00" stroke-opacity="1.00" stroke-linejoin="round"/>
<path d="M1383.47,620.39 C1383.45,614.09 1383.53,611.91 1382.64,607.99 C1381.85,604.37 1380.44,593.66 1379.89,588.43 C1379.65,586.82 1378.25,580.84 1377.90,577.40 C1377.16,570.19 1376.69,566.31 1376.03,564.02 C1374.43,558.70 1369.95,549.28 1369.70,548.48 C1369.52,547.93 1364.52,536.13 1364.19,536.09" fill="none" stroke="rgb(255, 255, 255)" stroke-width="40.00" stroke-opacity="1.00" stroke-linejoin="round"/>
<path d="M1365.84,591.18 C1365.80,584.62 1363.57,578.45 1363.36,577.41 C1363.09,574.66 1362.10,568.44 1359.23,560.33 C1356.23,551.77 1354.91,544.89 1352.07,538.84 C1345.67,523.43 1338.53,509.03 1332.51,498.07 C1331.92,496.99 1327.32,488.50 1327.00,487.88 C1326.17,486.50 1322.14,480.72 1321.49,479.61 C1320.36,477.72 1314.88,470.00 1314.60,469.70 C1313.80,468.83 1311.71,465.56 1311.85,465.29 C1311.85,465.29 1310.74,464.19 1310.74,464.19 C1310.74,464.19 1310.47,463.09 1310.47,463.09 C1310.75,462.75 1317.49,462.82 1321.33,462.87 C1325.41,462.93 1331.03,461.27 1334.71,460.33 C1336.28,459.93 1338.98,458.54 1340.22,457.85 C1341.08,457.41 1343.10,457.11 1343.25,457.02 C1343.68,456.78 1346.68,453.95 1347.11,453.72 C1347.52,453.49 1349.79,452.82 1350.14,452.89 C1350.14,452.89 1355.65,450.14 1355.65,450.14 C1355.86,450.48 1356.95,453.93 1357.02,455.37 C1357.58,466.84 1357.59,492.12 1357.58,506.06 C1355.96,497.53 1354.82,489.86 1354.82,487.88 C1354.80,487.65 1354.71,487.28 1354.55,486.78" fill="none" stroke="rgb(255, 255, 255)" stroke-width="40.00" stroke-opacity="1.00" stroke-linejoin="round"/>
<path d="M1301.38,452.89 C1301.44,452.31 1299.73,443.76 1299.69,436.12 C1299.70,419.31 1299.73,378.44 1300.55,374.93 C1300.73,374.20 1305.41,356.00 1306.61,348.76 C1307.30,343.25 1309.00,332.11 1311.09,327.26 C1311.78,325.65 1314.72,310.38 1315.98,306.61 C1316.67,304.30 1317.88,302.84 1317.91,302.20 C1317.99,300.46 1318.76,299.82 1319.83,300.00 C1320.67,300.15 1338.59,303.13 1339.12,303.31 C1342.00,304.33 1344.88,306.79 1345.45,307.16 C1345.63,307.28 1346.86,309.71 1347.38,311.02 C1348.27,313.33 1348.21,315.21 1348.22,320.44 C1348.25,328.39 1348.28,345.28 1348.30,354.22 C1348.22,365.17 1346.63,375.78 1346.56,377.96 C1346.50,380.00 1345.97,398.00 1345.51,404.24 C1345.29,406.62 1342.37,415.66 1341.32,424.52 C1339.92,434.56 1339.94,449.86 1339.94,452.07 C1338.86,451.61 1338.28,450.88 1337.63,448.81 C1335.39,441.82 1332.81,430.37 1331.32,424.85 C1330.14,418.20 1330.00,401.14 1329.94,393.79 C1329.97,375.31 1330.03,342.72 1330.30,342.15 C1331.32,343.62 1333.21,347.36 1335.54,350.82 C1337.83,354.24 1339.62,359.74 1340.66,363.00 C1341.91,366.91 1344.45,376.50 1344.63,377.13 C1345.27,379.46 1346.05,385.99 1347.12,389.30 C1348.21,392.65 1353.41,412.70 1355.04,416.86 C1356.52,420.63 1361.52,437.18 1361.43,437.19 C1361.10,431.73 1357.41,419.62 1355.60,413.89 C1352.55,403.03 1351.11,398.87 1349.02,387.48 C1347.65,377.90 1345.98,366.76 1346.01,365.84" fill="none" stroke="rgb(255, 255, 255)" stroke-width="40.00" stroke-opacity="1.00" stroke-linejoin="round"/>
<path d="M1283.75,426.45 C1283.52,423.95 1279.98,417.54 1279.61,416.80 C1278.16,413.97 1261.26,389.26 1258.55,384.57 C1254.73,377.96 1248.03,366.55 1244.63,360.06 C1241.90,354.92 1239.12,346.68 1238.57,345.73 C1236.66,342.87 1232.06,329.14 1231.96,328.93 C1230.45,325.35 1229.01,318.08 1228.65,317.08 C1228.35,316.23 1227.07,313.42 1227.00,312.40 C1226.70,308.31 1224.52,295.59 1223.97,289.53 C1223.12,283.41 1223.14,254.91 1223.42,253.44 C1224.66,249.45 1226.41,242.64 1228.10,239.39 C1228.95,238.12 1232.01,231.78 1233.06,230.30 C1233.33,229.93 1236.20,226.23 1238.29,224.52 C1239.18,223.83 1244.82,224.42 1249.09,225.60 C1250.48,225.99 1256.68,227.57 1257.30,227.82 C1258.09,228.15 1262.72,229.86 1264.19,230.58 C1264.72,230.85 1274.54,241.53 1275.48,242.98 C1275.95,243.72 1278.23,247.39 1279.11,248.80 C1280.04,250.32 1281.65,255.05 1281.82,255.65 C1282.09,257.16 1283.51,261.87 1283.75,266.94 C1283.85,269.58 1288.69,276.84 1290.08,280.17 C1290.91,282.23 1292.53,286.26 1292.56,286.78 C1292.73,289.04 1294.24,292.18 1294.77,296.14 C1294.93,297.35 1297.01,303.82 1297.80,305.79 C1298.09,306.70 1298.09,316.84 1297.84,318.49 C1297.36,321.45 1289.53,339.57 1287.33,343.25 C1286.36,345.18 1283.10,350.96 1282.92,351.52 C1280.73,358.49 1276.71,368.13 1276.31,369.42 C1276.21,369.43 1272.97,358.18 1270.69,351.53 C1268.68,344.92 1262.76,328.08 1261.71,324.51 C1258.10,312.16 1255.71,305.65 1255.17,299.24 C1254.66,292.42 1252.58,278.77 1251.72,272.73 C1251.46,271.17 1249.52,261.77 1249.56,257.22 C1249.57,256.06 1249.58,254.89 1249.59,253.72 C1249.94,254.76 1253.71,261.00 1255.13,263.89 C1271.14,297.44 1276.52,313.11 1279.61,319.83 C1279.97,320.62 1281.35,322.91 1281.54,324.79 C1281.57,325.09 1281.57,325.36 1281.54,325.62" fill="none" stroke="rgb(255, 255, 255)" stroke-width="40.00" stroke-opacity="1.00" stroke-linejoin="round"/>
<path d="M967.49,218.18 C967.51,217.56 971.65,217.63 976.75,217.63 C1011.38,217.61 1059.93,217.61 1073.85,217.62 C1077.64,217.61 1093.61,219.90 1101.46,220.98 C1114.11,222.70 1120.58,223.69 1128.35,223.71 C1136.23,223.70 1153.40,223.68 1162.69,223.66 C1174.82,223.67 1182.38,223.90 1187.88,225.07 C1191.30,225.92 1202.72,225.79 1203.31,225.90 C1203.89,226.00 1208.37,227.50 1209.09,227.55 C1212.69,227.82 1214.09,228.31 1215.15,228.65 C1215.34,229.54 1216.55,230.94 1216.54,232.89 C1216.53,235.80 1216.60,244.30 1216.53,244.90 C1216.17,247.88 1212.01,263.24 1211.29,268.87 C1211.14,270.11 1211.01,280.57 1211.02,280.72 C1211.35,284.42 1213.76,291.29 1218.38,300.05 C1220.76,304.71 1223.26,309.56 1227.73,318.67 C1228.61,320.48 1231.01,326.85 1232.51,329.48 C1232.92,330.28 1236.88,337.13 1236.91,337.19 C1237.24,337.75 1239.36,348.36 1239.67,349.31 C1239.76,349.59 1244.53,362.33 1245.18,367.77 C1245.19,367.89 1247.05,373.58 1247.38,374.10 C1248.60,376.02 1248.45,378.08 1248.48,378.79 C1247.13,379.11 1245.82,378.37 1244.35,376.31 C1243.52,375.15 1237.83,370.34 1235.81,367.77 C1235.41,367.24 1225.52,354.70 1222.59,352.34 C1219.97,350.25 1210.56,342.61 1210.47,342.42 C1209.70,340.93 1199.59,331.54 1195.04,327.27 C1194.25,326.56 1190.04,323.68 1189.53,323.14 C1189.22,322.81 1186.09,319.21 1185.12,318.46 C1184.04,317.62 1179.96,313.97 1177.41,312.40 C1177.41,312.39 1164.15,304.86 1160.33,302.20 C1151.79,296.42 1130.50,280.52 1125.62,277.13 C1122.36,274.85 1111.21,266.43 1107.90,264.87 C1106.61,264.26 1092.92,256.91 1090.91,255.65 C1090.43,255.34 1087.38,254.70 1087.05,254.55 C1086.79,254.42 1081.87,251.61 1080.00,250.88 C1077.44,249.79 1071.08,248.22 1069.57,247.75 C1067.07,246.97 1061.93,244.56 1059.78,244.08 C1058.57,243.81 1054.00,241.96 1049.31,241.32 C1048.70,241.25 1043.53,239.12 1040.50,238.29 C1034.13,236.69 1030.72,235.38 1030.30,235.26 C1043.00,235.25 1072.76,235.26 1089.82,235.28 C1099.27,235.34 1110.52,236.53 1116.74,237.24 C1121.11,237.69 1137.43,238.58 1146.01,240.63 C1148.77,241.30 1158.37,242.31 1159.57,242.56 C1167.46,244.25 1178.84,250.01 1181.82,252.07 C1183.21,253.03 1189.43,255.93 1190.08,256.20 C1193.69,257.51 1197.34,259.90 1199.82,261.69 C1204.06,264.78 1207.28,267.01 1207.71,268.04 C1207.88,268.47 1209.44,275.72 1209.64,276.31 C1211.55,281.95 1211.54,287.58 1211.29,287.60 C1209.34,287.66 1205.61,285.69 1204.68,285.12 C1173.06,266.89 1142.90,248.69 1132.23,242.70 C1132.03,243.31 1164.48,262.06 1176.61,269.30 C1190.50,277.64 1203.66,289.86 1205.23,291.46 C1216.17,302.64 1217.99,305.04 1218.18,305.51 C1217.94,304.24 1212.45,298.74 1211.85,298.07 C1207.69,293.33 1198.36,283.65 1192.96,277.80 C1187.48,271.68 1178.38,259.96 1173.71,255.23 C1165.85,247.21 1153.51,230.60 1152.62,228.37" fill="none" stroke="rgb(255, 255, 255)" stroke-width="40.00" stroke-opacity="1.00" stroke-linejoin="round"/>
<path d="M1388.43,907.44" fill="none" stroke="rgb(255, 255, 255)" stroke-width="40.00" stroke-opacity="1.00" stroke-linejoin="round"/>
<path d="M1388.43,907.44 L1379.06,1301.93" fill="none" stroke="rgb(255, 255, 255)" stroke-width="40.00" stroke-opacity="1.00" stroke-linejoin="round"/>
<path d="M1379.06,1301.93" fill="none" stroke="rgb(255, 255, 255)" stroke-width="40.00" stroke-opacity="1.00" stroke-linejoin="round"/>
<path d="M1373.00,1290.91 C1372.18,1290.19 1365.40,1287.64 1363.84,1287.34 C1362.28,1287.05 1352.21,1285.96 1343.32,1285.96 C1334.24,1285.96 1313.35,1285.95 1312.67,1286.23 C1309.31,1287.91 1299.51,1292.22 1298.90,1292.56 C1298.72,1292.66 1291.06,1299.58 1290.36,1300.55 C1286.82,1305.56 1283.31,1319.96 1283.20,1321.49 C1283.17,1321.81 1283.13,1339.65 1283.20,1339.94 C1283.36,1340.63 1284.30,1342.85 1284.30,1344.63 C1284.30,1346.76 1285.53,1352.03 1285.67,1352.34 C1285.87,1352.76 1289.69,1359.40 1290.08,1360.61 C1290.31,1361.33 1292.95,1369.54 1293.94,1371.35 C1294.51,1372.39 1294.85,1373.57 1294.77,1373.83 C1294.77,1373.83 1295.59,1374.66 1295.59,1374.66 C1296.30,1374.43 1296.48,1373.93 1296.42,1371.63 C1296.39,1370.34 1295.96,1360.99 1295.87,1360.06 C1295.57,1357.08 1294.46,1352.20 1294.15,1349.50 C1293.96,1347.82 1293.40,1341.30 1293.66,1338.02 C1294.09,1333.02 1297.89,1323.97 1300.44,1315.23 C1301.63,1311.15 1303.34,1300.38 1303.58,1298.07" fill="none" stroke="rgb(255, 255, 255)" stroke-width="40.00" stroke-opacity="1.00" stroke-linejoin="round"/>
<path d="M1276.58,1364.74" fill="none" stroke="rgb(255, 255, 255)" stroke-width="40.00" stroke-opacity="1.00" stroke-linejoin="round"/>
<path d="M1276.58,1364.74 L921.21,1384.57" fill="none" stroke="rgb(255, 255, 255)" stroke-width="40.00" stroke-opacity="1.00" stroke-linejoin="round"/>
<path d="M921.21,1384.57" fill="none" stroke="rgb(255, 255, 255)" stroke-width="40.00" stroke-opacity="1.00" stroke-linejoin="round"/>
<path d="M959.78,1375.76 C960.89,1375.59 965.35,1374.09 967.49,1372.73 C967.93,1372.45 968.22,1371.06 968.60,1370.52 C969.31,1369.50 984.54,1364.49 987.88,1363.91 C1011.19,1359.88 1016.26,1358.57 1021.21,1358.13 C1022.06,1358.05 1029.22,1357.19 1030.03,1357.02 C1031.17,1356.80 1034.03,1355.76 1035.54,1355.92 C1036.81,1356.05 1041.19,1354.77 1044.08,1354.82 C1059.07,1354.84 1081.84,1355.07 1083.20,1353.99 C1084.45,1353.03 1086.69,1352.71 1087.60,1352.62 C1095.79,1351.45 1107.73,1351.49 1116.07,1351.49 C1137.42,1351.52 1154.52,1350.46 1161.51,1349.10 C1172.38,1346.84 1183.65,1345.56 1184.45,1345.42 C1184.51,1345.41 1192.62,1342.59 1196.05,1342.14 C1207.13,1340.85 1221.75,1338.31 1222.04,1338.29 C1224.62,1338.29 1228.27,1337.74 1232.78,1337.74 C1233.76,1337.71 1238.61,1336.22 1240.77,1336.09 C1241.74,1336.04 1255.68,1336.13 1256.47,1335.81 C1256.47,1335.81 1256.75,1331.40 1256.75,1331.40 C1256.26,1331.16 1252.85,1326.31 1252.62,1326.17 C1251.36,1325.43 1248.71,1323.62 1247.66,1323.42 C1247.66,1323.42 1203.58,1323.42 1186.32,1323.42 C1174.17,1323.41 1171.78,1323.49 1163.09,1324.79 C1162.14,1324.94 1151.66,1326.87 1150.69,1327.00 C1148.62,1327.26 1143.73,1327.35 1140.77,1327.82 C1135.67,1328.79 1109.44,1332.68 1108.82,1332.78 C1104.93,1333.42 1098.45,1333.32 1098.35,1333.33 C1083.77,1335.42 1071.63,1337.19 1063.09,1338.29 C1057.78,1338.85 1048.57,1338.84 1045.45,1338.84 C1049.57,1338.88 1091.51,1333.18 1092.01,1333.06 C1092.29,1332.99 1097.52,1332.23 1099.72,1331.68 C1101.10,1331.68 1106.93,1331.17 1107.71,1330.85 C1110.71,1329.64 1119.99,1326.23 1125.34,1325.62 C1129.75,1324.52 1133.83,1324.17 1134.44,1323.97 C1135.26,1323.69 1137.08,1322.35 1137.74,1322.31" fill="none" stroke="rgb(255, 255, 255)" stroke-width="40.00" stroke-opacity="1.00" stroke-linejoin="round"/>
<path d="M1081.54,1327.82 C1081.53,1327.23 1081.62,1326.35 1081.82,1325.90 C1082.74,1324.04 1097.63,1320.58 1104.42,1318.27 C1111.11,1315.99 1117.51,1314.76 1130.58,1312.95 C1135.97,1312.14 1145.04,1311.34 1155.67,1311.22 C1185.69,1310.98 1246.01,1310.74 1246.01,1310.74 C1247.46,1310.79 1248.92,1310.27 1249.59,1310.19 C1250.43,1310.09 1255.06,1310.26 1255.37,1310.19 C1257.84,1309.67 1261.50,1308.94 1261.98,1308.82 C1263.33,1308.59 1266.29,1307.56 1266.94,1307.44" fill="none" stroke="rgb(255, 255, 255)" stroke-width="40.00" stroke-opacity="1.00" stroke-linejoin="round"/>
<path d="M1136.64,1300.83 C1136.64,1300.83 1135.54,1300.83 1135.54,1300.83" fill="none" stroke="rgb(255, 255, 255)" stroke-width="40.00" stroke-opacity="1.00" stroke-linejoin="round"/>
<path d="M1128.93,1300.28" fill="none" stroke="rgb(255, 255, 255)" stroke-width="40.00" stroke-opacity="1.00" stroke-linejoin="round"/>
<path d="M1128.93,1300.28 L1368.04,1256.20" fill="none" stroke="rgb(255, 255, 255)" stroke-width="40.00" stroke-opacity="1.00" stroke-linejoin="round"/>
<path d="M1368.04,1256.20" fill="none" stroke="rgb(255, 255, 255)" stroke-width="40.00" stroke-opacity="1.00" stroke-linejoin="round"/>
<path d="M1370.25,1220.94" fill="none" stroke="rgb(255, 255, 255)" stroke-width="40.00" stroke-opacity="1.00" stroke-linejoin="round"/>
<path d="M1370.25,1220.94 L1148.76,1278.79" fill="none" stroke="rgb(255, 255, 255)" stroke-width="40.00" stroke-opacity="1.00" stroke-linejoin="round"/>
<path d="M1148.76,1278.79 C1148.76,1278.79 1148.76,1278.24 1148.76,1278.24" fill="none" stroke="rgb(255, 255, 255)" stroke-width="40.00" stroke-opacity="1.00" stroke-linejoin="round"/>
<path d="M1148.76,1278.24 L1386.78,1175.21" fill="none" stroke="rgb(255, 255, 255)" stroke-width="40.00" stroke-opacity="1.00" stroke-linejoin="round"/>
<path d="M1386.78,1175.21" fill="none" stroke="rgb(255, 255, 255)" stroke-width="40.00" stroke-opacity="1.00" stroke-linejoin="round"/>
<path d="M1386.78,1175.21 L1190.63,1240.77" fill="none" stroke="rgb(255, 255, 255)" stroke-width="40.00" stroke-opacity="1.00" stroke-linejoin="round"/>
<path d="M1190.63,1240.77" fill="none" stroke="rgb(255, 255, 255)" stroke-width="40.00" stroke-opacity="1.00" stroke-linejoin="round"/>
<path d="M1190.63,1240.77 L1375.21,1145.45" fill="none" stroke="rgb(255, 255, 255)" stroke-width="40.00" stroke-opacity="1.00" stroke-linejoin="round"/>
<path d="M1375.21,1145.45" fill="none" stroke="rgb(255, 255, 255)" stroke-width="40.00" stroke-opacity="1.00" stroke-linejoin="round"/>
<path d="M1375.21,1145.45 L1245.73,1195.04" fill="none" stroke="rgb(255, 255, 255)" stroke-width="40.00" stroke-opacity="1.00" stroke-linejoin="round"/>
<path d="M1245.73,1195.04" fill="none" stroke="rgb(255, 255, 255)" stroke-width="40.00" stroke-opacity="1.00" stroke-linejoin="round"/>
<path d="M1245.73,1195.04 L1396.69,1104.68" fill="none" stroke="rgb(255, 255, 255)" stroke-width="40.00" stroke-opacity="1.00" stroke-linejoin="round"/>
<path d="M1396.69,1104.68" fill="none" stroke="rgb(255, 255, 255)" stroke-width="40.00" stroke-opacity="1.00" stroke-linejoin="round"/>
<path d="M1396.69,1104.68 L1280.44,1158.13" fill="none" stroke="rgb(255, 255, 255)" stroke-width="40.00" stroke-opacity="1.00" stroke-linejoin="round"/>
<path d="M1280.44,1158.13" fill="none" stroke="rgb(255, 255, 255)" stroke-width="40.00" stroke-opacity="1.00" stroke-linejoin="round"/>
<path d="M1284.57,1139.67 C1287.56,1136.65 1292.43,1133.42 1293.39,1132.78 C1298.97,1129.11 1338.23,1112.59 1343.52,1109.76 C1346.08,1108.38 1362.30,1098.36 1362.81,1098.07 C1363.11,1097.90 1366.46,1096.41 1367.79,1095.75 C1367.93,1095.68 1371.29,1092.67 1374.94,1090.68 C1376.46,1089.86 1376.81,1089.71 1376.86,1089.81" fill="none" stroke="rgb(255, 255, 255)" stroke-width="40.00" stroke-opacity="1.00" stroke-linejoin="round"/>
<path d="M1315.70,1120.11 C1316.27,1117.84 1317.23,1116.07 1319.01,1114.05 C1323.30,1109.28 1330.19,1100.00 1335.26,1093.94 C1338.29,1090.31 1341.26,1085.65 1343.53,1081.54 C1345.91,1077.17 1358.80,1045.75 1360.33,1042.98 C1364.05,1036.10 1366.99,1016.49 1369.15,1002.48 C1369.23,1001.93 1370.97,989.82 1373.28,982.64 C1373.55,981.78 1374.57,979.67 1374.66,978.79 C1374.71,984.83 1374.55,990.13 1373.69,993.10 C1373.12,994.98 1366.16,1010.31 1364.25,1016.30 C1360.58,1027.99 1358.68,1036.09 1357.02,1043.25 C1356.19,1046.40 1350.27,1064.76 1347.66,1069.97 C1346.06,1073.15 1334.68,1093.86 1333.88,1096.42 C1332.34,1102.34 1327.93,1117.74 1326.17,1120.66 C1321.52,1128.43 1312.38,1140.14 1311.29,1142.98 C1311.22,1138.34 1312.06,1133.00 1313.57,1128.99 C1315.07,1125.30 1317.66,1116.37 1321.91,1106.57 C1324.51,1100.72 1338.22,1077.41 1339.12,1074.93 C1341.96,1067.84 1343.67,1063.95 1344.35,1063.36" fill="none" stroke="rgb(255, 255, 255)" stroke-width="40.00" stroke-opacity="1.00" stroke-linejoin="round"/>
</g>
</svg>
