<?xml version="1.0" encoding="UTF-8" standalone="no"?>
<!DOCTYPE svg PUBLIC "-//W3C//DTD SVG 1.1//EN" "http://www.w3.org/Graphics/SVG/1.1/DTD/svg11.dtd">
<svg width="1920.00" height="1080.00" viewBox="0.00 0.00 1920.00 1080.00" xmlns="http://www.w3.org/2000/svg" xmlns:xlink="http://www.w3.org/1999/xlink">
<g stroke-linecap="round" id="Capa_26_-_copia">
<path d="M528.00,180.00 Q684.33,180.00 840.67,180.00 Q865.67,180.00 865.67,205.00 Q865.67,361.33 865.67,517.67 Q865.67,542.67 840.67,542.67 Q684.33,542.67 528.00,542.67 Q503.00,542.67 503.00,517.67 Q503.00,361.33 503.00,205.00 Q503.00,180.00 528.00,180.00 Z" fill="none" stroke="rgb(80, 77, 87)" stroke-width="6.00" stroke-opacity="1.00" stroke-linejoin="round"/>
<path d="M503.67,457.93 L864.49,457.93" fill="none" stroke="rgb(80, 77, 87)" stroke-width="3.20" stroke-opacity="1.00" stroke-linejoin="round"/>
<path d="M508.47,462.82 C508.48,464.26 508.39,465.40 508.37,465.20 C508.35,464.94 508.46,463.90 508.51,463.63 C508.51,463.63 508.47,466.49 508.47,466.49 C508.47,466.49 508.48,463.54 508.48,463.54 C509.86,463.12 509.76,466.19 509.68,466.30 C509.38,466.47 505.74,463.13 509.93,463.15 C509.93,463.15 510.41,464.70 510.41,464.70 C510.05,465.09 508.66,465.01 508.29,464.30 C507.43,462.53 509.46,462.48 509.72,462.57 C509.72,462.57 509.94,463.90 509.94,463.90 C509.94,463.90 507.70,463.10 507.70,463.10 C507.70,463.10 509.33,462.60 509.33,462.60 C509.33,462.60 509.69,463.61 509.69,463.61 C509.69,463.61 509.14,464.41 509.14,464.41" fill="none" stroke="rgb(80, 77, 87)" stroke-width="11.00" stroke-opacity="1.00" stroke-linejoin="round"/>
<path d="M510.48,471.92 C510.48,471.92 510.37,470.40 510.37,470.40 C510.37,470.40 511.12,482.21 511.12,482.21 C511.12,482.21 510.54,470.71 510.54,470.71 C510.54,470.71 508.61,485.88 508.61,485.88 C508.61,485.88 510.29,469.61 510.29,469.61 C510.29,469.61 509.06,484.80 509.06,484.80 C509.06,484.80 509.01,468.55 509.01,468.55 C509.01,468.55 508.25,485.02 508.25,485.02 C508.25,485.02 509.52,472.74 509.52,472.74 C509.52,472.74 509.70,480.77 509.70,480.77 C509.42,480.32 509.07,476.35 509.35,474.27 C509.67,471.88 511.04,470.04 511.10,469.90 C511.17,469.74 511.21,469.39 511.20,468.87 C511.20,468.87 523.30,468.14 523.30,468.14 C523.30,468.14 512.44,465.96 512.44,465.96 C512.44,465.96 527.89,465.11 527.89,465.11 C527.89,465.11 516.58,462.47 516.58,462.47 C516.58,462.47 529.03,462.97 529.03,462.97 C528.30,463.99 517.14,462.70 517.23,462.78 C517.23,462.78 526.37,464.03 526.37,464.03 C526.37,464.03 510.60,465.46 510.60,465.46 C513.16,466.68 521.44,465.54 525.97,465.04 C525.97,465.04 512.68,463.83 512.68,463.83 C512.68,463.83 521.13,463.72 521.13,463.72 C521.13,463.72 511.05,463.21 511.05,463.21 C511.05,463.21 518.36,465.02 518.36,465.02 C518.36,465.02 507.41,463.29 507.41,463.29 C507.95,465.07 513.64,465.47 517.93,465.51 C517.93,465.51 506.64,465.03 506.64,465.03 C506.64,465.03 517.96,464.79 517.96,464.79 C517.96,464.79 511.11,464.12 511.11,464.12 C511.11,464.12 520.70,463.69 520.70,463.69 C520.70,463.69 511.49,463.10 511.49,463.10 C511.49,463.10 519.61,465.60 519.61,465.60 C517.49,465.99 513.04,463.84 511.69,463.10 C511.69,463.10 520.96,463.28 520.96,463.28 C517.04,465.05 513.17,463.91 512.90,463.65 C513.59,463.80 516.51,465.35 517.95,465.50 C519.28,465.63 521.05,465.36 521.43,465.28 C521.14,465.25 516.11,465.30 514.09,464.62 C513.85,464.53 513.65,464.43 513.51,464.31 C513.51,464.31 522.58,466.22 522.58,466.22 C522.27,466.42 521.61,466.73 520.65,467.10 C520.46,467.18 520.19,467.28 519.83,467.41" fill="none" stroke="rgb(80, 77, 87)" stroke-width="11.00" stroke-opacity="1.00" stroke-linejoin="round"/>
<path d="M520.92,477.19 C520.43,475.63 521.30,473.70 522.13,472.88 C523.11,471.98 524.08,471.70 525.34,471.48 C525.34,471.48 526.27,472.22 526.27,472.22 C526.32,474.26 523.31,478.70 520.98,481.10 C520.01,482.10 519.07,482.75 518.34,483.08 C517.59,481.63 517.41,480.30 517.86,478.75 C518.21,477.59 519.88,475.11 520.89,474.25 C522.06,473.27 522.97,473.11 523.94,473.12 C523.94,473.12 524.35,474.14 524.35,474.14 C523.35,478.74 518.82,482.06 517.95,482.50 C516.87,481.71 516.44,480.72 516.59,479.06 C516.73,477.72 517.92,475.06 518.82,473.97 C519.90,472.73 520.76,472.49 521.73,472.43 C522.54,473.68 521.93,477.32 520.24,480.59 C518.88,483.21 516.64,487.54 516.30,488.06 C516.14,488.20 516.09,479.90 516.44,477.85 C516.53,477.32 516.77,476.26 517.15,474.67 C517.15,474.67 513.95,498.13 513.95,498.13 C514.26,484.45 512.79,477.09 512.25,476.04 C512.25,476.04 512.90,500.40 512.90,500.40 C512.91,500.43 511.14,489.66 510.85,483.47 C510.78,481.95 510.73,481.41 510.65,481.23 C510.41,483.22 511.25,499.26 510.96,503.03 C510.69,506.41 510.11,508.54 509.95,508.95 C509.95,508.95 508.99,486.51 508.99,486.51 C508.25,486.80 507.92,487.79 507.96,489.97 C508.01,492.80 509.08,502.38 509.56,510.40 C509.57,509.71 508.88,504.46 508.77,501.63 C508.58,495.89 509.80,490.37 510.77,486.77 C510.77,486.77 509.64,515.45 509.64,515.45 C509.64,515.45 509.67,497.82 509.67,497.82 C508.46,499.19 510.07,519.85 510.18,521.11 C510.18,521.11 509.39,508.43 509.39,508.43 C510.02,517.68 511.17,528.42 512.51,529.56 C512.51,529.56 510.10,521.44 510.10,521.44 C511.08,527.56 513.12,531.60 514.48,533.25 C514.48,533.25 509.74,524.78 509.74,524.78 C509.83,525.09 512.59,528.85 513.34,530.71 C513.59,531.31 513.66,531.98 513.66,532.45 C513.66,532.45 508.30,519.15 508.30,519.15 C508.30,519.15 510.29,524.05 510.29,524.05 C508.93,520.09 507.75,514.81 507.67,512.61 C507.59,510.02 507.66,506.76 507.66,506.79 C507.66,506.79 509.56,524.20 509.56,524.20 C507.24,515.39 506.38,506.14 506.94,502.87 C506.94,502.87 509.96,517.97 509.96,517.97 C510.06,516.78 509.28,503.36 509.81,500.06 C510.10,498.35 511.45,493.36 511.80,492.11 C511.80,492.11 510.82,501.40 510.82,501.40 C510.82,501.40 509.08,472.65 509.08,472.65 C509.18,473.41 510.74,480.00 510.96,483.63 C511.00,484.41 511.10,488.93 511.10,488.91 C511.07,487.55 511.01,484.73 510.98,483.28 C510.98,482.94 510.98,482.58 510.98,482.19" fill="none" stroke="rgb(80, 77, 87)" stroke-width="11.00" stroke-opacity="1.00" stroke-linejoin="round"/>
<path d="M530.24,537.58 C529.68,537.59 525.98,537.59 524.69,536.83 C523.88,536.34 519.95,532.67 519.60,532.63 C520.32,533.70 524.38,534.38 526.69,534.72 C527.79,534.93 528.47,535.21 528.79,535.58 C527.93,536.91 525.27,536.98 524.05,536.64 C523.05,536.33 518.41,532.96 516.46,531.61 C516.46,531.61 525.53,535.77 525.53,535.77 C524.17,537.26 518.20,534.33 517.29,533.03 C517.29,533.03 525.15,535.62 525.15,535.62 C525.09,535.79 521.04,535.94 520.16,535.75 C517.43,535.12 514.35,532.93 514.04,532.49 C515.06,532.00 517.10,532.73 520.43,534.14 C522.63,535.08 523.33,535.39 523.27,535.41 C521.49,536.96 515.60,534.62 515.00,534.27 C515.51,534.24 520.74,535.95 522.77,535.85 C523.57,535.80 524.67,535.56 525.27,535.36 C525.27,535.36 515.86,535.15 515.86,535.15 C516.99,535.13 519.35,535.10 520.59,535.08 C521.00,535.08 521.41,535.08 521.82,535.08" fill="none" stroke="rgb(80, 77, 87)" stroke-width="11.00" stroke-opacity="1.00" stroke-linejoin="round"/>
<path d="M539.71,513.28 C539.71,513.28 533.59,512.90 533.59,512.90 C534.70,512.32 547.08,511.72 550.66,512.41 C552.69,512.81 555.08,513.81 555.82,514.55 C555.82,514.55 556.01,515.81 556.01,515.81 C554.85,517.51 548.46,519.08 536.69,521.07 C535.30,521.30 532.38,521.79 532.00,521.90 C542.72,520.32 554.83,520.65 556.36,521.18 C556.36,521.18 534.87,526.65 534.87,526.65 C535.53,526.99 552.30,527.25 557.01,527.95 C559.50,528.33 560.60,528.80 561.12,529.14 C560.42,530.25 559.83,530.72 558.64,530.93 C553.14,531.97 540.41,533.24 535.66,533.57 C535.66,533.57 552.19,535.73 552.19,535.73 C551.61,536.52 547.49,536.98 544.28,537.20 C541.47,537.35 537.24,536.95 536.15,536.31 C536.15,536.31 554.29,536.67 554.29,536.67 C554.29,536.67 536.02,535.92 536.02,535.92 C540.79,537.14 551.82,537.03 554.89,536.42 C553.22,535.81 536.58,534.16 535.20,534.52 C535.09,534.55 535.00,534.63 534.92,534.75 C534.92,534.75 553.53,535.86 553.53,535.86 C553.53,535.86 529.10,536.35 529.10,536.35 C529.10,536.35 555.64,536.11 555.64,536.11 C555.64,536.11 535.26,537.11 535.26,537.11 C537.45,537.10 554.87,536.12 561.23,535.85 C569.29,535.76 583.24,535.66 583.81,536.01 C583.81,536.01 547.76,535.44 547.76,535.44 C547.76,535.44 584.93,537.07 584.93,537.07 C584.92,537.10 569.99,537.58 562.51,537.78 C554.75,537.88 548.24,537.34 547.04,535.98 C546.95,535.87 546.77,535.64 546.49,535.28" fill="none" stroke="rgb(80, 77, 87)" stroke-width="11.00" stroke-opacity="1.00" stroke-linejoin="round"/>
<path d="M516.26,468.07 L859.23,468.07" fill="none" stroke="rgb(80, 77, 87)" stroke-width="18.20" stroke-opacity="1.00" stroke-linejoin="round"/>
<path d="M855.67,483.10 L515.13,483.10" fill="none" stroke="rgb(80, 77, 87)" stroke-width="18.20" stroke-opacity="1.00" stroke-linejoin="round"/>
<path d="M514.57,502.25 L856.23,502.25" fill="none" stroke="rgb(80, 77, 87)" stroke-width="18.20" stroke-opacity="1.00" stroke-linejoin="round"/>
<path d="M856.61,510.89 L510.44,510.89" fill="none" stroke="rgb(80, 77, 87)" stroke-width="18.20" stroke-opacity="1.00" stroke-linejoin="round"/>
<path d="M510.81,521.04 L857.73,521.04" fill="none" stroke="rgb(80, 77, 87)" stroke-width="18.20" stroke-opacity="1.00" stroke-linejoin="round"/>
<path d="M851.91,534.00 L519.83,534.00" fill="none" stroke="rgb(80, 77, 87)" stroke-width="18.20" stroke-opacity="1.00" stroke-linejoin="round"/>
<path d="M512.69,466.57 L854.91,466.57" fill="none" stroke="rgb(80, 77, 87)" stroke-width="18.20" stroke-opacity="1.00" stroke-linejoin="round"/>
<path d="M859.99,464.44 C859.99,464.44 859.02,464.68 859.02,464.68 C858.92,464.24 859.76,463.14 860.26,463.01 C861.37,462.74 860.73,464.03 860.16,464.35 C859.87,464.51 859.44,464.60 859.09,464.63 C858.14,463.37 860.64,462.15 861.06,462.32 C861.06,462.32 859.36,465.13 859.36,465.13 C858.61,464.08 860.11,462.63 860.62,462.73 C861.44,463.58 860.56,464.76 860.04,464.85 C860.04,464.85 859.80,462.63 859.80,462.63 C860.83,463.02 856.62,472.81 856.62,473.48 C857.75,473.31 858.22,472.91 858.34,471.85 C858.54,469.98 858.51,469.33 858.45,469.09 C854.83,470.86 854.43,488.85 854.43,490.10 C854.43,490.10 857.16,476.43 857.16,476.43 C857.16,476.43 856.12,492.45 856.12,492.45 C856.12,492.45 855.99,475.32 855.99,475.32 C855.98,476.72 856.37,484.58 856.32,487.50 C856.27,489.96 855.53,497.11 855.58,498.92 C856.00,498.48 859.18,478.92 859.37,476.37 C859.52,474.42 859.33,472.52 858.88,471.89 C857.77,472.26 856.41,480.28 856.49,484.68 C856.57,488.05 857.43,492.11 857.82,493.18 C857.82,493.18 858.47,472.29 858.47,472.29 C859.12,478.14 859.25,489.04 858.55,493.72 C857.95,497.58 857.83,498.22 857.81,498.16 C857.81,498.16 859.98,477.19 859.98,477.19 C859.98,477.19 858.53,498.94 858.53,498.94 C858.53,498.94 858.94,473.73 858.94,473.73 C860.92,480.64 859.67,498.40 859.70,500.09 C859.70,500.09 862.88,478.47 862.88,478.47 C861.50,496.75 858.99,503.01 858.92,503.11 C858.38,502.92 858.15,496.36 858.73,494.67 C858.77,494.54 858.87,494.28 859.03,493.89 C858.97,494.34 855.92,511.17 856.16,513.58 C856.22,514.09 856.37,514.49 856.68,515.09 C856.68,515.09 859.00,502.07 859.00,502.07 C859.90,504.29 860.42,510.96 859.79,513.78 C859.15,516.63 858.11,519.20 858.02,519.32 C857.01,517.49 858.09,508.39 859.03,506.99 C859.13,506.85 859.36,506.58 859.73,506.16 C860.88,506.66 861.35,514.37 860.69,517.05 C859.89,520.17 859.00,521.77 858.58,522.27 C856.52,520.41 857.75,518.23 858.16,517.77 C858.76,518.21 859.19,521.09 858.94,522.28 C858.69,523.36 857.25,525.46 855.61,527.31 C855.61,527.31 857.76,524.47 857.76,524.47 C858.53,524.96 858.34,526.08 857.95,526.62 C857.41,527.35 856.35,528.60 855.86,529.12 C855.86,529.12 859.19,525.74 859.19,525.74 C859.83,526.44 859.19,528.39 858.74,529.10 C858.26,529.82 857.18,530.48 856.49,530.00 C855.74,529.44 855.44,528.48 855.31,527.79" fill="none" stroke="rgb(80, 77, 87)" stroke-width="11.00" stroke-opacity="1.00" stroke-linejoin="round"/>
<path d="M846.29,491.58 C842.80,490.25 837.76,489.24 833.74,489.14 C830.02,489.06 828.05,489.89 827.64,490.12 C828.77,490.84 832.18,490.77 835.62,490.61 C845.84,489.91 854.29,489.61 855.46,490.05 C855.52,490.69 855.32,490.96 854.50,491.10 C851.32,491.65 830.29,492.22 829.00,492.83 C829.00,492.83 829.32,493.82 829.32,493.82 C830.85,494.73 838.29,495.57 845.47,495.07 C853.37,494.45 858.81,495.05 859.63,496.28 C859.69,496.39 859.74,496.57 859.79,496.84 C859.58,497.52 858.09,498.32 856.45,498.59 C853.09,499.10 839.97,498.65 833.07,497.56 C824.73,496.23 819.71,496.41 818.05,497.30 C818.14,498.44 818.31,498.86 819.15,499.30 C819.33,499.39 823.58,501.74 824.19,502.12 C824.55,502.35 825.15,502.76 825.98,503.36" fill="none" stroke="rgb(80, 77, 87)" stroke-width="11.00" stroke-opacity="1.00" stroke-linejoin="round"/>
<path d="M808.79,475.54 C807.14,475.55 805.59,475.85 804.80,476.18 C804.43,476.34 803.46,476.78 801.89,477.51" fill="none" stroke="rgb(80, 77, 87)" stroke-width="11.00" stroke-opacity="1.00" stroke-linejoin="round"/>
<path d="M796.78,482.66 C796.78,482.66 796.07,486.95 796.07,486.95 C797.11,487.89 804.70,488.83 806.09,489.00 C808.51,489.28 810.86,489.65 813.17,490.08 C812.56,491.09 798.90,495.30 793.12,497.00 C792.12,497.28 791.88,497.39 791.67,497.59 C791.67,497.59 826.87,494.47 826.87,494.47 C822.91,493.76 806.49,492.58 800.83,492.42 C792.66,492.30 782.65,492.74 778.73,493.26 C778.73,493.26 820.55,492.06 820.55,492.06 C820.55,492.06 750.24,490.14 750.24,490.14 C750.24,490.14 781.24,487.40 781.24,487.40 C778.40,486.89 767.97,486.77 758.24,487.06 C753.96,487.25 727.16,489.73 725.54,489.82 C728.91,488.27 754.53,485.74 760.29,485.27 C751.56,485.65 711.02,489.16 704.18,489.23 C703.70,489.23 703.23,489.23 702.75,489.23 C708.27,490.50 726.64,490.79 728.44,490.80 C729.16,490.81 729.88,490.81 730.60,490.82" fill="none" stroke="rgb(80, 77, 87)" stroke-width="11.00" stroke-opacity="1.00" stroke-linejoin="round"/>
<path d="M730.44,483.13 C729.08,483.59 727.59,485.39 727.83,486.92 C728.15,488.46 731.33,492.30 734.13,494.14 C738.33,496.85 748.71,500.53 753.64,501.84 C760.97,503.74 775.46,505.53 777.30,504.56 C777.57,504.41 778.03,504.01 778.68,503.34 C778.44,502.32 775.70,500.44 772.84,499.40 C768.03,497.68 757.22,496.13 752.44,495.86 C747.18,495.65 727.15,495.50 727.10,495.33 C731.46,494.70 747.31,494.05 752.36,494.10 C757.70,494.15 784.05,496.19 785.03,496.05 C785.03,496.05 731.39,494.36 731.39,494.36 C732.06,493.30 736.94,492.10 740.84,491.52 C744.35,491.01 757.68,490.39 766.06,490.35 C786.14,490.64 793.92,491.70 794.88,491.91 C793.17,493.33 791.89,494.01 789.94,494.32 C781.91,495.55 768.17,497.10 767.42,497.30 C770.38,497.39 785.74,497.07 793.44,496.93 C800.50,496.88 815.60,496.88 820.38,497.98 C822.68,498.52 825.69,500.02 826.41,500.97 C827.20,502.09 827.32,505.56 826.70,507.47 C826.14,509.11 823.53,513.83 822.12,515.80 C820.78,517.65 818.16,520.17 816.84,520.78 C815.52,521.36 812.45,521.34 811.57,520.72 C810.56,519.95 810.64,517.21 812.05,515.84 C814.96,513.13 827.36,509.21 831.78,508.56 C834.12,508.22 836.93,508.26 838.09,508.72 C837.67,510.29 837.02,511.32 835.57,512.29 C831.65,514.91 822.91,518.56 818.36,519.76 C813.58,521.00 804.92,521.80 800.82,521.21 C798.19,520.79 794.04,519.19 792.10,518.17 C791.78,518.00 791.01,517.57 789.78,516.87 C789.51,516.72 789.25,516.57 789.00,516.44" fill="none" stroke="rgb(80, 77, 87)" stroke-width="11.00" stroke-opacity="1.00" stroke-linejoin="round"/>
<path d="M701.89,496.32 C701.89,496.32 657.17,495.41 657.17,495.41 C661.27,494.79 676.97,494.58 683.85,494.87 C691.95,495.32 715.30,497.83 718.18,498.17 C706.21,497.16 678.03,496.87 660.53,497.07 C645.14,497.40 619.85,497.77 618.02,497.02 C618.02,497.02 617.73,495.88 617.73,495.88 C619.86,494.13 630.59,491.85 637.13,491.02 C646.89,489.83 677.64,489.49 693.82,489.74 C704.56,490.19 708.86,490.50 709.47,490.67 C709.47,490.67 636.51,491.48 636.51,491.48 C638.96,490.26 649.04,488.98 655.07,488.66 C667.58,488.13 690.08,489.27 705.11,490.94 C712.63,491.99 724.04,493.78 728.67,494.51 C728.67,494.51 618.70,489.37 618.70,489.37 C621.91,488.57 659.93,488.58 671.46,488.90 C692.47,489.92 699.16,490.85 699.86,491.01 C697.12,492.35 657.90,490.96 642.62,490.39 C616.26,489.85 615.32,489.66 614.27,489.22" fill="none" stroke="rgb(80, 77, 87)" stroke-width="11.00" stroke-opacity="1.00" stroke-linejoin="round"/>
<path d="M596.17,486.56 C601.34,486.57 604.13,488.12 605.03,488.72 C604.24,489.81 591.51,490.15 568.54,489.56 C560.20,489.47 545.93,489.35 540.01,489.31 C541.04,488.72 557.80,487.58 564.21,487.29 C570.74,487.21 584.10,487.15 590.72,487.30 C611.51,488.24 614.97,490.39 615.52,490.96 C611.81,491.99 555.21,491.10 552.47,491.08 C577.20,491.08 614.83,493.58 619.76,494.45 C624.54,495.32 625.33,495.87 625.81,496.51 C622.12,497.48 611.17,497.35 601.34,496.80 C572.09,495.35 528.23,493.18 526.83,491.98 C528.12,490.76 532.61,489.53 535.28,489.07 C546.50,487.20 563.03,487.14 564.91,487.13 C564.34,487.43 552.56,488.63 542.38,489.33 C523.40,490.14 519.73,488.75 518.75,488.19 C520.39,486.94 521.92,486.34 524.30,486.23 C528.37,486.06 531.96,486.52 533.39,487.02 C534.68,487.49 536.71,489.24 536.71,490.89 C536.67,491.81 535.32,493.44 534.01,494.16 C531.04,495.71 523.60,496.60 521.87,496.05 C520.27,495.48 518.91,493.71 519.04,492.43 C519.23,491.10 521.13,488.60 522.81,487.37 C523.98,486.53 526.90,485.05 528.86,484.92 C529.77,486.37 529.69,491.45 529.38,493.96 C528.56,500.36 527.58,503.86 527.08,505.36 C525.71,504.98 524.81,503.93 524.38,501.72 C523.34,496.18 525.03,491.45 526.09,490.23 C526.09,491.82 524.08,496.55 522.50,499.00 C519.24,503.96 514.84,506.14 513.65,506.30 C513.65,506.30 512.34,505.38 512.34,505.38 C511.99,504.03 512.36,501.42 513.31,500.02 C514.28,498.65 516.61,497.10 517.90,496.89 C517.90,496.89 519.17,498.07 519.17,498.07 C519.47,499.73 519.37,503.26 518.94,505.02 C518.20,508.04 516.16,513.74 515.77,516.21" fill="none" stroke="rgb(80, 77, 87)" stroke-width="11.00" stroke-opacity="1.00" stroke-linejoin="round"/>
</g>
</svg>
