<?xml version="1.0" encoding="UTF-8" standalone="no"?>
<!DOCTYPE svg PUBLIC "-//W3C//DTD SVG 1.1//EN" "http://www.w3.org/Graphics/SVG/1.1/DTD/svg11.dtd">
<svg width="1920.00" height="1080.00" viewBox="0.00 0.00 1920.00 1080.00" xmlns="http://www.w3.org/2000/svg" xmlns:xlink="http://www.w3.org/1999/xlink">
<g stroke-linecap="round" id="Capa_28">
<path d="M1167.52,699.31 C1164.78,695.18 1162.05,691.78 1159.38,690.89 C1157.66,690.36 1150.16,690.01 1146.88,690.14 C1142.82,690.33 1138.28,691.69 1134.41,694.15 C1131.49,696.03 1123.01,700.21 1121.87,701.67 C1121.04,702.78 1120.75,704.91 1120.95,706.96 C1121.90,714.55 1125.73,721.84 1126.42,721.68 C1128.30,721.03 1130.24,707.32 1130.74,707.36 C1131.56,707.43 1134.45,709.29 1135.14,708.85 C1135.67,708.52 1135.95,704.02 1136.19,702.78 C1136.48,701.24 1138.03,700.73 1139.28,701.76 C1140.64,703.11 1143.20,705.47 1143.87,705.19 C1144.67,704.81 1144.51,697.43 1144.87,697.47 C1145.17,697.50 1148.31,701.87 1148.92,701.95 C1149.67,702.06 1153.10,697.69 1153.47,697.55 C1154.08,697.32 1156.77,701.41 1157.61,702.58 C1158.54,703.93 1164.26,709.48 1166.54,710.98 C1169.15,712.67 1176.31,715.15 1177.52,716.29 C1178.25,717.04 1177.24,717.85 1175.11,718.47 C1171.44,719.51 1162.12,722.03 1159.88,723.27 C1157.71,724.53 1156.64,725.93 1156.33,727.88 C1156.16,729.13 1155.31,732.22 1154.54,734.39 C1153.33,737.84 1153.05,739.20 1153.72,738.88 C1154.56,738.39 1161.24,729.15 1161.14,729.41 C1161.02,729.65 1154.80,739.08 1152.33,742.11 C1150.82,743.89 1147.79,746.13 1146.50,746.19 C1145.18,746.21 1138.95,739.66 1137.33,736.82 C1136.37,735.07 1135.62,732.07 1135.68,730.29 C1135.85,727.42 1138.64,720.16 1140.40,718.05 C1142.59,715.51 1149.32,711.83 1153.38,710.32 C1155.29,709.66 1158.57,709.84 1159.40,710.84 C1160.15,711.85 1158.84,714.40 1157.23,715.55 C1155.60,716.67 1152.28,718.78 1150.59,719.86 C1148.81,721.01 1146.59,723.43 1146.00,724.96 C1144.80,728.39 1148.61,746.03 1150.42,754.46 C1152.39,764.51 1153.50,774.04 1154.57,775.82 C1156.30,778.57 1163.33,782.78 1166.63,783.89 C1170.64,785.17 1175.78,785.47 1178.54,784.11 C1180.28,783.22 1186.61,778.09 1189.29,775.55 C1192.85,772.13 1195.51,767.91 1196.01,764.93 C1196.41,762.23 1195.72,754.27 1195.67,753.45 C1195.52,751.62 1194.97,750.46 1193.93,750.09 C1193.35,749.92 1186.08,749.25 1180.89,748.98 C1176.78,748.77 1169.43,749.20 1168.51,748.66 C1167.49,748.08 1163.91,745.38 1162.61,745.47 C1161.66,745.56 1157.88,748.82 1156.78,750.15 C1155.49,751.80 1154.85,754.53 1155.46,755.78 C1155.91,756.66 1158.10,759.31 1158.66,760.75 C1159.23,762.18 1159.43,765.70 1159.71,766.70 C1160.13,768.17 1162.17,770.89 1163.69,772.11 C1165.20,773.29 1168.43,775.33 1169.93,776.10 C1171.19,776.71 1172.29,776.56 1171.96,775.72 C1171.54,774.73 1166.88,766.44 1165.32,762.36 C1164.64,760.54 1163.93,757.99 1164.07,757.57 C1164.32,757.05 1166.11,758.24 1167.51,759.90 C1169.90,762.81 1172.87,769.47 1174.27,772.68 C1174.99,774.16 1177.36,775.39 1178.37,774.60 C1179.43,773.66 1179.14,770.62 1177.96,768.66 C1175.69,765.01 1170.08,756.85 1170.21,756.32 C1170.51,755.47 1173.29,756.52 1175.95,758.41 C1177.44,759.51 1181.70,767.91 1182.62,769.27 C1183.33,770.28 1183.80,769.45 1183.58,767.84 C1183.43,766.77 1182.42,761.33 1182.13,759.56 C1181.78,757.38 1182.31,756.19 1183.34,757.06 C1184.17,757.82 1186.68,761.41 1186.79,761.69 C1187.48,763.62 1188.52,783.27 1189.32,786.31 C1189.79,787.90 1191.47,789.78 1192.58,789.62 C1193.53,789.45 1197.63,785.86 1198.73,784.97 C1200.16,783.81 1203.44,782.43 1204.79,782.49 C1205.50,782.54 1213.03,785.34 1213.96,786.12 C1214.55,786.62 1217.35,789.95 1217.81,790.75 C1218.64,792.22 1219.36,796.05 1219.56,797.16 C1219.99,799.85 1219.87,800.45 1218.35,803.33 C1217.61,804.73 1218.16,804.58 1219.99,802.83 C1221.93,800.96 1223.15,799.85 1223.63,799.49 C1224.13,799.12 1208.89,818.99 1207.66,819.83 C1206.68,820.48 1201.18,823.79 1200.86,823.99 C1198.34,825.53 1196.48,826.28 1195.45,825.93 C1195.26,825.86 1188.96,821.45 1186.67,820.79 C1184.29,818.95 1177.86,813.80 1177.33,812.69 C1176.89,811.70 1176.81,810.74 1177.07,809.82 C1177.40,808.73 1179.16,805.95 1179.56,803.90 C1179.90,802.16 1180.63,798.62 1181.07,797.55 C1181.91,795.61 1183.54,794.28 1184.41,794.91 C1184.91,795.31 1186.05,798.38 1186.48,800.02 C1186.93,801.87 1186.18,804.43 1185.98,805.33 C1185.71,806.66 1186.80,808.43 1188.67,809.76 C1194.49,813.61 1197.19,815.90 1197.58,815.90 C1198.65,815.85 1201.48,812.03 1201.55,810.68 C1201.58,809.37 1194.50,802.55 1193.69,800.92 C1193.25,799.95 1194.47,797.85 1195.71,797.25 C1197.17,796.63 1199.17,797.29 1199.92,798.62 C1199.95,798.68 1201.85,802.73 1202.58,803.86 C1203.81,805.70 1206.04,807.72 1206.96,807.50 C1207.90,807.22 1209.42,803.98 1209.28,802.52 C1209.13,801.28 1205.99,795.75 1205.24,792.84" fill="none" stroke="rgb(55, 56, 149)" stroke-width="14.00" stroke-opacity="1.00" stroke-linejoin="miter"/>
<path d="M1207.25,792.65 C1207.25,792.65 1197.74,795.64 1197.74,795.64" fill="none" stroke="rgb(55, 56, 149)" stroke-width="14.00" stroke-opacity="1.00" stroke-linejoin="miter"/>
<path d="M1114.35,712.73 C1113.13,713.37 1106.05,717.16 1102.95,720.41 C1100.98,722.52 1096.55,729.22 1094.81,732.65 C1093.04,736.25 1092.17,740.43 1092.42,741.53 C1092.60,742.33 1093.40,742.90 1093.62,743.69 C1093.90,744.76 1093.19,747.95 1092.43,749.58 C1090.68,753.16 1085.77,760.15 1083.84,761.56 C1081.80,763.02 1078.08,763.43 1076.98,763.56 C1075.47,763.75 1072.89,765.61 1071.89,767.26 C1071.03,768.73 1069.60,773.01 1069.31,774.79 C1069.06,776.50 1069.23,780.06 1069.66,781.36 C1070.76,784.36 1076.21,787.63 1077.13,788.52 C1078.19,789.56 1078.29,792.13 1077.46,793.47 C1076.10,795.50 1069.18,801.94 1067.01,803.56 C1063.67,806.07 1060.21,809.62 1058.41,812.25 C1057.36,813.82 1056.07,816.63 1055.73,818.17 C1055.18,820.99 1056.61,828.39 1057.54,830.34 C1058.63,832.53 1060.72,835.17 1062.39,836.40 C1063.36,837.12 1066.92,839.79 1067.35,840.86 C1067.78,842.02 1066.98,845.02 1065.65,848.46 C1065.08,849.89 1061.67,858.74 1061.99,861.10 C1062.31,863.12 1063.98,865.90 1065.86,867.63 C1067.31,868.92 1070.13,870.70 1071.58,871.25 C1073.01,871.75 1076.13,872.11 1077.84,871.97 C1079.70,871.81 1084.36,870.62 1085.74,870.47 C1087.44,870.31 1089.38,871.66 1089.56,873.12 C1089.68,874.31 1089.37,878.52 1089.68,880.16 C1089.99,881.72 1091.38,884.47 1092.46,885.73 C1094.51,888.02 1099.35,889.65 1104.26,890.09 C1107.83,890.39 1115.97,890.57 1119.52,890.09 C1121.75,889.78 1130.89,887.40 1133.14,888.18 C1135.29,889.01 1139.40,895.63 1141.25,897.15 C1143.65,899.07 1150.43,901.10 1154.32,901.43 C1157.98,901.71 1165.94,900.86 1168.57,900.00 C1170.70,899.29 1174.23,897.23 1175.34,896.84 C1176.78,896.37 1180.36,896.51 1182.00,897.03 C1183.29,897.47 1192.50,901.48 1196.17,902.26 C1200.02,903.02 1206.41,902.25 1210.12,900.75 C1213.18,899.48 1221.39,894.79 1222.81,893.76 C1224.60,892.46 1226.21,890.53 1226.74,890.13 C1228.34,888.96 1238.63,887.08 1240.10,886.71 C1243.96,885.73 1251.81,881.92 1254.60,879.94 C1256.03,878.89 1258.83,876.21 1259.69,874.96 C1260.89,873.13 1262.13,869.69 1262.47,867.28 C1262.97,863.34 1262.65,857.63 1261.53,854.75 C1254.75,837.00 1252.42,824.75 1251.71,823.47 C1250.32,821.06 1247.53,818.67 1245.92,818.68 C1244.74,818.73 1240.40,824.76 1238.39,827.19 C1236.35,829.63 1229.99,834.72 1227.54,836.18 C1225.77,837.18 1222.71,838.05 1221.38,837.69 C1220.06,837.30 1218.91,836.63 1217.95,835.68 C1216.84,834.58 1216.13,833.11 1215.00,832.04 C1214.20,831.29 1213.41,831.05 1212.64,831.30 C1211.34,831.83 1209.48,842.47 1209.63,845.31 C1209.77,847.35 1210.42,849.07 1211.59,850.68 C1212.88,852.39 1217.51,859.46 1218.60,860.49 C1219.72,861.49 1222.34,862.54 1223.94,862.63 C1226.76,862.72 1234.30,860.34 1237.31,858.45 C1239.05,857.33 1245.98,851.90 1249.08,849.33 C1251.14,847.59 1252.60,845.77 1252.88,844.32 C1253.11,842.92 1252.30,839.96 1251.23,837.81 C1250.31,836.05 1247.92,833.41 1246.53,832.72 C1245.48,832.24 1244.62,832.29 1243.95,832.87 C1242.87,833.88 1241.57,838.94 1242.17,839.92 C1242.58,840.57 1245.82,840.65 1245.80,840.74 C1245.69,841.03 1237.61,845.82 1234.63,847.68 C1232.82,848.81 1230.45,850.74 1228.40,852.71 C1226.81,854.20 1225.19,854.70 1223.66,854.20 C1222.08,853.58 1220.38,850.89 1220.36,848.94 C1220.38,847.67 1220.70,846.79 1221.30,846.29 C1221.93,845.81 1225.69,847.20 1226.81,847.41 C1228.30,847.67 1230.62,846.31 1231.24,844.81 C1231.70,843.69 1231.70,842.28 1232.55,841.42 C1233.52,840.48 1236.47,840.87 1238.18,841.85 C1245.27,846.18 1255.83,855.80 1256.57,857.00 C1257.74,858.98 1257.64,860.83 1256.34,862.58 C1255.62,863.53 1254.02,866.25 1253.43,867.58 C1253.01,868.46 1251.41,871.49 1250.45,871.35 C1249.24,871.19 1243.88,868.19 1243.79,868.38 C1243.28,869.50 1244.63,870.71 1244.97,871.89 C1245.41,873.45 1245.41,874.45 1244.98,874.88 C1244.58,875.27 1232.92,868.37 1232.57,868.92 C1232.19,869.55 1233.78,875.63 1233.70,875.76 C1233.09,876.83 1225.31,870.15 1225.59,869.84 C1225.82,869.67 1229.90,871.07 1231.76,871.93 C1234.50,873.24 1237.03,875.35 1236.98,876.52 C1236.83,877.67 1233.79,879.86 1230.95,881.00 C1228.40,881.96 1223.94,882.81 1223.03,882.31 C1222.16,881.78 1221.78,880.95 1221.90,879.81 C1222.09,878.23 1222.97,876.81 1223.28,875.25 C1223.50,874.16 1223.30,873.44 1222.68,873.10 C1222.02,872.79 1218.48,874.34 1216.44,875.67 C1214.32,877.13 1211.05,880.25 1210.60,881.56 C1210.17,882.90 1210.18,884.13 1210.62,885.24 C1211.13,886.48 1213.72,889.83 1213.01,890.24 C1212.17,890.67 1202.19,887.82 1201.87,888.28 C1201.57,888.74 1204.27,893.82 1204.29,893.91 C1204.38,894.38 1196.94,891.71 1191.82,891.35 C1187.24,891.06 1169.52,892.19 1168.40,892.24 C1166.29,892.29 1164.06,891.05 1162.12,888.82 C1161.65,888.28 1161.47,886.91 1160.79,887.14 C1160.55,887.23 1160.38,892.88 1160.30,893.45 C1160.15,894.49 1159.86,894.94 1159.44,894.80 C1159.43,894.79 1154.49,885.76 1153.82,885.91 C1152.49,886.31 1152.69,895.63 1153.01,895.64 C1153.49,895.52 1155.69,883.43 1154.79,882.49 C1154.25,882.01 1153.52,882.08 1152.59,882.68 C1151.23,883.58 1147.16,887.11 1145.94,886.85 C1144.72,886.57 1143.81,884.21 1143.05,880.42 C1142.74,878.94 1142.49,878.17 1142.27,878.13 C1141.56,878.02 1139.71,882.20 1138.36,883.00 C1137.36,883.59 1126.60,880.43 1125.48,880.73 C1123.60,881.21 1120.33,884.53 1120.07,883.91 C1119.65,882.86 1120.22,878.23 1119.66,878.09 C1119.66,878.09 1113.41,885.74 1112.97,885.52 C1112.54,885.27 1113.92,879.98 1114.12,878.31 C1114.26,877.16 1114.06,876.48 1113.52,876.29 C1112.57,876.04 1104.45,884.56 1104.34,884.54 C1104.30,884.42 1112.14,874.55 1112.41,873.40 C1112.61,872.42 1112.39,871.64 1111.74,871.07 C1110.97,870.44 1109.76,870.37 1109.13,869.59 C1108.29,868.62 1108.23,867.17 1107.64,866.03 C1106.94,864.77 1106.15,864.12 1105.26,864.06 C1104.69,864.04 1097.06,869.98 1096.93,869.59 C1096.86,869.03 1103.82,859.75 1104.61,859.64 C1105.32,859.67 1102.28,867.45 1100.92,870.83 C1099.62,874.21 1099.02,878.00 1098.75,879.61" fill="none" stroke="rgb(55, 56, 149)" stroke-width="14.00" stroke-opacity="1.00" stroke-linejoin="miter"/>
<path d="M1098.75,879.61 C1100.57,880.09 1101.54,880.32 1101.68,880.30 C1101.78,880.28 1081.39,868.57 1075.79,864.05 C1074.25,862.75 1071.34,859.20 1070.60,857.37 C1069.86,855.50 1070.46,851.32 1071.30,850.12 C1072.04,849.23 1074.13,849.67 1075.42,851.01 C1076.42,852.08 1081.94,859.67 1082.20,859.46 C1082.44,859.11 1081.77,857.02 1080.13,852.81 C1078.79,849.30 1078.08,846.40 1078.63,846.08 C1079.58,845.75 1089.61,855.78 1090.43,855.52 C1091.21,855.10 1085.92,842.95 1086.17,842.03 C1086.39,841.50 1087.82,842.56 1090.02,844.71 C1091.56,846.19 1095.05,849.22 1096.04,849.15 C1097.34,849.07 1098.69,848.48 1100.08,847.36 C1100.84,846.73 1101.36,844.57 1102.13,845.20 C1102.46,845.46 1100.96,850.69 1100.59,850.85 C1100.29,850.96 1100.78,844.98 1100.45,844.19 C1099.81,842.64 1096.44,840.88 1094.73,840.72 C1090.53,840.49 1081.11,841.48 1079.36,841.41 C1077.76,841.31 1074.49,840.57 1073.43,839.96 C1071.78,838.94 1069.89,836.32 1069.55,834.38 C1069.44,833.76 1068.72,821.95 1067.67,819.05 C1067.35,818.18 1066.69,817.43 1066.50,816.51 C1066.33,815.52 1071.91,819.89 1074.87,822.72 C1078.38,826.13 1082.27,831.67 1083.42,835.79 C1083.65,836.65 1083.79,836.16 1083.73,834.96 C1083.41,830.64 1081.49,824.18 1079.04,820.18 C1077.57,817.82 1071.40,809.60 1071.69,809.14 C1072.15,808.62 1079.92,813.38 1080.72,812.88 C1081.49,812.35 1080.95,809.77 1079.47,805.26 C1078.89,803.53 1078.67,802.55 1078.81,802.32 C1079.06,801.92 1083.05,805.23 1083.32,805.26 C1083.90,805.33 1085.46,799.78 1085.61,799.39 C1086.01,798.30 1088.44,795.25 1088.60,794.79 C1088.98,793.61 1088.24,790.61 1087.30,789.16 C1086.66,788.21 1083.09,783.72 1082.44,782.80 C1081.32,781.19 1079.43,777.08 1078.93,775.03 C1078.32,772.40 1078.74,769.88 1079.67,769.98 C1080.58,770.17 1085.22,776.00 1087.90,780.05 C1090.57,784.15 1093.84,791.95 1094.75,792.38 C1095.70,792.77 1098.76,791.70 1099.39,790.61 C1100.04,789.40 1099.64,786.59 1098.80,784.84 C1096.77,780.90 1091.50,772.91 1090.50,771.35 C1087.74,766.89 1087.29,765.28 1087.99,765.09 C1088.83,764.93 1090.69,766.23 1092.09,767.87 C1095.12,771.36 1102.55,780.57 1103.30,781.50 C1106.21,780.29 1113.44,777.36 1116.92,776.55 C1119.77,775.90 1127.91,775.39 1130.60,774.29 C1135.70,772.14 1145.22,761.88 1145.81,760.20 C1146.24,758.86 1145.65,756.04 1144.59,754.25 C1143.26,752.09 1141.25,750.26 1140.68,750.76 C1140.06,751.41 1140.80,761.91 1139.92,763.19 C1139.31,764.00 1138.56,764.40 1137.66,764.40 C1136.43,764.38 1132.38,763.23 1130.15,763.62 C1128.05,763.99 1119.87,769.04 1117.66,769.32 C1115.56,769.53 1112.12,768.67 1110.01,767.46 C1108.26,766.37 1107.52,764.17 1108.12,762.05 C1108.49,760.80 1109.17,759.63 1109.36,758.34 C1109.63,756.58 1108.26,752.62 1107.36,752.42 C1106.56,752.31 1104.29,755.40 1103.85,757.01 C1103.51,758.32 1103.79,761.24 1103.88,760.96 C1103.97,760.65 1104.58,748.14 1105.12,745.74 C1105.64,743.56 1106.66,741.61 1107.85,740.38 C1109.99,738.26 1114.25,734.45 1116.02,733.84 C1118.05,733.19 1122.55,732.83 1123.64,733.39 C1124.65,733.97 1124.75,736.71 1123.94,737.75 C1123.29,738.55 1120.01,740.42 1118.48,741.28 C1116.38,742.51 1114.47,744.98 1113.83,747.28 C1113.41,748.91 1114.78,757.76 1115.43,759.59 C1116.45,762.41 1117.92,764.32 1118.36,763.34 C1118.56,762.82 1117.68,752.51 1118.56,750.99 C1119.40,749.64 1121.76,749.07 1123.77,749.69 C1124.88,750.07 1125.58,750.64 1125.85,751.37 C1126.36,752.79 1125.81,757.94 1126.16,758.79 C1126.31,759.12 1130.04,747.75 1129.69,746.69 C1129.26,745.60 1105.70,734.13 1105.39,733.05 C1105.22,732.32 1105.66,731.60 1106.72,730.89 C1107.90,730.12 1111.27,728.71 1112.49,727.28 C1113.18,726.51 1113.64,726.89 1114.70,728.80 C1122.39,742.88 1142.74,780.24 1145.45,783.73 C1147.01,785.68 1149.43,787.59 1151.07,788.11 C1151.89,788.36 1158.71,790.62 1161.16,792.28 C1163.16,793.63 1168.14,793.03 1168.21,793.13 C1168.30,793.30 1164.49,800.66 1163.61,804.59 C1162.74,808.60 1161.86,815.73 1162.11,817.54 C1162.43,819.56 1163.12,820.73 1164.78,822.19 C1166.51,823.67 1171.68,830.59 1172.45,831.49 C1174.40,833.74 1180.03,837.69 1182.62,838.64 C1184.02,839.12 1187.06,839.33 1188.44,838.99 C1189.44,838.76 1192.65,837.84 1193.59,838.53 C1194.88,839.56 1196.50,848.70 1197.43,853.02 C1198.45,857.73 1201.13,864.84 1202.98,866.75 C1205.40,869.29 1205.80,870.03 1205.59,872.08 C1205.19,875.19 1204.47,877.06 1203.10,878.26 C1201.48,879.60 1192.82,880.80 1189.64,881.27 C1186.54,881.73 1180.24,882.72 1177.46,882.18 C1175.98,881.86 1172.39,880.57 1170.90,879.80 C1169.10,878.83 1166.55,876.67 1165.58,875.24 C1164.60,873.73 1163.83,871.26 1163.35,868.51 C1162.93,866.25 1162.09,864.09 1161.15,863.69 C1159.76,863.17 1157.11,864.08 1153.91,866.02 C1147.61,869.88 1145.03,870.97 1141.26,871.06 C1137.88,871.09 1130.92,870.53 1127.90,869.62 C1124.72,868.62 1119.20,864.72 1117.50,862.21 C1116.54,860.71 1115.84,857.60 1116.01,855.57 C1116.30,852.69 1118.83,844.01 1119.80,842.81 C1121.70,840.55 1135.23,833.78 1136.72,832.27 C1138.18,830.72 1138.87,828.61 1138.54,826.78 C1138.21,825.37 1136.64,824.11 1134.96,824.03 C1133.24,823.98 1124.83,826.01 1122.32,827.40 C1120.70,828.31 1117.13,830.86 1115.76,832.04 C1113.72,833.76 1111.87,834.78 1110.42,834.81 C1110.03,834.81 1099.96,831.59 1097.89,829.57 C1096.79,828.44 1096.05,825.72 1096.04,823.43 C1096.06,822.20 1096.49,813.13 1097.28,811.20 C1098.19,809.11 1113.02,793.47 1114.96,792.75 C1115.94,792.45 1116.83,794.01 1117.06,796.29 C1117.43,800.54 1117.72,808.60 1118.61,810.77 C1119.32,812.44 1122.47,817.85 1123.09,818.92" fill="none" stroke="rgb(55, 56, 149)" stroke-width="14.00" stroke-opacity="1.00" stroke-linejoin="miter"/>
<path d="M1110.70,804.71 C1107.53,808.80 1104.99,812.84 1104.24,816.79 C1103.87,818.99 1104.11,822.43 1104.83,823.78 C1105.58,825.10 1108.66,827.20 1109.93,827.29 C1111.05,827.31 1112.22,825.45 1112.21,823.91 C1112.17,822.71 1111.56,818.42 1111.30,816.60 C1111.08,814.80 1112.01,813.29 1113.29,814.12 C1115.01,815.28 1131.32,837.20 1133.28,839.56 C1135.06,841.70 1138.62,844.39 1141.43,847.34 C1145.50,851.67 1149.40,856.37 1149.93,858.12 C1150.38,859.85 1149.48,861.73 1147.71,862.46 C1144.86,863.54 1136.01,863.62 1132.50,862.92 C1130.52,862.49 1126.80,860.71 1125.29,859.39 C1123.79,858.03 1121.95,854.52 1121.93,853.00 C1121.98,851.45 1123.81,848.34 1125.21,847.19 C1126.42,846.27 1128.51,846.65 1129.40,847.94 C1130.09,848.97 1131.85,852.75 1132.77,853.65 C1133.64,854.49 1139.64,855.26 1150.69,859.32 C1155.07,861.02 1163.27,864.25 1167.09,865.77 C1172.20,867.88 1175.06,869.85 1176.15,870.28 C1180.12,871.79 1193.94,873.17 1195.63,872.69 C1196.85,872.30 1197.73,870.33 1197.43,868.64 C1196.97,866.45 1195.12,863.67 1193.45,862.74 C1191.65,861.80 1182.94,862.82 1180.06,862.35 C1178.14,862.02 1174.42,860.72 1172.54,859.76 C1170.68,858.78 1169.49,857.54 1170.02,857.17 C1170.93,856.67 1179.88,857.40 1183.99,857.66 C1186.22,857.78 1189.69,857.35 1190.69,856.67 C1191.44,856.11 1191.55,852.07 1191.09,850.79 C1190.34,848.93 1188.15,847.65 1186.42,848.04 C1185.26,848.32 1176.44,850.40 1171.90,850.51 C1168.49,850.53 1159.95,850.51 1158.68,850.20 C1157.28,849.83 1154.82,848.08 1153.55,846.56 C1150.96,843.35 1148.58,837.88 1148.32,834.70 C1148.25,833.42 1148.23,829.53 1148.41,828.32 C1148.76,826.24 1150.07,823.45 1151.32,822.04 C1152.52,820.75 1154.77,818.83 1155.21,819.02 C1155.94,819.40 1156.21,822.36 1155.82,824.69 C1155.64,825.75 1154.80,829.59 1154.72,830.96 C1154.64,833.03 1155.69,836.19 1157.09,837.84 C1157.95,838.81 1162.37,841.61 1163.33,841.90 C1164.48,842.20 1164.87,840.68 1164.19,839.11 C1163.59,837.76 1161.27,833.63 1160.29,831.91 C1159.67,830.80 1159.65,830.41 1160.23,831.21 C1160.89,832.11 1167.46,840.79 1170.52,842.73 C1171.85,843.53 1172.84,843.91 1173.49,843.86 C1174.55,843.71 1174.60,841.96 1173.84,840.06 C1169.51,829.88 1162.87,816.31 1158.87,810.42 C1157.79,808.87 1155.56,807.12 1154.40,807.22 C1153.49,807.34 1150.72,811.08 1149.90,811.97 C1148.88,813.07 1145.88,814.55 1144.36,814.74 C1142.90,814.89 1139.64,814.36 1137.72,813.77 C1134.08,812.54 1129.66,808.49 1127.50,805.16 C1126.66,803.78 1126.59,802.16 1127.17,799.89 C1128.07,796.73 1130.51,788.62 1131.38,787.17 C1132.78,784.97 1135.22,783.23 1136.24,784.08 C1137.16,784.93 1138.46,789.55 1138.35,791.45 C1138.28,792.41 1136.74,797.42 1136.57,798.50 C1136.41,799.52 1136.82,802.63 1137.20,803.85 C1137.71,805.32 1140.47,808.00 1142.36,808.80 C1143.64,809.30 1144.51,809.29 1144.99,808.78 C1145.36,808.31 1143.50,804.57 1142.52,802.67 C1141.50,800.61 1140.95,796.43 1141.61,794.92 C1142.09,793.96 1142.85,793.55 1143.88,793.68 C1144.72,793.83 1147.87,797.63 1148.78,798.72 C1150.20,800.44 1152.29,801.49 1153.41,801.07 C1153.70,800.94 1154.11,800.55 1154.63,799.89" fill="none" stroke="rgb(55, 56, 149)" stroke-width="14.00" stroke-opacity="1.00" stroke-linejoin="miter"/>
<path d="M1155.10,799.25 C1155.10,799.25 1158.28,810.76 1158.28,810.76 C1158.28,810.76 1144.00,805.19 1144.00,805.19" fill="none" stroke="rgb(55, 56, 149)" stroke-width="14.00" stroke-opacity="1.00" stroke-linejoin="miter"/>
<path d="M1166.96,737.75 C1168.82,738.66 1171.99,739.84 1173.95,740.19 C1176.10,740.56 1184.57,739.21 1188.55,738.31 C1194.53,736.92 1199.88,735.33 1200.52,734.42 C1201.12,733.44 1200.31,732.56 1197.45,730.81 C1195.76,729.78 1194.94,728.59 1193.32,725.26 C1192.33,723.28 1190.78,722.24 1188.92,722.38 C1185.24,722.77 1175.89,727.14 1173.27,729.61 C1172.56,730.32 1172.36,730.90 1172.68,731.34 C1173.38,732.08 1179.13,731.44 1186.72,730.44" fill="none" stroke="rgb(82, 150, 67)" stroke-width="14.00" stroke-opacity="1.00" stroke-linejoin="miter"/>
<path d="M1196.89,721.72 C1202.17,723.54 1206.72,725.30 1209.14,726.94 C1211.33,728.49 1214.32,732.39 1215.80,735.55 C1216.49,737.06 1217.53,739.91 1217.63,740.70 C1217.71,741.62 1216.50,740.73 1215.25,739.05 C1213.00,736.07 1211.39,734.37 1210.34,734.20 C1209.29,734.08 1207.93,735.92 1207.16,738.13 C1206.59,739.95 1206.60,742.51 1207.18,744.22 C1208.72,747.75 1209.24,752.48 1209.18,756.32 C1209.14,757.95 1208.77,762.47 1208.57,763.60 C1208.15,766.23 1208.49,767.82 1209.80,768.63 C1210.20,768.87 1220.49,771.88 1223.57,774.10 C1226.58,776.32 1230.78,781.92 1231.22,782.52 C1232.22,783.82 1234.56,787.06 1235.21,788.55 C1235.99,790.39 1236.14,797.92 1235.52,800.97 C1235.22,802.36 1234.20,805.59 1233.67,806.49 C1233.01,807.60 1227.94,814.19 1225.80,818.99 C1225.77,819.06 1225.69,819.27 1225.68,819.30 C1225.68,819.30 1221.85,825.32 1221.85,825.32" fill="none" stroke="rgb(82, 150, 67)" stroke-width="14.00" stroke-opacity="1.00" stroke-linejoin="miter"/>
<path d="M1224.44,828.02 C1224.44,828.02 1233.68,820.37 1233.68,820.37" fill="none" stroke="rgb(82, 150, 67)" stroke-width="14.00" stroke-opacity="1.00" stroke-linejoin="miter"/>
<path d="M1221.21,828.26 C1221.21,828.26 1233.27,815.23 1233.27,815.23 C1234.57,813.06 1237.95,807.00 1238.63,804.73 C1239.23,802.68 1238.94,793.63 1238.81,792.67 C1238.37,789.79 1233.31,778.23 1232.62,775.69" fill="none" stroke="rgb(82, 150, 67)" stroke-width="14.00" stroke-opacity="1.00" stroke-linejoin="miter"/>
<path d="M1218.91,828.97 C1218.58,829.14 1218.42,832.68 1218.42,832.70 C1218.64,833.80 1218.76,834.03 1219.47,833.97 C1220.69,833.90 1221.39,833.76 1221.55,833.55 C1222.47,832.33 1222.28,831.85 1220.99,832.10 C1220.63,832.17 1220.02,832.93 1219.17,834.37 C1218.44,835.61 1218.16,836.39 1218.36,836.70 C1218.77,837.33 1222.49,835.78 1222.64,834.62 C1222.77,833.60 1219.45,828.72 1218.91,828.97 Z" fill="none" stroke="rgb(82, 150, 67)" stroke-width="4.50" stroke-opacity="1.00" stroke-linejoin="miter"/>
<path d="M1224.35,832.16 C1224.35,832.16 1234.08,822.14 1234.08,822.14" fill="none" stroke="rgb(82, 150, 67)" stroke-width="4.50" stroke-opacity="1.00" stroke-linejoin="miter"/>
<path d="M1236.33,821.57 C1236.33,821.57 1234.31,824.65 1234.31,824.65" fill="none" stroke="rgb(82, 150, 67)" stroke-width="4.50" stroke-opacity="1.00" stroke-linejoin="miter"/>
<path d="M1237.78,774.90 C1239.36,777.10 1243.96,783.48 1243.85,784.68 C1243.81,784.82 1238.60,776.96 1237.16,774.76" fill="none" stroke="rgb(82, 150, 67)" stroke-width="6.00" stroke-opacity="1.00" stroke-linejoin="miter"/>
<path d="M1237.16,774.76" fill="none" stroke="rgb(82, 150, 67)" stroke-width="6.00" stroke-opacity="1.00" stroke-linejoin="miter"/>
<path d="M1247.02,784.14 C1248.39,785.22 1251.14,787.20 1251.26,787.85 C1251.50,789.07 1250.49,792.28 1250.75,794.00 C1251.92,801.68 1257.83,807.44 1257.99,806.92 C1258.21,805.86 1253.22,793.00 1253.48,792.55 C1253.68,792.27 1257.41,794.97 1258.01,795.68 C1261.59,800.10 1263.57,810.06 1263.68,810.18 C1264.21,810.74 1268.83,810.45 1269.18,810.11 C1269.66,809.58 1263.28,802.75 1263.63,802.09 C1263.87,801.73 1266.81,802.59 1267.83,803.31 C1268.81,804.02 1271.91,808.84 1272.74,809.07 C1274.05,809.40 1274.74,809.01 1274.84,807.92 C1274.90,807.35 1271.38,803.19 1271.65,803.09 C1272.01,802.97 1276.76,805.17 1277.11,805.13 C1277.53,805.09 1280.88,802.43 1282.42,801.54" fill="none" stroke="rgb(82, 150, 67)" stroke-width="7.00" stroke-opacity="1.00" stroke-linejoin="miter"/>
<path d="M1245.05,787.54 C1245.05,787.54 1241.21,782.60 1241.21,782.60" fill="none" stroke="rgb(82, 150, 67)" stroke-width="7.00" stroke-opacity="1.00" stroke-linejoin="miter"/>
<path d="M1247.66,788.74 C1247.66,788.74 1245.70,799.63 1245.70,799.63" fill="none" stroke="rgb(82, 150, 67)" stroke-width="7.00" stroke-opacity="1.00" stroke-linejoin="miter"/>
<path d="M1242.84,805.36 C1242.24,810.88 1241.34,813.95 1239.29,816.67 C1238.79,817.36 1235.31,822.18 1231.88,825.35 C1230.31,826.80 1225.97,831.73 1223.85,832.62 C1222.34,833.20 1219.56,834.70 1219.49,834.69 C1219.18,834.64 1219.63,826.07 1219.94,823.09 C1220.25,820.43 1221.87,816.13 1223.36,814.01 C1224.05,813.03 1227.83,807.77 1229.19,805.27 C1232.07,800.63 1234.13,797.03 1234.81,794.97 C1236.08,790.95 1236.69,788.02 1237.17,785.11" fill="none" stroke="rgb(82, 150, 67)" stroke-width="7.00" stroke-opacity="1.00" stroke-linejoin="miter"/>
<path d="M1215.58,745.36 C1215.58,745.36 1214.54,752.34 1214.54,752.34 C1214.54,752.34 1220.65,747.20 1220.65,747.20" fill="none" stroke="rgb(82, 150, 67)" stroke-width="7.00" stroke-opacity="1.00" stroke-linejoin="miter"/>
<path d="M1202.76,770.01 C1202.76,770.01 1202.76,770.01 1202.76,770.01" fill="none" stroke="rgb(82, 150, 67)" stroke-width="7.00" stroke-opacity="1.00" stroke-linejoin="miter"/>
<path d="M1195.21,715.86 C1195.79,712.47 1195.95,703.77 1196.07,702.59 C1196.20,701.30 1198.22,691.14 1198.44,690.40 C1199.00,688.62 1202.41,684.10 1204.03,682.90 C1205.82,681.62 1212.33,680.62 1213.23,680.35 C1214.29,680.03 1215.41,678.74 1216.38,679.29 C1216.42,679.33 1211.47,682.52 1209.85,683.70 C1208.20,684.93 1206.35,687.05 1206.11,688.16 C1205.92,689.09 1206.42,693.97 1206.42,694.27 C1206.43,695.27 1205.42,703.94 1205.99,708.69 C1206.21,710.33 1210.88,718.19 1210.63,719.02 C1210.40,719.63 1203.05,715.43 1201.59,715.05 C1199.92,714.61 1199.06,714.32 1199.00,714.19 C1198.98,714.14 1202.07,711.62 1201.80,710.78 C1201.61,710.09 1197.61,707.06 1197.67,706.96 C1197.74,706.83 1202.53,707.44 1202.55,707.05 C1202.59,706.69 1198.10,702.61 1198.07,702.40 C1198.02,702.14 1202.22,703.25 1202.28,702.97 C1202.37,702.70 1198.75,698.61 1198.74,698.35 C1198.73,698.09 1202.43,698.96 1202.56,698.57 C1202.78,698.07 1199.98,693.40 1200.07,693.38 C1200.95,693.05 1201.80,694.83 1202.66,694.46 C1203.05,694.31 1201.88,689.58 1201.45,687.83" fill="none" stroke="rgb(82, 150, 67)" stroke-width="7.00" stroke-opacity="1.00" stroke-linejoin="miter"/>
<path d="M1201.45,687.83 C1201.45,687.83 1200.33,699.44 1200.33,699.44" fill="none" stroke="rgb(82, 150, 67)" stroke-width="7.00" stroke-opacity="1.00" stroke-linejoin="miter"/>
<path d="M1215.55,762.60 C1216.64,760.68 1217.81,758.94 1218.59,757.82 C1219.77,756.07 1220.49,755.78 1221.38,756.88 C1221.54,757.09 1225.91,764.00 1225.71,764.32 C1225.35,764.79 1221.78,763.11 1220.69,762.92 C1220.19,762.82 1219.38,762.93 1218.26,763.23" fill="none" stroke="rgb(82, 150, 67)" stroke-width="7.00" stroke-opacity="1.00" stroke-linejoin="miter"/>
<path d="M1224.23,756.09 C1231.53,752.52 1243.54,746.05 1246.72,744.09 C1247.58,743.55 1265.36,729.32 1267.62,727.06 C1268.98,725.73 1271.10,722.65 1271.37,722.64 C1271.63,722.65 1275.63,726.56 1276.51,727.70 C1277.69,729.32 1277.87,732.21 1276.88,733.56 C1276.63,733.88 1270.26,740.08 1267.84,743.63 C1264.74,747.87 1250.84,757.40 1244.08,760.72 C1239.33,763.01 1233.59,765.87 1231.95,765.94 C1230.68,765.96 1228.12,764.46 1227.27,763.23 C1226.44,761.95 1225.17,758.11 1225.61,758.15 C1225.93,758.18 1229.38,761.94 1229.51,761.91 C1229.70,761.90 1228.20,757.96 1228.37,758.04 C1228.51,758.09 1232.14,762.68 1232.35,762.64 C1232.53,762.62 1231.02,757.73 1231.23,757.62 C1231.42,757.47 1235.00,761.13 1235.12,761.01 C1235.24,760.92 1233.34,755.95 1233.61,755.89 C1233.80,755.81 1238.11,759.71 1238.26,759.38 C1238.44,759.07 1235.82,752.42 1235.91,752.32 C1235.99,752.19 1239.91,757.09 1240.08,756.84 C1240.18,756.72 1238.38,750.13 1238.53,749.67 C1238.54,749.63 1243.91,755.90 1244.32,755.70 C1244.45,755.62 1243.04,747.59 1243.59,747.45 C1244.23,747.33 1250.51,754.65 1250.70,754.26 C1250.94,753.78 1248.90,746.91 1248.92,746.87 C1249.01,746.64 1252.99,751.77 1253.30,751.68 C1253.63,751.63 1252.66,745.43 1252.78,745.17 C1252.91,744.89 1256.03,748.68 1256.71,748.98 C1257.78,749.47 1260.08,747.45 1259.72,746.43 C1259.54,745.94 1255.76,742.59 1255.54,741.73 C1255.16,740.23 1257.43,737.55 1258.63,737.86 C1259.38,738.08 1262.22,744.74 1262.78,744.86 C1263.80,745.02 1265.38,741.79 1264.83,740.14 C1264.52,739.17 1260.70,735.34 1260.61,734.84 C1260.44,733.85 1263.49,732.53 1264.46,733.21 C1265.09,733.65 1266.98,738.14 1267.33,738.39 C1268.02,738.91 1269.95,736.93 1269.77,735.93 C1269.64,735.15 1266.85,732.37 1266.99,731.88 C1267.38,730.59 1268.23,729.83 1269.55,729.59 C1270.13,729.49 1271.61,732.94 1272.14,733.01 C1273.32,733.19 1274.08,732.74 1274.41,731.67 C1274.57,731.13 1271.80,727.53 1271.54,727.56 C1271.36,727.59 1271.22,728.13 1271.10,729.19" fill="none" stroke="rgb(82, 150, 67)" stroke-width="7.00" stroke-opacity="1.00" stroke-linejoin="miter"/>
<path d="M1126.67,729.56 C1123.73,728.53 1119.49,724.94 1116.97,721.35 C1114.74,718.07 1113.03,712.21 1113.32,708.72 C1113.67,705.25 1116.12,699.25 1118.49,696.09 C1120.97,692.88 1126.43,688.48 1130.38,686.50 C1134.36,684.57 1141.49,682.76 1145.92,682.57 C1150.20,682.43 1157.44,683.72 1160.96,685.20 C1164.54,686.78 1169.30,691.14 1171.40,694.74 C1173.96,699.53 1174.29,700.71 1174.70,703.37" fill="none" stroke="rgb(12, 13, 48)" stroke-width="8.46" stroke-opacity="1.00" stroke-linejoin="round"/>
<path d="M1148.78,752.03 C1147.63,751.59 1138.48,748.04 1135.94,746.18 C1133.21,744.11 1129.64,738.27 1128.88,735.22 C1128.19,732.23 1128.74,725.14 1129.88,722.22 C1131.07,719.31 1135.97,712.88 1138.68,710.66 C1141.43,708.48 1149.13,704.68 1152.92,703.65 C1155.60,702.95 1162.53,702.32 1165.68,702.59 C1169.08,702.91 1175.23,705.06 1179.46,707.36 C1182.74,709.21 1185.53,712.91 1186.19,714.32" fill="none" stroke="rgb(12, 13, 48)" stroke-width="8.46" stroke-opacity="1.00" stroke-linejoin="round"/>
<path d="M1199.40,745.25 C1200.89,747.18 1201.84,752.40 1201.58,757.25 C1201.31,761.50 1199.41,767.83 1197.71,770.86 C1196.28,773.37 1191.89,778.90 1189.03,781.32 C1185.97,783.87 1178.92,787.79 1175.29,788.73 C1171.60,789.65 1164.43,789.82 1161.22,788.87 C1157.99,787.85 1152.51,784.30 1150.59,781.70 C1148.65,778.99 1146.40,772.77 1146.16,769.19 C1145.96,765.29 1147.54,758.14 1149.65,754.31 C1150.87,752.13 1156.26,744.35 1157.34,743.25" fill="none" stroke="rgb(12, 13, 48)" stroke-width="8.46" stroke-opacity="1.00" stroke-linejoin="round"/>
<path d="M1213.58,825.34 C1211.37,826.67 1205.58,830.05 1202.57,830.94 C1199.18,831.89 1191.06,832.09 1187.80,831.33 C1184.53,830.51 1178.43,826.73 1176.47,824.42 C1174.56,822.09 1171.88,815.24 1171.63,812.07 C1171.43,808.89 1173.02,800.98 1174.57,797.59 C1175.69,795.20 1179.78,789.50 1182.12,787.08 C1184.42,784.76 1189.89,781.01 1192.82,779.58 C1196.14,777.99 1202.48,776.29 1206.30,776.13 C1210.27,776.02 1216.67,777.77 1219.97,779.83 C1220.71,780.31 1224.24,782.98 1224.86,783.79 C1226.25,785.64 1227.64,788.74 1228.10,790.65 C1228.10,790.65 1227.33,795.80 1227.33,795.80 C1227.33,795.80 1227.05,796.95 1227.05,796.95" fill="none" stroke="rgb(12, 13, 48)" stroke-width="8.60" stroke-opacity="1.00" stroke-linejoin="round"/>
<path d="M1230.41,793.78 C1230.41,793.78 1229.19,795.29 1229.19,795.29" fill="none" stroke="rgb(12, 13, 48)" stroke-width="8.60" stroke-opacity="1.00" stroke-linejoin="round"/>
<path d="M1247.68,813.07 C1250.06,814.45 1251.10,815.25 1252.38,816.84 C1255.53,820.70 1258.46,825.74 1259.07,829.34 C1259.61,832.75 1258.78,840.47 1257.74,843.64 C1256.67,846.83 1253.56,852.91 1251.80,855.27 C1250.03,857.61 1245.09,862.26 1242.30,864.22 C1239.49,866.14 1232.60,868.80 1228.86,869.35 C1225.28,869.83 1218.51,868.58 1215.52,867.12 C1212.64,865.66 1207.87,860.70 1206.45,857.81 C1204.98,854.69 1204.26,848.03 1204.48,842.93 C1204.69,838.97 1206.42,834.61 1207.22,833.34 C1207.22,833.34 1212.76,827.21 1212.76,827.21" fill="none" stroke="rgb(12, 13, 48)" stroke-width="8.60" stroke-opacity="1.00" stroke-linejoin="round"/>
<path d="M1260.45,840.74 C1260.54,840.82 1264.11,845.11 1264.29,845.34 C1267.04,848.90 1269.37,855.09 1269.43,859.07 C1269.42,862.70 1267.98,869.36 1266.62,872.68 C1265.35,875.68 1261.90,881.35 1259.70,883.77 C1257.42,886.23 1251.95,890.63 1249.63,891.88 C1246.32,893.61 1238.53,895.63 1235.32,895.61 C1232.11,895.53 1225.26,893.30 1222.73,891.44 C1220.21,889.53 1216.10,883.74 1215.22,880.51 C1214.46,877.58 1214.61,870.30 1214.71,867.49 C1214.71,867.49 1214.13,865.83 1214.13,865.83" fill="none" stroke="rgb(12, 13, 48)" stroke-width="8.60" stroke-opacity="1.00" stroke-linejoin="round"/>
<path d="M1227.48,896.42 C1224.45,899.25 1217.69,903.21 1216.66,903.76 C1213.30,905.52 1207.01,907.48 1203.63,907.80 C1200.68,908.04 1193.80,907.53 1190.32,906.61 C1186.34,905.51 1180.26,901.84 1178.00,898.90 C1176.75,897.25 1172.94,890.38 1172.66,889.32" fill="none" stroke="rgb(12, 13, 48)" stroke-width="8.60" stroke-opacity="1.00" stroke-linejoin="round"/>
<path d="M1209.37,859.68 C1209.37,859.68 1211.25,861.24 1211.25,861.24" fill="none" stroke="rgb(12, 13, 48)" stroke-width="8.60" stroke-opacity="1.00" stroke-linejoin="round"/>
<path d="M1215.84,869.89 C1214.25,872.38 1210.16,878.62 1207.53,881.09 C1205.35,883.09 1199.63,886.29 1196.28,887.52 C1193.15,888.64 1186.74,889.76 1183.41,889.83 C1179.66,889.87 1173.38,888.77 1169.74,887.23 C1166.11,885.64 1160.80,881.48 1158.79,878.70 C1157.78,877.26 1156.42,874.24 1156.07,872.60 C1155.07,867.49 1156.94,858.92 1157.26,858.05" fill="none" stroke="rgb(12, 13, 48)" stroke-width="8.60" stroke-opacity="1.00" stroke-linejoin="round"/>
<path d="M1201.83,840.85 C1201.83,840.85 1203.29,841.42 1203.29,841.42 C1203.29,841.42 1204.44,841.20 1204.44,841.20" fill="none" stroke="rgb(12, 13, 48)" stroke-width="8.60" stroke-opacity="1.00" stroke-linejoin="round"/>
<path d="M1203.14,833.80 C1202.36,836.08 1197.63,843.52 1196.32,845.12 C1193.89,848.06 1188.41,851.93 1185.30,853.32 C1182.08,854.73 1176.20,856.29 1172.73,856.63 C1169.59,856.92 1162.78,856.55 1159.33,855.53 C1155.71,854.43 1149.30,850.75 1147.01,848.23 C1144.73,845.64 1141.84,839.66 1141.54,836.39 C1141.28,833.00 1142.60,826.42 1144.28,823.17 C1146.20,819.59 1151.08,814.53 1154.43,812.51 C1156.92,811.05 1163.49,808.10 1165.83,807.05" fill="none" stroke="rgb(12, 13, 48)" stroke-width="8.60" stroke-opacity="1.00" stroke-linejoin="round"/>
<path d="M1141.53,823.74 C1138.96,823.33 1131.23,819.98 1129.52,818.94 C1127.87,817.91 1125.31,815.51 1124.28,814.03 C1122.49,811.36 1120.51,804.08 1120.53,800.36 C1120.60,796.25 1122.57,788.96 1124.39,785.62 C1126.09,782.56 1130.83,776.29 1132.52,774.69 C1135.35,772.06 1140.07,769.44 1141.26,768.76" fill="none" stroke="rgb(12, 13, 48)" stroke-width="9.04" stroke-opacity="1.00" stroke-linejoin="round"/>
<path d="M1124.83,779.90 C1119.44,780.58 1115.31,780.65 1111.72,779.32 C1108.04,777.89 1102.33,773.86 1100.40,771.01 C1098.56,768.20 1096.51,761.13 1096.53,757.36 C1096.61,753.24 1098.57,745.96 1100.38,742.62 C1102.09,739.53 1106.79,733.30 1108.52,731.69 C1111.41,729.05 1116.32,726.42 1117.57,725.74 C1117.57,725.74 1121.66,726.19 1121.66,726.19" fill="none" stroke="rgb(12, 13, 48)" stroke-width="9.04" stroke-opacity="1.00" stroke-linejoin="round"/>
<path d="M1167.10,805.93 C1167.10,805.93 1170.81,804.02 1170.81,804.02 C1170.81,804.02 1165.10,805.16 1165.10,805.16 C1165.10,805.16 1171.06,803.11 1171.06,803.11 C1171.06,803.11 1167.86,804.59 1167.86,804.59" fill="none" stroke="rgb(12, 13, 48)" stroke-width="4.50" stroke-opacity="1.00" stroke-linejoin="round"/>
<path d="M1093.80,759.87 C1091.51,757.77 1087.45,750.51 1086.76,748.72 C1085.41,745.13 1085.41,737.58 1086.57,733.51 C1087.64,729.89 1091.00,723.44 1092.96,720.77 C1095.22,717.75 1100.37,713.19 1104.38,710.93 C1104.70,710.74 1108.60,708.66 1109.65,708.10" fill="none" stroke="rgb(12, 13, 48)" stroke-width="9.04" stroke-opacity="1.00" stroke-linejoin="round"/>
<path d="M1112.53,781.86 C1111.99,782.83 1106.38,789.37 1104.71,790.98 C1101.75,793.79 1095.39,797.22 1091.54,798.29 C1087.99,799.23 1081.16,799.45 1077.84,798.83 C1074.64,798.18 1069.24,795.12 1067.09,792.97 C1065.02,790.83 1062.61,785.31 1062.18,782.22 C1061.80,779.18 1063.02,772.55 1064.38,769.47 C1065.80,766.35 1070.41,760.54 1073.36,757.96 C1076.42,755.35 1080.94,753.32 1086.27,751.47" fill="none" stroke="rgb(12, 13, 48)" stroke-width="7.79" stroke-opacity="1.00" stroke-linejoin="round"/>
<path d="M1136.13,823.91 C1136.13,823.91 1134.86,825.69 1134.86,825.69" fill="none" stroke="rgb(12, 13, 48)" stroke-width="8.15" stroke-opacity="1.00" stroke-linejoin="round"/>
<path d="M1112.57,839.80 C1107.66,840.38 1103.90,840.41 1100.67,839.21 C1097.36,837.91 1092.23,834.27 1090.49,831.70 C1088.85,829.17 1087.00,822.75 1087.07,819.36 C1087.19,815.87 1089.01,808.85 1090.82,805.50 C1092.78,801.97 1097.72,796.18 1100.98,793.78 C1108.51,788.34 1115.38,787.33 1120.34,787.15" fill="none" stroke="rgb(12, 13, 48)" stroke-width="8.15" stroke-opacity="1.00" stroke-linejoin="round"/>
<path d="M1172.41,858.00 C1172.41,858.00 1170.96,857.41 1170.96,857.41" fill="none" stroke="rgb(12, 13, 48)" stroke-width="8.58" stroke-opacity="1.00" stroke-linejoin="round"/>
<path d="M1154.54,873.95 C1152.29,874.91 1146.48,877.29 1143.15,877.84 C1140.44,878.26 1133.57,878.07 1130.18,877.48 C1126.69,876.84 1120.12,874.00 1117.01,871.66 C1114.16,869.45 1110.29,863.86 1109.19,860.70 C1108.16,857.58 1108.43,850.94 1109.47,847.69 C1110.54,844.55 1114.96,838.30 1117.63,836.10 C1120.41,833.85 1126.56,831.06 1130.59,829.81 C1135.42,828.35 1137.77,827.90 1140.37,827.78" fill="none" stroke="rgb(12, 13, 48)" stroke-width="8.58" stroke-opacity="1.00" stroke-linejoin="round"/>
<path d="M1173.27,902.99 C1167.72,905.40 1162.92,906.96 1159.10,907.14 C1155.50,907.25 1148.89,906.56 1146.08,905.77 C1142.16,904.62 1135.67,900.89 1133.36,898.34 C1131.24,895.93 1127.73,888.23 1127.40,886.55 C1127.07,884.86 1127.12,882.58 1127.38,881.56" fill="none" stroke="rgb(12, 13, 48)" stroke-width="8.58" stroke-opacity="1.00" stroke-linejoin="round"/>
<path d="M1127.48,894.65 C1122.43,896.84 1117.76,898.36 1113.57,898.48 C1109.41,898.55 1101.75,897.33 1098.45,895.91 C1095.23,894.49 1089.62,890.19 1087.78,887.58 C1085.93,884.87 1083.92,878.94 1083.97,875.80 C1084.08,872.47 1086.14,866.48 1088.31,863.62 C1093.36,857.12 1099.99,854.16 1104.93,852.50" fill="none" stroke="rgb(12, 13, 48)" stroke-width="8.16" stroke-opacity="1.00" stroke-linejoin="round"/>
<path d="M1080.98,878.26 C1075.90,878.22 1072.07,877.76 1068.89,876.09 C1065.56,874.28 1060.87,869.90 1059.33,866.98 C1057.80,863.96 1056.91,857.23 1057.67,853.67 C1058.14,851.59 1060.13,845.99 1060.60,844.61" fill="none" stroke="rgb(12, 13, 48)" stroke-width="8.49" stroke-opacity="1.00" stroke-linejoin="round"/>
<path d="M1090.00,832.84 C1087.01,836.82 1084.43,839.67 1081.33,841.55 C1078.26,843.35 1071.62,845.74 1067.92,845.65 C1066.09,845.57 1061.89,844.53 1060.32,843.76 C1058.74,842.95 1055.51,840.27 1054.25,838.77 C1051.90,835.85 1049.71,829.19 1049.36,825.97 C1049.05,822.66 1050.07,815.25 1051.24,812.04 C1052.56,808.58 1056.31,803.29 1059.73,799.46 C1061.95,797.02 1064.52,795.30 1065.39,794.83" fill="none" stroke="rgb(12, 13, 48)" stroke-width="7.66" stroke-opacity="1.00" stroke-linejoin="round"/>
<path d="M1228.85,794.56 C1228.85,794.56 1228.87,794.65 1228.87,794.65 C1228.87,794.65 1227.99,796.69 1227.99,796.69" fill="none" stroke="rgb(12, 13, 48)" stroke-width="4.50" stroke-opacity="1.00" stroke-linejoin="round"/>
<path d="M1228.07,796.69 C1228.07,796.69 1228.28,797.79 1228.28,797.79" fill="none" stroke="rgb(12, 13, 48)" stroke-width="4.50" stroke-opacity="1.00" stroke-linejoin="round"/>
<path d="M1201.40,772.97 C1205.36,770.45 1208.82,767.79 1211.43,764.70 C1216.87,758.16 1222.41,746.81 1222.44,746.73 C1223.04,744.89 1223.14,743.13 1222.76,741.15 C1222.54,740.07 1220.69,730.99 1219.17,728.66 C1218.01,726.94 1212.55,722.24 1209.08,720.22 C1206.69,718.85 1200.41,716.27 1197.47,715.99 C1194.48,715.75 1188.44,716.89 1184.47,718.23 C1180.70,719.53 1174.35,722.72 1171.44,724.74 C1168.36,726.94 1164.07,731.81 1162.00,735.46 C1161.84,735.76 1159.97,739.22 1159.47,740.15 C1162.54,742.45 1166.86,744.32 1171.05,744.92 C1174.34,745.35 1181.60,745.69 1184.29,745.33 C1187.02,744.95 1200.13,740.47 1203.14,739.54 C1205.76,738.72 1208.19,738.69 1210.54,739.53 C1212.09,740.11 1219.22,744.76 1221.78,746.47" fill="none" stroke="rgb(1, 1, 1)" stroke-width="5.00" stroke-opacity="1.00" stroke-linejoin="miter"/>
<path d="M1192.64,715.19 C1192.02,710.08 1191.58,705.36 1191.83,702.08 C1192.12,698.66 1193.81,692.70 1195.44,689.45 C1196.97,686.48 1201.37,681.35 1203.74,679.86 C1206.35,678.28 1212.68,676.87 1216.43,677.23 C1217.32,677.32 1221.30,677.92 1222.49,678.10 C1217.40,680.57 1213.05,682.98 1211.02,685.46 C1209.14,687.85 1207.71,694.07 1207.74,697.98 C1207.82,701.77 1209.09,708.58 1210.46,712.67 C1211.97,717.07 1214.51,722.48 1216.32,725.15" fill="none" stroke="rgb(1, 1, 1)" stroke-width="5.00" stroke-opacity="1.00" stroke-linejoin="miter"/>
<path d="M1221.01,753.73 C1229.35,750.05 1242.52,742.67 1247.69,739.19 C1260.67,730.38 1270.58,718.98 1271.25,718.21" fill="none" stroke="rgb(1, 1, 1)" stroke-width="5.00" stroke-opacity="1.00" stroke-linejoin="miter"/>
<path d="M1271.25,718.21 C1275.54,721.82 1279.27,729.39 1279.75,730.35 C1274.72,739.13 1269.74,746.04 1264.35,750.43 C1253.45,759.23 1235.15,767.77 1232.74,768.77" fill="none" stroke="rgb(1, 1, 1)" stroke-width="5.00" stroke-opacity="1.00" stroke-linejoin="miter"/>
<path d="M1211.40,766.83 C1215.54,766.02 1219.60,765.51 1222.90,766.15 C1224.09,766.40 1228.00,767.60 1229.01,768.12 C1230.97,769.15 1233.39,771.46 1234.29,773.20 C1235.34,775.34 1235.89,782.14 1235.29,785.24 C1234.59,788.52 1232.13,793.99 1229.99,797.48 C1228.62,799.70 1223.39,807.47 1221.79,810.26 C1219.71,813.96 1217.74,819.47 1217.09,823.97 C1216.52,828.18 1216.22,832.05 1215.85,838.14 C1219.39,836.81 1222.77,835.27 1225.98,833.14 C1229.61,830.71 1234.87,826.35 1236.77,824.00 C1238.22,822.17 1241.54,816.11 1243.18,812.51 C1245.22,807.96 1247.88,800.67 1247.91,797.96 C1247.91,797.48 1246.37,785.75 1246.35,785.58 C1245.76,782.01 1242.37,775.74 1240.33,773.45 C1238.98,771.96 1236.31,769.45 1234.61,767.99" fill="none" stroke="rgb(1, 1, 1)" stroke-width="5.00" stroke-opacity="1.00" stroke-linejoin="miter"/>
<path d="M1245.79,779.28 C1248.35,780.82 1252.19,784.41 1254.84,787.88 C1257.06,790.83 1261.55,797.67 1263.19,798.97 C1265.30,800.59 1271.90,801.97 1274.87,801.88 C1280.10,801.66 1287.36,798.06 1288.25,797.61 C1286.19,801.43 1282.98,805.61 1280.10,807.86 C1277.55,809.78 1270.32,813.02 1267.47,813.20 C1264.57,813.32 1258.25,810.59 1255.28,808.25 C1251.69,805.37 1248.88,801.94 1248.38,800.21" fill="none" stroke="rgb(1, 1, 1)" stroke-width="5.00" stroke-opacity="1.00" stroke-linejoin="miter"/>
<path d="M1168.69,865.70 C1172.82,866.32 1178.98,864.97 1179.19,864.70 C1177.50,863.70 1168.38,865.49 1167.05,866.58 C1167.05,866.58 1180.69,864.19 1180.69,864.19 C1179.82,863.17 1174.58,863.27 1172.94,863.64 C1172.66,863.70 1172.37,863.77 1172.09,863.84" fill="none" stroke="rgb(55, 56, 149)" stroke-width="4.50" stroke-opacity="1.00" stroke-linejoin="round"/>
<path d="M1164.35,861.60 C1176.38,863.52 1185.49,860.33 1185.76,860.17" fill="none" stroke="rgb(55, 56, 149)" stroke-width="4.50" stroke-opacity="1.00" stroke-linejoin="round"/>
<path d="M1163.11,862.17 C1163.97,861.86 1175.49,861.96 1182.17,860.84 C1187.73,859.91 1194.56,857.84 1195.19,857.43" fill="none" stroke="rgb(55, 56, 149)" stroke-width="4.50" stroke-opacity="1.00" stroke-linejoin="round"/>
<path d="M1165.54,862.17 C1168.33,863.06 1175.74,862.64 1182.82,860.79 C1187.57,859.55 1196.39,856.00 1196.97,855.74" fill="none" stroke="rgb(55, 56, 149)" stroke-width="4.50" stroke-opacity="1.00" stroke-linejoin="round"/>
<path d="M1189.14,858.13 C1184.07,859.51 1165.24,862.17 1163.95,862.65 C1163.73,862.74 1163.53,862.88 1163.36,863.06" fill="none" stroke="rgb(55, 56, 149)" stroke-width="4.50" stroke-opacity="1.00" stroke-linejoin="round"/>
<path d="M1181.76,860.32 C1181.76,860.32 1171.62,862.68 1171.62,862.68 C1171.62,862.68 1180.31,863.67 1180.31,863.67 C1179.84,864.24 1175.31,865.91 1173.58,866.22 C1173.32,866.27 1173.06,866.31 1172.80,866.36" fill="none" stroke="rgb(55, 56, 149)" stroke-width="4.50" stroke-opacity="1.00" stroke-linejoin="round"/>
<path d="M1220.84,788.44 C1221.04,788.75 1223.75,793.84 1223.87,795.53 C1223.96,797.26 1221.61,798.79 1220.83,798.94" fill="none" stroke="rgb(55, 56, 149)" stroke-width="4.50" stroke-opacity="1.00" stroke-linejoin="round"/>
<path d="M1222.27,788.49 C1222.27,788.49 1221.73,789.25 1221.73,789.25" fill="none" stroke="rgb(55, 56, 149)" stroke-width="4.50" stroke-opacity="1.00" stroke-linejoin="round"/>
<path d="M1219.50,788.11 C1220.68,788.47 1224.47,796.81 1223.98,798.85 C1223.75,799.71 1221.79,800.95 1220.73,801.11" fill="none" stroke="rgb(55, 56, 149)" stroke-width="4.50" stroke-opacity="1.00" stroke-linejoin="round"/>
<path d="M1220.56,788.71 C1222.78,791.11 1224.38,797.58 1223.68,799.28 C1222.99,800.85 1220.90,802.11 1220.43,802.19 C1220.31,802.21 1220.10,802.23 1219.78,802.23" fill="none" stroke="rgb(55, 56, 149)" stroke-width="4.50" stroke-opacity="1.00" stroke-linejoin="round"/>
<path d="M1221.76,788.72 C1223.17,790.38 1224.75,793.41 1225.12,794.74 C1225.50,796.21 1225.31,798.53 1224.62,799.40 C1223.74,800.49 1222.34,801.31 1221.71,801.58" fill="none" stroke="rgb(55, 56, 149)" stroke-width="4.50" stroke-opacity="1.00" stroke-linejoin="round"/>
<path d="M1221.59,788.46 C1223.40,789.92 1225.55,795.20 1225.28,798.08 C1224.93,800.70 1222.57,802.06 1222.03,802.24" fill="none" stroke="rgb(55, 56, 149)" stroke-width="4.50" stroke-opacity="1.00" stroke-linejoin="round"/>
<path d="M1223.89,784.30 C1226.77,791.18 1228.36,797.43 1227.54,799.97 C1227.42,800.32 1227.26,800.62 1227.08,800.86 C1226.99,800.97 1226.82,801.14 1226.56,801.37" fill="none" stroke="rgb(12, 13, 48)" stroke-width="4.50" stroke-opacity="1.00" stroke-linejoin="round"/>
<path d="M1218.38,818.78" fill="none" stroke="rgb(12, 13, 48)" stroke-width="4.50" stroke-opacity="1.00" stroke-linejoin="round"/>
<path d="M1218.74,815.85 C1218.66,816.42 1217.44,819.12 1216.09,821.06 C1213.73,824.34 1206.61,828.66 1203.68,829.85 C1203.45,829.95 1203.23,830.04 1203.01,830.13" fill="none" stroke="rgb(12, 13, 48)" stroke-width="4.50" stroke-opacity="1.00" stroke-linejoin="round"/>
<path d="M1218.05,816.59 C1217.85,817.96 1212.11,824.43 1205.67,828.38 C1205.60,828.43 1205.43,828.53 1205.18,828.68" fill="none" stroke="rgb(12, 13, 48)" stroke-width="4.50" stroke-opacity="1.00" stroke-linejoin="round"/>
<path d="M1220.88,863.84 C1219.89,864.06 1214.95,860.77 1213.81,858.51 C1213.28,857.42 1212.62,854.63 1212.82,853.33 C1212.86,853.09 1212.96,852.75 1213.14,852.30" fill="none" stroke="rgb(55, 56, 149)" stroke-width="4.50" stroke-opacity="1.00" stroke-linejoin="round"/>
<path d="M1211.94,853.35 C1212.46,855.65 1213.58,858.01 1214.29,858.87 C1216.61,861.60 1221.46,862.45 1222.53,862.50 C1222.77,862.51 1223.23,862.52 1223.93,862.53" fill="none" stroke="rgb(55, 56, 149)" stroke-width="4.50" stroke-opacity="1.00" stroke-linejoin="round"/>
<path d="M1222.71,863.04 C1222.49,863.81 1218.11,862.05 1215.95,859.16 C1214.07,856.57 1212.69,851.65 1212.66,850.16 C1212.65,849.71 1212.82,849.32 1213.05,848.98" fill="none" stroke="rgb(55, 56, 149)" stroke-width="4.50" stroke-opacity="1.00" stroke-linejoin="round"/>
<path d="M1210.73,851.25 C1210.73,851.25 1210.46,851.21 1210.46,851.21 C1210.22,852.61 1211.96,857.19 1213.86,858.68 C1219.42,862.96 1224.97,861.88 1225.56,861.64 C1225.77,861.55 1226.09,861.38 1226.53,861.12" fill="none" stroke="rgb(55, 56, 149)" stroke-width="4.50" stroke-opacity="1.00" stroke-linejoin="round"/>
<path d="M1225.00,863.91 C1224.43,864.16 1221.43,864.00 1219.72,863.14 C1217.10,861.80 1213.13,856.88 1212.11,853.65 C1210.98,849.93 1211.67,848.26 1212.12,847.58" fill="none" stroke="rgb(55, 56, 149)" stroke-width="4.50" stroke-opacity="1.00" stroke-linejoin="round"/>
<path d="M1222.34,864.33 C1222.34,864.33 1222.28,864.47 1222.28,864.47 C1221.25,864.62 1218.46,863.64 1216.69,862.05 C1211.08,856.88 1211.52,850.44 1211.74,849.91 C1211.83,849.70 1212.05,849.42 1212.39,849.08" fill="none" stroke="rgb(55, 56, 149)" stroke-width="4.50" stroke-opacity="1.00" stroke-linejoin="round"/>
<path d="M1222.02,864.21 C1219.06,863.92 1213.84,861.15 1212.12,858.81 C1208.76,854.13 1210.87,848.48 1211.25,847.94 C1211.30,847.87 1211.41,847.72 1211.58,847.49" fill="none" stroke="rgb(55, 56, 149)" stroke-width="4.50" stroke-opacity="1.00" stroke-linejoin="round"/>
<path d="M1221.30,864.68 C1219.26,864.55 1214.02,860.82 1212.46,858.54 C1210.90,856.19 1209.87,850.56 1210.02,848.21 C1210.04,847.87 1210.10,847.26 1210.21,846.37" fill="none" stroke="rgb(55, 56, 149)" stroke-width="4.50" stroke-opacity="1.00" stroke-linejoin="round"/>
<path d="M1148.39,689.82 C1148.39,689.82 1137.07,691.32 1137.07,691.32" fill="none" stroke="rgb(95, 98, 167)" stroke-width="6.00" stroke-opacity="1.00" stroke-linejoin="miter"/>
<path d="M1162.45,709.89 C1158.15,710.57 1154.63,712.04 1151.90,714.29" fill="none" stroke="rgb(95, 98, 167)" stroke-width="6.00" stroke-opacity="1.00" stroke-linejoin="miter"/>
<path d="M1106.19,718.11 C1106.19,718.11 1099.29,724.82 1099.29,724.82" fill="none" stroke="rgb(95, 98, 167)" stroke-width="6.00" stroke-opacity="1.00" stroke-linejoin="miter"/>
<path d="M1118.49,734.56 C1115.12,737.06 1113.59,740.43 1113.13,741.45" fill="none" stroke="rgb(95, 98, 167)" stroke-width="6.00" stroke-opacity="1.00" stroke-linejoin="miter"/>
<path d="M1163.09,748.85 C1163.09,748.85 1157.68,754.40 1157.68,754.40" fill="none" stroke="rgb(95, 98, 167)" stroke-width="6.00" stroke-opacity="1.00" stroke-linejoin="miter"/>
<path d="M1158.12,754.87 C1158.12,754.87 1158.12,754.87 1158.12,754.87 Z" fill="none" stroke="rgb(95, 98, 167)" stroke-width="6.00" stroke-opacity="1.00" stroke-linejoin="miter"/>
<path d="M1083.24,759.91 C1083.24,759.91 1075.35,764.77 1075.35,764.77" fill="none" stroke="rgb(95, 98, 167)" stroke-width="6.00" stroke-opacity="1.00" stroke-linejoin="miter"/>
<path d="M1064.18,803.70 C1064.18,803.70 1059.35,812.62 1059.35,812.62" fill="none" stroke="rgb(95, 98, 167)" stroke-width="6.00" stroke-opacity="1.00" stroke-linejoin="miter"/>
<path d="M1064.39,853.50 C1063.53,855.29 1063.34,856.61 1063.81,858.38 C1063.99,859.05 1064.17,859.73 1064.35,860.40" fill="none" stroke="rgb(95, 98, 167)" stroke-width="6.00" stroke-opacity="1.00" stroke-linejoin="miter"/>
<path d="M1102.35,802.23 C1102.35,802.23 1107.38,798.82 1107.38,798.82" fill="none" stroke="rgb(95, 98, 167)" stroke-width="6.00" stroke-opacity="1.00" stroke-linejoin="miter"/>
<path d="M1109.13,798.47 C1109.13,798.47 1109.13,798.47 1109.13,798.47 Z" fill="none" stroke="rgb(95, 98, 167)" stroke-width="6.00" stroke-opacity="1.00" stroke-linejoin="miter"/>
<path d="M1133.00,787.25 C1135.41,783.14 1136.57,782.37 1138.50,782.00" fill="none" stroke="rgb(95, 98, 167)" stroke-width="6.00" stroke-opacity="1.00" stroke-linejoin="miter"/>
</g>
</svg>
