<?xml version="1.0" encoding="UTF-8" standalone="no"?>
<!DOCTYPE svg PUBLIC "-//W3C//DTD SVG 1.1//EN" "http://www.w3.org/Graphics/SVG/1.1/DTD/svg11.dtd">
<svg width="1920.00" height="1080.00" viewBox="0.00 0.00 1920.00 1080.00" xmlns="http://www.w3.org/2000/svg" xmlns:xlink="http://www.w3.org/1999/xlink">
<g stroke-linecap="round" id="Capa_25">
<path d="M599.07,413.49 C601.23,414.30 606.75,416.25 610.99,416.75 C615.72,417.27 631.76,416.36 638.38,415.22 C643.96,414.24 688.96,402.83 695.88,400.44 C709.41,395.74 733.13,383.70 739.01,380.53 C743.37,378.09 746.61,375.48 749.53,373.10 C750.47,372.49 750.75,373.28 750.20,374.68 C748.78,378.16 745.43,384.77 743.44,387.71 C740.85,391.46 737.21,395.58 734.07,397.72 C730.28,400.25 718.39,404.59 706.05,409.44 C698.77,412.39 683.33,418.41 677.09,420.24 C669.71,422.39 656.59,424.58 648.59,424.11 C625.37,422.65 619.00,421.26 615.41,420.26" fill="none" stroke="rgb(199, 0, 36)" stroke-width="8.00" stroke-opacity="1.00" stroke-linejoin="miter"/>
<path d="M632.04,418.14 C632.04,418.14 630.79,418.43 630.79,418.43 C637.73,417.03 648.15,416.39 651.19,415.58 C656.09,414.25 661.72,411.79 663.70,410.72 C662.96,409.39 651.60,411.37 643.22,413.83 C643.22,413.81 654.24,413.60 659.63,413.10 C662.40,412.79 669.21,412.06 669.98,412.24 C669.98,412.24 644.74,415.62 644.74,415.62 C646.43,416.54 655.50,416.19 660.93,415.24 C662.41,414.98 670.72,413.30 671.56,413.14 C661.25,416.71 646.16,417.53 642.94,417.19 C642.94,417.43 646.13,418.33 648.53,418.18 C651.15,418.00 663.66,416.13 665.11,416.00 C664.61,418.90 645.18,422.12 643.00,421.82 C644.24,421.36 665.26,419.10 667.95,418.43 C670.89,417.65 672.58,416.78 673.36,416.20 C672.70,415.20 671.86,414.83 670.12,414.90 C666.95,415.00 655.24,416.23 653.58,416.50 C662.40,416.88 676.19,413.95 685.69,411.21 C685.69,411.21 657.80,416.46 657.80,416.46 C658.92,417.28 667.03,415.83 673.17,413.98 C690.02,408.70 696.39,405.87 696.61,405.74 C692.63,404.79 671.01,414.35 665.50,416.88 C665.52,416.88 675.64,412.16 686.49,407.99 C692.94,405.57 700.14,402.89 700.21,402.83 C700.21,402.83 675.41,412.80 675.41,412.80 C676.22,412.07 690.50,408.08 697.01,405.87 C702.62,403.87 710.26,400.88 712.40,399.88 C712.40,399.88 680.51,413.44 680.51,413.44 C683.35,412.87 695.71,408.42 702.83,405.41 C709.54,402.37 719.12,397.96 721.14,396.78 C719.55,395.55 689.83,410.60 687.63,411.65 C687.63,411.65 726.74,392.95 726.74,392.95 C726.74,392.95 708.30,401.45 708.30,401.45 C711.15,400.96 721.83,396.61 729.72,392.78 C735.01,390.18 739.55,387.14 739.94,386.35 C736.63,385.67 722.16,395.53 721.75,396.35 C726.99,395.78 742.69,384.68 742.20,384.54 C742.20,384.54 730.00,393.77 730.00,393.77 C730.73,394.18 731.15,394.25 731.94,393.91 C734.30,392.87 741.03,388.54 743.51,386.18 C745.18,384.56 745.57,383.23 745.51,382.79 C743.33,382.24 736.43,386.15 736.32,387.07" fill="none" stroke="rgb(199, 0, 36)" stroke-width="7.00" stroke-opacity="1.00" stroke-linejoin="round"/>
<path d="M594.28,410.77 C613.51,410.40 641.81,408.89 652.93,406.55 C659.12,405.23 674.54,400.63 681.81,398.19 C703.20,390.38 726.75,380.28 741.89,372.66 C743.29,371.93 750.01,368.42 752.12,366.30 C754.16,364.16 754.80,359.73 754.53,354.51 C754.21,350.15 752.40,342.57 751.08,339.16 C748.54,332.73 740.86,317.08 738.53,312.84 C736.54,309.23 725.92,291.69 722.54,287.43 C720.07,284.36 715.05,279.42 711.90,277.27 C709.62,275.74 696.96,269.49 687.53,263.77 C684.55,261.99 678.10,260.06 673.73,259.46 C666.04,258.47 651.65,258.21 644.62,259.17 C641.66,259.60 635.33,261.79 632.64,263.52 C628.77,266.04 615.83,278.03 611.70,283.33 C607.49,288.78 601.84,299.48 597.25,309.76 C593.87,317.67 588.66,332.31 587.55,338.08 C586.32,344.69 587.70,360.63 587.37,366.95 C587.24,369.23 586.07,378.44 586.09,382.37 C586.13,386.03 587.11,394.15 588.00,397.75 C589.04,401.73 591.20,404.44 594.62,407.18" fill="none" stroke="rgb(255, 12, 56)" stroke-width="8.00" stroke-opacity="1.00" stroke-linejoin="miter"/>
<path d="M600.81,404.11 C600.81,404.11 600.82,405.07 600.82,405.07 C600.03,404.80 597.47,399.72 597.22,399.26 C595.35,395.74 591.20,389.29 590.79,389.09 C590.70,389.62 595.83,400.82 596.65,406.47 C596.68,406.69 596.72,407.02 596.76,407.47 C596.76,407.47 589.09,393.07 589.09,393.07 C589.09,393.07 597.22,405.12 597.22,405.12 C597.53,404.99 593.46,392.00 592.89,389.84 C591.64,385.04 592.04,380.80 592.53,379.77 C594.75,380.57 599.32,401.50 600.08,403.25 C600.08,403.25 594.32,368.60 594.32,368.60 C594.33,369.69 597.57,388.33 598.83,395.54 C599.28,397.85 600.46,400.85 600.70,401.08 C600.70,401.08 590.99,367.86 590.99,367.86 C590.29,368.33 590.13,369.76 590.57,372.44 C590.97,374.78 597.35,398.47 597.50,398.87 C597.51,398.89 594.84,391.32 594.51,390.24 C592.11,382.31 592.11,374.70 592.37,373.41 C592.71,373.82 598.15,396.73 598.53,397.87 C599.30,400.09 600.04,400.97 600.47,401.22" fill="none" stroke="rgb(255, 12, 56)" stroke-width="7.00" stroke-opacity="1.00" stroke-linejoin="round"/>
<path d="M606.85,409.57 C606.85,409.57 606.36,408.91 606.36,408.91 C606.91,408.73 611.53,410.25 612.78,410.49 C615.52,410.99 618.35,410.34 618.53,410.28 C614.74,410.28 611.06,409.99 608.47,409.37 C602.58,407.90 599.28,405.96 599.08,405.66 C600.23,404.20 604.73,403.80 608.09,403.67 C614.15,403.51 620.13,404.06 620.77,404.64 C619.07,405.89 610.11,406.43 606.53,405.63 C604.69,405.19 604.23,404.79 603.95,404.27 C605.12,403.50 616.02,398.98 620.66,396.98 C622.96,396.02 625.24,395.61 625.95,396.19 C626.22,397.00 625.41,398.93 624.41,400.15 C623.37,401.41 620.58,403.47 618.93,404.17 C617.14,404.90 614.14,405.38 613.01,405.32 C611.80,405.22 609.69,404.40 609.23,403.45 C608.80,402.44 610.40,400.03 612.54,398.67 C617.09,395.84 628.34,393.10 632.13,393.31 C633.29,393.38 634.97,393.94 635.53,395.24 C635.38,396.15 633.99,397.88 632.62,398.90 C631.12,399.97 627.82,401.39 625.95,401.67 C625.05,401.79 622.68,401.52 621.75,400.96 C620.83,400.38 620.67,398.76 621.52,397.89 C623.23,396.21 633.68,391.91 636.34,391.77 C637.04,391.74 637.59,391.99 638.34,392.54 C638.21,393.71 636.06,395.14 631.83,397.17 C627.01,399.44 623.73,400.09 622.48,399.66 C623.07,398.59 623.76,398.07 625.35,397.81 C634.09,396.44 637.33,397.57 637.42,397.73 C631.91,400.17 616.79,401.96 615.21,401.95 C617.50,400.97 629.96,398.75 633.81,398.59 C636.20,398.51 639.66,398.91 641.86,399.61 C641.07,400.28 625.43,402.13 622.63,402.65 C614.65,404.18 613.35,405.39 613.01,405.79 C613.86,406.59 617.20,406.65 619.43,406.34 C622.98,405.82 640.45,400.68 643.24,400.39 C645.90,400.13 646.66,400.45 647.22,400.85 C645.33,402.42 636.78,404.89 625.93,406.97 C622.05,407.72 619.03,408.44 618.19,408.67 C618.19,408.67 663.27,401.05 663.27,401.05 C657.67,401.45 643.37,405.90 642.08,406.22 C641.87,406.27 641.59,406.33 641.25,406.39 C647.15,405.62 660.50,401.23 666.03,398.79 C671.45,396.37 692.43,383.95 693.56,383.86 C693.11,384.97 674.45,391.68 674.12,391.81 C669.18,393.70 663.94,397.45 662.94,398.46 C663.38,399.24 663.86,399.44 664.99,399.10 C672.24,397.00 705.45,381.57 707.34,381.53 C707.34,381.53 673.87,397.25 673.87,397.25 C673.87,397.25 721.90,376.77 721.90,376.77 C718.25,377.05 706.06,383.38 702.85,384.98 C702.85,384.98 734.98,372.79 734.98,372.79 C734.98,372.79 718.89,378.91 718.89,378.91 C719.58,378.43 731.83,373.04 735.87,370.84 C738.62,369.31 742.94,366.74 743.84,366.07 C743.84,366.07 741.61,366.70 741.61,366.70 C741.61,366.70 745.75,365.46 745.75,365.46 C745.75,365.43 745.50,363.41 747.02,362.02 C748.07,361.07 748.79,359.91 749.17,359.31 C749.17,359.31 748.33,362.31 748.33,362.31 C747.75,360.75 747.22,356.45 747.57,354.08 C748.03,351.03 750.05,343.79 750.32,342.75 C750.32,342.75 747.29,359.65 747.29,359.65 C747.29,359.65 747.47,346.24 747.47,346.24 C747.47,346.24 747.21,362.02 747.21,362.02 C747.21,362.02 747.85,350.43 747.85,350.43 C747.85,350.43 747.68,358.66 747.68,358.66 C747.68,358.66 750.93,349.33 750.93,349.33 C751.67,350.39 750.05,354.07 748.97,355.41 C748.06,356.50 745.69,357.75 744.58,358.23 C743.80,358.56 742.20,359.18 741.73,359.35" fill="none" stroke="rgb(255, 12, 56)" stroke-width="7.00" stroke-opacity="1.00" stroke-linejoin="round"/>
<path d="M613.18,389.80 C613.18,389.80 612.53,390.46 612.53,390.46 C609.91,386.91 609.48,368.37 609.94,366.21 C611.06,366.45 611.75,367.29 612.42,369.41 C613.90,374.17 615.12,385.95 614.66,389.69 C614.27,392.72 612.96,394.85 612.12,394.91 C611.21,394.92 608.86,392.90 607.55,390.99 C606.15,388.91 603.79,383.61 603.46,381.39 C603.14,378.95 604.39,374.67 605.69,373.07 C606.78,371.79 609.48,370.38 610.53,370.48 C611.63,370.63 613.30,372.57 613.73,374.27 C614.17,376.15 613.90,380.71 613.17,383.59 C612.52,386.05 610.43,391.65 609.45,393.70 C608.53,395.61 607.18,397.37 606.38,397.42 C605.52,396.84 603.96,393.75 603.19,391.06 C602.20,387.44 601.62,380.68 601.83,378.15 C602.23,373.93 605.00,366.99 607.31,364.26 C608.35,363.04 610.24,361.47 611.25,360.95 C612.01,360.57 613.97,360.15 614.94,360.68 C615.99,361.31 617.47,365.39 617.66,368.08 C618.26,378.11 610.88,393.85 609.93,394.77 C609.93,394.77 609.05,393.98 609.05,393.98 C608.68,392.23 609.10,387.66 610.12,384.60 C611.71,379.91 616.14,372.31 619.09,369.00 C621.02,366.88 625.73,363.62 627.64,363.00 C629.12,362.56 631.18,362.45 632.07,362.76 C632.91,363.07 634.37,364.39 634.87,365.23 C635.43,366.24 636.22,369.41 636.14,371.99 C636.04,374.68 634.96,380.35 634.05,382.88 C633.10,385.47 630.58,389.30 629.11,390.30 C627.76,391.18 625.10,391.50 623.87,390.85 C622.53,390.11 620.93,387.59 620.66,386.48 C620.42,385.45 620.51,383.29 620.93,382.04 C621.90,379.31 627.57,373.69 631.14,371.56 C632.86,370.54 637.04,368.64 638.37,368.23 C641.85,367.19 645.16,367.15 646.27,367.50 C647.30,367.85 648.82,369.13 649.31,370.07 C649.77,370.98 650.20,373.34 650.14,374.51 C649.98,377.26 648.64,382.42 647.61,384.76 C646.50,387.20 644.32,389.66 643.25,390.28 C642.16,390.84 639.61,390.88 637.76,389.81 C635.96,388.73 632.74,385.14 631.98,383.28 C631.32,381.60 631.37,379.33 631.62,378.65 C631.93,377.88 633.10,376.55 633.86,376.09 C634.76,375.58 637.44,374.90 639.66,374.99 C642.21,375.11 646.46,376.05 647.45,376.83 C648.50,377.72 649.08,380.37 648.65,382.25 C647.65,386.40 642.89,393.23 641.21,394.21 C640.19,394.79 638.39,394.24 637.72,393.02 C637.09,391.80 636.98,389.01 637.30,387.96 C637.61,386.97 638.86,384.95 639.75,384.04 C640.80,383.01 644.47,380.61 647.11,379.62 C649.81,378.63 655.26,377.76 657.88,377.71 C660.21,377.68 664.20,378.22 665.74,378.77 C667.20,379.32 668.99,380.82 669.20,381.65 C669.39,382.56 667.89,384.63 666.18,385.62 C664.33,386.67 659.32,388.24 656.38,388.56 C650.46,389.17 643.89,388.18 643.53,388.03 C643.91,387.11 647.66,386.29 649.14,386.11 C651.37,385.85 656.15,385.68 657.68,385.88 C663.26,386.65 665.24,388.70 665.72,389.36 C664.77,390.82 657.19,392.07 648.70,392.99 C645.66,393.36 641.94,393.81 641.32,393.55 C643.00,391.94 650.58,390.21 658.89,389.42 C665.49,388.86 669.10,388.90 670.43,389.63 C669.82,390.74 666.01,392.19 663.76,392.54 C658.33,393.34 649.59,391.96 648.38,390.80 C648.72,389.54 649.23,388.77 650.39,387.97 C655.17,384.69 663.62,379.76 666.83,378.17 C670.78,376.21 679.75,372.74 682.89,372.28 C684.80,372.00 688.02,372.49 689.01,373.11 C689.87,373.67 690.40,375.53 689.95,376.42 C689.42,377.38 686.53,379.58 684.33,380.66 C672.04,386.55 665.63,384.83 665.22,384.57 C666.17,383.07 669.91,381.30 671.75,380.57 C684.14,375.79 702.71,370.41 704.80,370.41 C705.01,371.04 703.99,371.86 701.22,373.23 C690.10,378.68 673.50,383.13 671.98,383.04 C672.27,381.74 673.11,380.64 675.12,379.28 C679.14,376.56 690.12,371.17 694.27,369.48 C709.67,363.43 717.84,361.72 718.64,362.17 C718.23,364.69 695.66,375.16 693.89,375.55 C694.11,374.23 697.26,372.03 699.52,370.69 C704.24,367.92 719.31,361.39 724.66,359.81 C728.27,358.78 729.36,358.87 730.51,359.13 C730.37,360.43 727.28,363.00 724.66,364.66 C712.43,372.29 700.17,375.03 699.10,374.84 C698.85,373.79 701.45,371.72 703.55,370.39 C708.16,367.52 722.32,361.24 727.06,359.67 C729.91,358.74 731.79,358.35 732.79,358.69 C732.77,359.78 731.26,361.53 729.89,362.62 C718.24,371.85 709.46,373.08 708.51,373.07 C708.51,373.07 707.90,372.01 707.90,372.01 C708.71,370.66 713.90,366.75 717.68,364.74 C720.68,363.17 728.55,359.95 731.60,359.07 C734.03,358.39 735.53,358.58 736.13,358.83 C736.67,360.35 735.73,362.74 734.57,364.57 C733.22,366.66 730.52,368.93 729.23,369.51 C728.04,370.02 726.01,370.20 725.25,369.63 C724.41,368.95 723.89,366.42 724.65,364.91 C725.50,363.30 729.16,360.47 731.65,359.40 C733.69,358.54 736.98,357.81 737.68,357.79 C738.97,357.79 740.55,358.70 740.48,360.09 C740.36,361.70 737.64,363.97 736.71,363.91 C735.82,363.80 734.41,362.53 733.70,361.13 C732.89,359.50 731.88,355.35 731.86,353.07 C731.87,348.63 735.41,339.71 735.58,339.29 C737.67,342.32 739.12,349.81 738.61,350.72 C737.53,349.92 736.13,340.74 737.23,337.26 C738.47,333.52 740.43,333.05 741.59,333.11 C742.32,333.87 743.45,336.90 743.57,339.17 C743.67,341.75 742.19,346.26 740.41,348.59 C739.55,349.68 738.70,350.14 737.87,350.44 C737.17,349.50 737.40,347.40 737.95,346.06 C738.54,344.65 740.53,341.65 741.65,340.47 C742.54,339.55 744.69,337.98 745.93,338.02 C746.41,339.52 746.00,341.78 745.42,343.25 C744.11,346.46 739.66,352.42 737.31,353.67 C736.15,354.26 734.07,354.58 733.40,354.47 C733.04,354.42 732.10,354.22 730.59,353.88" fill="none" stroke="rgb(255, 12, 56)" stroke-width="16.10" stroke-opacity="1.00" stroke-linejoin="round"/>
<path d="M597.86,371.69 C597.00,367.63 596.05,357.32 596.08,351.75 C596.14,347.09 596.80,338.56 597.49,334.33 C598.26,329.66 600.75,321.38 603.23,316.70 C604.22,314.84 607.52,310.08 608.91,309.06 C608.96,309.43 608.88,309.96 608.58,310.81 C608.51,311.02 608.33,311.50 608.05,312.26" fill="none" stroke="rgb(255, 12, 56)" stroke-width="16.10" stroke-opacity="1.00" stroke-linejoin="round"/>
<path d="M594.20,361.77 C593.97,358.00 595.65,346.57 596.81,341.71 C598.22,335.87 601.89,325.57 604.46,320.64 C607.11,315.60 613.56,307.21 617.46,304.10 C621.78,300.68 624.05,300.70 624.53,300.97 C624.53,300.97 625.05,302.67 625.05,302.67" fill="none" stroke="rgb(255, 12, 56)" stroke-width="16.10" stroke-opacity="1.00" stroke-linejoin="round"/>
<path d="M598.75,361.48 C598.58,357.41 600.14,345.35 601.16,340.40 C602.34,334.71 605.87,323.56 608.36,318.11 C612.27,309.65 619.17,300.83 622.54,297.05 C622.74,296.83 623.01,296.51 623.36,296.09" fill="none" stroke="rgb(255, 12, 56)" stroke-width="16.10" stroke-opacity="1.00" stroke-linejoin="round"/>
<path d="M601.58,322.18 C601.70,319.72 605.93,310.19 609.81,303.60 C613.79,296.91 622.32,286.57 625.88,283.72 C629.06,281.20 631.78,280.16 632.14,280.08 C632.24,280.06 632.43,280.03 632.71,279.99" fill="none" stroke="rgb(255, 12, 56)" stroke-width="16.10" stroke-opacity="1.00" stroke-linejoin="round"/>
<path d="M606.25,313.85 C608.71,308.69 614.09,299.56 618.18,294.35 C623.04,288.34 630.91,279.42 634.48,276.60 C639.37,272.81 643.15,272.20 643.67,272.28" fill="none" stroke="rgb(255, 12, 56)" stroke-width="16.10" stroke-opacity="1.00" stroke-linejoin="round"/>
<path d="M619.62,291.73 C619.56,290.60 620.10,288.96 621.26,287.36 C624.04,283.59 634.26,275.67 640.49,272.71 C646.27,270.01 650.13,269.26 650.85,269.24 C650.40,269.87 649.98,270.34 649.60,270.66 C649.22,270.97 648.34,271.57 646.96,272.46" fill="none" stroke="rgb(255, 12, 56)" stroke-width="16.10" stroke-opacity="1.00" stroke-linejoin="round"/>
<path d="M640.33,276.55 C640.33,276.55 621.85,286.83 621.85,286.83 C621.67,285.59 621.80,284.90 622.52,284.04 C625.63,280.37 634.47,273.50 640.24,270.74 C645.82,268.10 650.34,267.52 651.38,268.19 C650.35,271.70 635.63,275.79 634.63,275.69 C634.63,275.69 634.14,274.82 634.14,274.82 C634.53,273.92 636.44,272.27 638.16,271.40 C641.69,269.67 648.98,268.21 656.02,267.42 C662.72,266.71 665.04,267.06 666.16,267.31 C665.72,268.59 664.84,269.46 663.04,270.32 C661.02,271.23 660.43,271.29 659.46,271.20 C659.68,269.93 661.53,268.57 662.90,268.01 C666.01,266.77 676.12,266.36 680.24,267.16 C681.27,267.37 683.70,268.34 684.37,269.18 C685.06,270.11 684.96,272.66 684.17,273.87 C683.36,275.04 680.45,276.84 678.53,277.54 C676.52,278.24 673.29,278.56 672.08,278.44 C670.87,278.29 668.89,277.43 668.26,276.43 C667.67,275.42 667.98,273.24 668.87,272.12 C669.71,271.11 672.45,269.46 673.96,269.05 C675.59,268.64 678.56,268.85 679.67,269.46 C680.66,270.05 681.46,271.95 681.11,273.08 C680.23,275.61 673.56,281.06 664.08,287.56 C657.15,292.25 649.99,297.58 647.10,300.09 C639.92,306.34 631.35,317.27 629.98,319.09 C629.77,319.37 629.32,319.93 628.64,320.79" fill="none" stroke="rgb(255, 12, 56)" stroke-width="16.10" stroke-opacity="1.00" stroke-linejoin="round"/>
<path d="M647.58,283.69 C647.03,283.62 644.33,285.14 642.49,286.87 C638.57,290.61 631.81,301.16 629.86,305.31 C627.92,309.45 623.72,320.98 620.91,329.99 C616.63,344.94 614.09,359.05 614.05,359.26 C613.05,357.45 614.37,345.16 615.77,339.46 C617.02,334.43 621.19,322.65 624.19,315.92 C628.92,306.09 634.25,294.87 634.16,294.29 C632.61,294.51 626.86,302.31 624.13,307.20 C621.78,311.45 617.08,321.70 614.70,327.70 C611.77,335.23 607.93,347.02 607.05,351.50 C606.55,354.13 606.35,357.61 606.47,358.64 C607.64,357.28 608.32,354.31 609.57,349.32 C611.08,343.47 615.47,330.61 618.68,323.52 C621.02,318.38 627.23,307.50 630.81,302.39 C638.40,291.62 651.31,280.23 653.08,279.31 C653.82,280.58 634.47,308.06 631.36,312.97 C631.35,312.98 639.47,300.92 643.45,296.24 C645.93,293.33 653.22,285.61 658.63,280.63 C657.72,283.66 638.48,309.16 633.69,317.09 C630.59,322.25 625.71,332.15 623.99,336.67 C621.88,342.27 620.54,349.64 620.65,351.35 C621.28,350.63 637.66,315.06 642.83,305.80 C652.12,289.62 657.69,282.22 659.12,280.37 C657.01,283.46 647.32,298.60 643.13,305.26 C638.44,313.08 631.90,325.49 629.85,330.16 C627.06,336.55 623.90,346.78 623.09,351.07 C621.96,357.25 622.36,361.48 622.92,361.93 C623.93,361.53 625.49,358.09 626.89,353.74 C629.74,344.96 634.37,332.03 636.83,326.48 C640.32,318.69 647.11,307.09 650.83,301.94 C656.53,294.08 664.95,285.79 665.57,285.40 C655.72,299.62 646.41,315.82 640.02,328.94 C634.87,340.30 631.51,350.92 631.54,352.93 C631.54,352.93 632.36,353.91 632.36,353.91 C633.71,353.33 639.01,340.54 641.65,334.09 C644.02,328.54 651.28,314.03 654.92,307.88 C661.77,296.55 672.14,284.33 673.66,282.67 C672.38,283.90 665.28,292.53 661.85,297.36 C657.46,303.68 651.08,314.40 648.05,320.62 C645.00,326.94 639.84,340.19 637.52,347.86 C635.99,352.97 633.27,365.68 633.07,370.19 C632.97,372.53 633.24,375.29 633.55,376.24 C634.46,375.41 635.19,372.91 635.85,369.84 C637.08,363.67 640.21,348.93 641.22,345.31 C642.78,339.71 647.45,327.19 649.93,322.14 C652.52,316.92 659.40,305.71 664.34,299.30 C672.02,289.37 680.03,282.50 680.30,282.28 C679.86,282.83 672.42,291.62 667.70,298.01 C663.43,304.01 655.50,316.96 652.10,323.84 C648.81,330.54 644.36,342.83 643.06,347.80 C639.25,362.96 639.64,373.67 640.23,374.98 C641.15,374.69 641.71,374.14 642.10,372.70 C642.82,370.06 646.63,351.24 648.53,344.59 C649.93,339.72 653.78,329.54 656.34,323.97 C659.01,318.31 666.01,306.62 670.77,299.83 C674.58,294.55 680.47,287.46 681.96,286.83 C681.43,288.45 674.00,300.76 670.31,307.10 C666.82,313.44 659.31,328.68 656.83,334.42 C653.97,341.23 649.86,353.53 648.73,358.57 C647.45,364.32 646.91,373.52 647.73,375.72 C648.80,375.10 649.69,372.53 650.10,370.99 C652.06,363.32 655.78,349.99 658.31,342.89 C660.77,336.13 666.48,323.67 670.27,316.73 C677.52,303.63 684.13,297.13 684.82,296.73 C684.65,297.30 676.41,308.86 672.58,315.23 C669.35,320.64 663.05,333.24 660.37,339.95 C657.94,346.07 653.96,358.76 652.77,364.20 C651.46,370.22 651.04,377.27 651.58,378.99 C653.01,378.14 654.65,373.95 655.94,370.15 C658.27,363.16 662.79,349.94 666.01,342.75 C668.98,336.13 676.03,323.82 680.66,317.05 C689.73,304.09 693.35,302.33 694.05,302.07 C694.50,303.22 686.30,315.18 682.58,320.60 C678.29,327.27 672.14,338.00 669.69,343.03 C666.86,348.86 662.58,360.33 661.18,365.52 C659.46,372.03 659.28,377.64 659.73,378.76 C661.15,378.38 662.83,374.46 663.57,372.38 C663.95,371.33 670.15,353.12 672.81,347.04 C675.34,341.35 680.01,332.43 683.05,327.63 C690.03,316.64 701.46,304.45 703.23,303.28 C702.74,303.96 693.69,314.45 690.62,318.71 C686.75,324.09 679.94,336.05 677.09,342.45 C674.53,348.25 671.00,359.48 670.15,363.80 C668.93,370.16 669.56,371.54 669.95,372.01 C671.48,371.49 677.11,358.11 679.74,351.68 C682.35,345.59 689.80,332.01 694.19,325.78 C704.81,310.81 709.81,308.26 710.34,308.10 C710.18,309.37 693.46,336.21 689.78,344.25 C686.05,352.47 682.81,361.68 682.49,363.32 C683.23,363.04 684.75,360.31 686.15,357.06 C686.42,356.43 693.02,340.49 695.23,336.38 C700.84,326.01 705.82,321.51 706.32,321.10 C706.75,321.87 706.58,322.75 705.47,324.67 C703.31,328.39 694.15,346.77 692.34,351.75 C690.66,356.44 688.91,362.70 689.05,363.31 C689.93,362.92 691.06,361.04 691.88,359.36 C692.06,358.98 699.77,342.48 702.60,337.43 C707.77,328.27 715.60,318.73 716.58,317.91 C713.60,322.44 709.74,329.31 707.11,335.22 C702.00,346.81 699.26,358.33 699.57,359.31 C700.99,358.23 703.20,353.21 705.51,347.09 C709.21,337.56 717.62,323.65 719.88,321.30 C719.76,322.19 715.55,332.68 713.25,338.84 C710.61,346.13 707.59,357.66 707.74,359.71 C709.00,359.50 709.30,358.70 711.14,354.49 C718.58,337.39 722.92,330.35 723.09,330.19 C718.31,338.62 714.45,352.98 714.49,354.53 C715.80,353.86 718.24,348.31 718.37,348.00 C719.24,345.82 723.94,332.08 725.47,328.39 C720.78,337.98 718.66,351.43 718.72,351.54 C718.72,351.54 727.21,330.70 727.21,330.70 C725.10,336.20 725.61,338.17 725.88,338.98 C727.09,338.58 727.73,338.15 728.10,337.36 C728.67,336.12 728.75,333.18 728.22,331.00 C727.84,329.51 725.81,324.55 725.59,323.68 C726.18,324.04 728.60,327.08 729.84,328.68 C730.86,329.91 733.52,331.42 733.58,331.51 C733.58,331.51 729.40,318.47 729.40,318.47 C731.33,319.44 735.74,329.23 736.38,330.07 C736.38,330.07 731.99,319.29 731.99,319.29 C731.99,319.29 736.55,327.37 736.55,327.37 C735.33,326.21 733.98,323.57 731.57,318.22 C730.40,315.72 728.42,313.22 726.11,311.18 C724.15,309.45 721.47,303.14 720.30,301.04 C721.71,304.02 726.47,315.91 728.24,317.65 C728.35,317.75 728.55,317.92 728.84,318.15 C728.84,318.15 715.85,293.22 715.85,293.22 C715.85,293.22 723.56,308.38 723.56,308.38 C722.22,306.57 702.54,290.06 699.81,288.91 C697.73,288.06 695.32,287.85 694.58,287.86 C694.51,289.09 694.74,290.18 695.40,290.97 C696.47,292.21 702.38,294.72 702.65,294.91 C704.10,295.95 704.36,296.87 704.34,297.39 C701.69,297.56 697.87,295.99 695.77,295.12 C690.44,292.81 681.62,286.97 678.48,283.35 C677.37,282.06 675.49,279.34 674.92,278.36 C676.06,278.52 681.95,280.17 684.44,280.41 C685.40,280.50 700.15,280.52 702.08,281.39 C703.44,282.04 704.59,283.76 704.45,284.80 C704.27,285.86 702.52,288.40 701.31,289.34 C700.00,290.31 696.86,291.24 695.40,290.96 C693.85,290.62 690.74,288.28 689.40,286.51 C687.03,283.34 685.14,277.16 685.53,276.03 C686.80,275.43 688.87,276.09 692.47,277.69 C707.06,284.21 708.93,286.83 709.47,287.87 C708.78,289.08 706.18,289.93 704.90,289.99 C703.08,290.05 699.02,288.93 697.27,287.81 C695.40,286.58 693.38,283.89 692.87,282.62 C692.45,281.41 692.46,278.95 693.40,277.94 C694.33,277.01 697.07,276.64 698.55,277.35 C701.14,278.63 710.38,290.80 711.34,291.64 C708.76,292.32 701.48,291.21 695.11,289.20 C692.93,288.56 689.80,288.45 688.34,289.19 C686.91,289.96 683.32,294.06 681.27,297.34 C679.73,299.83 677.05,305.56 675.75,308.79 C675.50,309.40 675.25,310.02 675.00,310.63" fill="none" stroke="rgb(255, 12, 56)" stroke-width="16.10" stroke-opacity="1.00" stroke-linejoin="round"/>
<path d="M629.17,302.41 C629.17,302.41 633.21,293.57 633.21,293.57" fill="none" stroke="rgb(33, 2, 7)" stroke-width="7.00" stroke-opacity="1.00" stroke-linejoin="miter"/>
<path d="M676.62,327.37 C676.62,327.37 680.39,320.76 680.39,320.76" fill="none" stroke="rgb(33, 2, 7)" stroke-width="7.00" stroke-opacity="1.00" stroke-linejoin="miter"/>
<path d="M615.87,347.53 C615.87,347.53 620.03,339.17 620.03,339.17" fill="none" stroke="rgb(33, 2, 7)" stroke-width="7.00" stroke-opacity="1.00" stroke-linejoin="miter"/>
<path d="M667.75,377.08 C667.75,377.08 672.65,370.03 672.65,370.03" fill="none" stroke="rgb(33, 2, 7)" stroke-width="7.00" stroke-opacity="1.00" stroke-linejoin="miter"/>
<path d="M715.27,369.18 C715.27,369.18 719.93,363.74 719.93,363.74" fill="none" stroke="rgb(33, 2, 7)" stroke-width="7.00" stroke-opacity="1.00" stroke-linejoin="miter"/>
<path d="M653.92,249.05 C654.23,246.59 654.57,242.84 654.48,241.26 C654.43,240.16 653.06,232.04 653.40,227.92 C653.79,223.73 654.85,217.87 656.86,214.60 C657.98,212.89 659.79,211.18 660.83,211.28 C661.52,211.37 666.77,214.94 667.32,215.40 C668.26,216.22 672.85,221.35 674.45,222.81 C675.59,224.10 678.82,229.29 680.31,231.63 C680.99,232.87 680.80,234.50 679.76,236.00 C678.81,237.27 677.23,239.41 676.12,241.27 C674.45,244.08 674.73,247.91 674.48,248.12 C673.22,249.14 670.39,249.72 667.90,249.52 C665.77,249.34 663.33,249.46 661.89,249.82 C660.32,250.19 657.97,249.35 656.59,247.93 C655.78,247.03 657.14,246.19 659.77,245.54 C662.50,244.90 665.61,245.60 666.81,245.59 C667.38,245.59 668.33,245.34 669.66,244.83 C669.94,243.17 670.00,242.19 669.84,241.89 C669.62,241.50 658.59,242.64 657.00,241.63 C656.15,241.06 656.65,238.31 657.59,237.86 C658.91,237.28 671.90,238.90 672.46,238.78 C673.03,238.63 676.89,235.31 676.95,234.84 C677.02,233.63 676.46,232.93 675.26,232.72 C675.01,232.69 670.57,235.23 668.61,235.79 C667.36,236.16 662.97,236.05 661.78,235.99 C659.57,235.85 656.78,234.73 657.04,233.99 C657.19,233.63 671.76,231.17 672.34,230.53 C673.18,229.56 673.24,228.69 672.52,227.91 C671.62,227.02 661.06,230.21 660.10,230.44 C658.46,230.81 655.12,230.83 655.02,230.35 C654.96,229.83 658.07,227.50 659.63,226.87 C659.94,226.74 670.42,224.67 670.96,223.27 C671.22,222.44 669.29,220.22 668.06,219.95 C666.30,219.62 656.20,223.92 655.92,223.52 C655.75,223.22 658.22,219.99 658.86,219.20 C659.50,218.43 661.43,218.16 662.21,217.90" fill="none" stroke="rgb(82, 150, 67)" stroke-width="8.00" stroke-opacity="1.00" stroke-linejoin="miter"/>
<path d="M662.21,217.90 C662.21,217.90 660.90,222.91 660.90,222.91" fill="none" stroke="rgb(82, 150, 67)" stroke-width="8.00" stroke-opacity="1.00" stroke-linejoin="miter"/>
<path d="M684.47,252.11 C686.75,248.62 689.23,243.40 689.60,242.78 C689.94,242.23 705.42,223.62 706.29,223.77 C708.72,224.34 712.20,239.15 714.16,245.76 C715.11,249.10 715.12,251.31 714.67,256.47 C714.42,259.19 713.77,265.03 713.57,265.04 C713.46,265.05 703.71,260.61 701.38,259.96 C700.52,259.72 696.69,258.86 694.91,258.31 C692.53,257.55 691.09,256.33 692.02,255.73 C693.78,254.71 704.87,256.06 706.19,256.15 C707.84,256.25 709.60,255.65 709.48,254.94 C709.20,253.91 706.45,252.40 704.03,251.93 C701.62,251.50 690.89,252.18 689.32,252.10 C688.18,252.02 687.62,251.33 688.40,250.75 C689.62,249.89 697.31,246.75 702.84,245.31 C704.27,244.92 704.84,243.13 704.63,240.83 C704.56,240.28 704.38,239.24 704.07,237.70" fill="none" stroke="rgb(82, 150, 67)" stroke-width="13.00" stroke-opacity="1.00" stroke-linejoin="miter"/>
<path d="M729.88,279.15 C734.99,284.96 743.48,294.16 746.14,299.47 C747.60,302.40 750.16,308.50 751.19,310.97 C754.13,309.67 762.25,305.99 763.51,305.10 C764.61,304.31 769.64,298.48 773.65,295.46 C775.46,294.11 779.19,292.55 780.44,292.00 C782.01,291.31 782.26,290.35 781.21,289.45 C778.72,287.50 773.46,286.31 769.04,286.34 C764.86,286.39 758.06,285.27 754.11,283.89 C752.46,283.30 750.20,282.23 750.34,282.03 C751.59,280.87 766.36,283.80 766.41,283.51 C766.41,282.85 764.22,280.64 762.69,279.85 C761.20,279.09 753.67,278.58 751.04,278.71 C738.57,279.57 736.28,279.89 736.51,280.19 C736.84,280.54 740.94,281.51 743.25,282.05 C745.68,282.72 748.07,284.87 748.50,286.84 C748.74,288.13 748.70,292.27 749.53,294.79 C749.93,295.97 751.75,300.20 752.29,300.47 C753.40,300.94 756.61,300.33 758.83,299.37 C762.10,297.89 765.25,296.25 766.26,295.42 C767.26,294.56 766.81,293.14 765.40,292.73 C763.59,292.24 755.06,291.65 753.53,291.54" fill="none" stroke="rgb(82, 150, 67)" stroke-width="13.00" stroke-opacity="1.00" stroke-linejoin="miter"/>
<path d="M753.53,291.54 C753.53,291.54 761.18,319.46 761.18,319.46" fill="none" stroke="rgb(82, 150, 67)" stroke-width="13.00" stroke-opacity="1.00" stroke-linejoin="miter"/>
<path d="M753.82,319.91 C754.96,322.82 759.90,336.31 760.37,336.55 C760.78,336.76 777.50,333.39 785.15,330.91 C787.48,330.16 788.74,328.75 788.40,327.20 C787.78,324.85 777.14,313.96 774.82,311.19 C773.67,310.08 772.08,310.70 771.13,312.43 C770.25,314.19 768.41,317.82 767.73,318.43 C767.01,319.10 764.57,319.68 764.31,320.07 C763.32,321.60 763.36,325.89 764.61,326.90 C765.42,327.51 768.72,327.01 772.49,326.14 C775.31,325.45 776.00,324.81 775.85,323.57" fill="none" stroke="rgb(82, 150, 67)" stroke-width="13.00" stroke-opacity="1.00" stroke-linejoin="miter"/>
<path d="M775.85,323.57 C775.85,323.57 757.59,305.91 757.59,305.91" fill="none" stroke="rgb(82, 150, 67)" stroke-width="13.00" stroke-opacity="1.00" stroke-linejoin="miter"/>
<path d="M735.31,292.70 C735.31,292.70 753.75,290.73 753.75,290.73" fill="none" stroke="rgb(135, 6, 4)" stroke-width="7.00" stroke-opacity="1.00" stroke-linejoin="miter"/>
<path d="M751.28,323.47 C751.28,323.47 771.37,323.60 771.37,323.60" fill="none" stroke="rgb(135, 6, 4)" stroke-width="7.00" stroke-opacity="1.00" stroke-linejoin="miter"/>
<path d="M696.21,258.65 C696.21,258.65 700.16,244.58 700.16,244.58" fill="none" stroke="rgb(135, 6, 4)" stroke-width="7.00" stroke-opacity="1.00" stroke-linejoin="miter"/>
<path d="M671.25,250.23 C671.25,250.23 665.76,234.29 665.76,234.29" fill="none" stroke="rgb(135, 6, 4)" stroke-width="7.00" stroke-opacity="1.00" stroke-linejoin="miter"/>
<path d="M700.81,395.80 C700.81,395.80 707.59,388.45 707.59,388.45" fill="none" stroke="rgb(33, 2, 7)" stroke-width="7.00" stroke-opacity="1.00" stroke-linejoin="miter"/>
<path d="M623.19,389.01 C623.19,389.01 629.54,381.76 629.54,381.76" fill="none" stroke="rgb(33, 2, 7)" stroke-width="7.00" stroke-opacity="1.00" stroke-linejoin="miter"/>
<path d="M649.35,413.47 C649.35,413.47 655.63,408.58 655.63,408.58" fill="none" stroke="rgb(33, 2, 7)" stroke-width="7.00" stroke-opacity="1.00" stroke-linejoin="miter"/>
<path d="M625.56,282.70 C625.56,282.70 628.46,279.75 628.46,279.75" fill="none" stroke="rgb(255, 255, 255)" stroke-width="7.00" stroke-opacity="1.00" stroke-linejoin="miter"/>
<path d="M636.32,275.06 Q639.92,268.40 647.73,266.35" fill="none" stroke="rgb(255, 255, 255)" stroke-width="7.00" stroke-opacity="1.00" stroke-linejoin="miter"/>
<path d="M585.85,396.05 C584.51,392.18 582.36,386.26 581.95,382.58 C581.29,376.25 582.35,362.40 583.80,351.24 C585.46,340.37 588.07,327.84 590.55,320.58 C593.07,313.29 598.47,301.45 602.37,294.42 C605.98,287.96 614.11,276.58 620.14,270.08 C623.14,266.86 628.76,261.40 631.42,259.21 C634.69,256.57 641.01,252.89 644.42,252.35 C648.34,251.76 668.82,252.76 673.25,253.76 C682.43,255.88 707.25,268.14 711.43,270.90 C717.22,274.78 728.23,286.82 731.98,291.95 C736.12,297.65 741.17,306.83 745.54,316.40 C748.78,323.89 754.57,338.41 755.92,345.25 C756.68,349.25 757.22,354.63 757.27,358.92 C757.28,363.03 756.20,370.05 754.94,373.63 C753.57,377.40 750.24,384.42 748.23,387.59 C746.20,390.72 741.37,395.78 738.51,397.96 C732.86,402.22 718.23,410.28 712.61,412.85 C706.31,415.71 689.88,421.39 682.12,423.53 C673.29,425.87 661.58,427.56 654.07,427.73 C650.17,427.81 630.88,427.12 624.13,426.52 C620.46,426.16 614.51,424.84 611.08,423.53 C607.67,422.20 600.00,418.36 598.25,417.16 C595.12,414.95 591.55,409.97 590.24,407.27 C588.00,402.47 586.88,399.13 585.85,396.05 Z" fill="none" stroke="rgb(135, 6, 4)" stroke-width="8.00" stroke-opacity="1.00" stroke-linejoin="miter"/>
<path d="M649.32,251.43 C648.19,242.25 648.20,230.10 649.68,223.99 C651.26,217.66 656.92,207.15 658.20,204.77 C662.79,206.32 666.57,208.04 669.13,210.27 C672.25,213.06 682.52,225.74 686.58,230.84" fill="none" stroke="rgb(135, 6, 4)" stroke-width="8.00" stroke-opacity="1.00" stroke-linejoin="miter"/>
<path d="M677.32,252.68 C679.18,247.31 680.76,243.12 682.25,240.19 C685.03,234.82 694.36,224.60 699.31,220.62 C702.09,218.41 707.41,215.04 709.49,213.74 C710.93,216.36 714.54,223.02 715.96,226.68 C718.10,232.29 721.00,248.50 720.91,255.83 C720.81,261.44 718.94,271.62 718.74,272.69" fill="none" stroke="rgb(135, 6, 4)" stroke-width="8.00" stroke-opacity="1.00" stroke-linejoin="miter"/>
<path d="M721.24,276.09 C721.24,276.09 746.81,242.19 746.81,242.19" fill="none" stroke="rgb(135, 6, 4)" stroke-width="8.00" stroke-opacity="1.00" stroke-linejoin="miter"/>
<path d="M720.94,277.58 C731.15,273.90 741.16,271.27 748.39,271.11 C751.86,271.06 758.59,271.82 761.92,272.64 C772.71,275.36 789.92,285.58 792.00,286.82" fill="none" stroke="rgb(135, 6, 4)" stroke-width="8.00" stroke-opacity="1.00" stroke-linejoin="miter"/>
<path d="M792.46,286.88 C786.04,292.94 774.61,302.52 771.18,305.05 C765.90,308.93 753.47,316.75 749.43,319.27" fill="none" stroke="rgb(135, 6, 4)" stroke-width="8.00" stroke-opacity="1.00" stroke-linejoin="miter"/>
<path d="M775.54,302.90 C780.15,306.35 783.99,309.48 786.55,312.21 C791.27,317.28 795.48,323.66 798.04,327.81 C794.72,331.20 791.43,334.06 787.86,336.07 C784.39,337.98 777.09,341.04 773.33,342.15 C770.20,343.06 762.31,344.50 758.23,343.82 C757.58,343.71 756.69,343.47 755.55,343.08" fill="none" stroke="rgb(135, 6, 4)" stroke-width="8.00" stroke-opacity="1.00" stroke-linejoin="miter"/>
<path d="M624.03,283.51 Q624.03,283.51 628.26,279.27" fill="none" stroke="rgb(255, 12, 56)" stroke-width="7.00" stroke-opacity="1.00" stroke-linejoin="miter"/>
<path d="M628.26,282.94 Q628.68,281.39 628.68,280.40 Q628.68,279.41 628.47,278.57 Q628.26,277.72 626.78,279.56 Q625.30,281.39 624.94,283.30 Q624.59,285.20 625.79,284.99 Q626.99,284.78 630.02,284.99 Q633.06,285.20 637.43,285.62" fill="none" stroke="rgb(255, 12, 56)" stroke-width="7.00" stroke-opacity="1.00" stroke-linejoin="miter"/>
<path d="M637.43,285.62 Q637.43,285.62 645.62,285.20" fill="none" stroke="rgb(255, 12, 56)" stroke-width="7.00" stroke-opacity="1.00" stroke-linejoin="miter"/>
</g>
</svg>
