<?xml version="1.0" encoding="UTF-8" standalone="no"?>
<!DOCTYPE svg PUBLIC "-//W3C//DTD SVG 1.1//EN" "http://www.w3.org/Graphics/SVG/1.1/DTD/svg11.dtd">
<svg width="1920.00" height="1080.00" viewBox="0.00 0.00 1920.00 1080.00" xmlns="http://www.w3.org/2000/svg" xmlns:xlink="http://www.w3.org/1999/xlink">
<g stroke-linecap="round" id="Capa_27">
<path d="M1159.38,255.12 C1148.44,256.41 1119.38,267.13 1116.40,268.62 C1112.88,270.41 1107.42,274.40 1104.95,277.13 C1103.90,278.30 1098.87,284.80 1096.12,287.75 C1093.06,291.02 1087.24,296.00 1085.95,297.41 C1083.59,300.03 1079.51,306.64 1077.88,309.96 C1076.06,313.74 1073.60,321.35 1073.06,325.35 C1072.37,330.80 1073.34,350.04 1075.07,356.56 C1076.77,362.81 1084.83,377.25 1089.57,384.19 C1091.73,387.31 1096.41,392.53 1099.08,394.68 C1103.62,398.30 1121.60,409.64 1125.57,411.72 C1129.60,413.81 1136.15,416.47 1140.15,417.58 C1145.82,419.10 1161.59,420.81 1170.27,420.87 C1178.12,420.79 1191.91,420.28 1199.94,419.17 C1203.79,418.62 1210.36,416.93 1213.62,415.62 C1219.14,413.39 1233.47,404.39 1238.25,400.62 C1243.91,396.13 1254.17,385.21 1257.78,379.59 C1261.74,373.37 1268.54,359.19 1270.18,352.85 C1271.04,349.42 1271.97,342.29 1272.00,338.75 C1272.01,336.14 1271.26,327.28 1270.74,324.20 C1270.07,320.40 1267.56,313.08 1265.76,309.89 C1263.09,305.22 1254.48,294.67 1248.95,287.16 C1247.67,285.38 1243.81,279.27 1241.18,277.12 C1236.71,273.53 1225.17,268.21 1212.34,262.93 C1206.26,260.43 1203.81,259.47 1198.28,257.46 C1190.09,254.58 1164.16,254.58 1159.38,255.12 Z" fill="none" stroke="rgb(244, 67, 54)" stroke-width="16.00" stroke-opacity="1.00" stroke-linejoin="miter"/>
<path d="M1127.83,275.60 C1117.88,282.58 1109.24,289.22 1104.01,295.31 C1102.20,297.43 1088.76,315.52 1086.90,319.02 C1085.25,322.21 1084.12,328.92 1084.11,333.12 C1084.13,336.59 1084.90,344.57 1085.60,348.37 C1086.43,352.74 1088.31,358.98 1090.01,362.96 C1091.57,366.57 1095.27,373.23 1097.54,376.28 C1100.08,379.65 1104.95,384.53 1108.39,387.26 C1113.78,391.47 1129.61,400.47 1135.51,402.65 C1141.73,404.92 1156.81,407.51 1165.30,408.21 C1176.97,408.99 1189.93,409.11 1196.52,408.06 C1200.50,407.41 1207.86,405.53 1211.26,404.30 C1214.62,403.05 1221.10,399.82 1224.04,397.80 C1227.05,395.70 1232.32,391.10 1234.95,388.32 C1237.30,385.82 1241.84,380.08 1243.84,376.72 C1248.77,368.35 1259.92,339.50 1260.67,335.02 C1261.09,332.36 1261.10,324.94 1260.49,322.16 C1259.72,318.84 1256.82,312.99 1254.53,309.65 C1250.39,303.71 1239.21,292.30 1233.23,288.46 C1231.14,287.13 1216.45,278.91 1208.71,273.69 C1205.57,271.59 1199.39,269.08 1195.31,268.23 C1187.33,266.64 1174.12,266.22 1164.17,266.31 C1160.32,266.36 1150.38,266.99 1149.57,267.08 C1145.59,267.57 1138.71,271.11 1135.86,273.56 C1130.94,277.88 1119.67,291.55 1115.43,295.98 C1111.05,300.43 1106.98,304.39 1104.37,306.51 C1100.15,309.82 1096.87,313.15 1095.31,316.27 C1093.88,319.23 1092.77,326.09 1092.83,329.79 C1092.92,333.15 1094.23,342.18 1094.96,345.73 C1095.91,350.32 1098.00,356.85 1099.88,360.50 C1101.46,363.48 1106.46,369.91 1108.70,372.07 C1112.52,375.70 1127.95,385.50 1132.36,387.68 C1141.35,392.03 1152.02,395.48 1161.28,396.92 C1169.15,398.05 1184.80,399.12 1192.09,398.57 C1195.89,398.25 1203.91,396.35 1207.44,394.81 C1210.23,393.56 1216.94,389.36 1219.76,387.30 C1222.58,385.20 1227.93,379.97 1230.21,377.19 C1232.44,374.45 1237.00,367.50 1238.30,364.90 C1241.09,359.24 1246.10,341.46 1246.82,334.65 C1247.23,330.57 1247.61,321.86 1247.06,318.75 C1246.32,314.90 1243.19,309.28 1240.45,306.55 C1235.67,301.93 1205.04,284.27 1201.20,282.71 C1194.36,279.97 1178.08,277.33 1169.90,277.09 C1165.92,276.99 1158.13,277.49 1155.66,277.99 C1151.30,278.90 1145.24,281.66 1141.67,284.28 C1129.51,293.11 1122.84,297.97 1116.54,302.55 C1113.41,304.92 1108.19,310.09 1106.99,311.97 C1105.94,313.69 1104.54,317.22 1104.32,318.91 C1104.13,320.60 1104.96,341.32 1104.97,349.50 C1105.19,353.79 1107.45,360.09 1109.98,362.75 C1112.04,364.84 1119.45,369.50 1122.80,371.06 C1128.77,373.78 1145.39,379.99 1150.31,381.30 C1157.36,383.17 1171.79,385.59 1179.60,386.27 C1185.71,386.73 1192.49,387.06 1196.08,386.85 C1200.37,386.57 1206.91,385.04 1210.26,383.40 C1213.24,381.91 1218.71,377.39 1221.12,374.63 C1225.19,369.91 1231.27,356.70 1233.88,348.52 C1234.99,344.99 1236.44,337.26 1236.85,333.61 C1237.29,329.41 1236.76,322.78 1235.74,319.99 C1234.68,317.22 1230.75,312.04 1227.88,309.62 C1225.18,307.38 1218.73,303.28 1215.17,301.65 C1208.75,298.74 1190.20,292.77 1185.22,291.79 C1181.14,291.01 1175.06,290.47 1171.49,290.72 C1165.86,291.15 1150.00,295.43 1143.20,298.29 C1139.63,299.82 1132.34,303.99 1128.94,306.37 C1125.37,308.88 1119.51,314.05 1118.09,315.89 C1116.94,317.44 1115.40,320.51 1115.08,321.96 C1114.85,323.09 1112.59,342.90 1112.54,343.65 C1112.43,345.65 1112.99,349.57 1113.65,351.07 C1115.10,354.14 1120.49,358.00 1125.64,360.53 C1131.72,363.48 1150.94,369.56 1155.33,370.62 C1164.64,372.80 1177.95,375.36 1186.10,376.11 C1190.19,376.46 1197.66,375.98 1201.27,374.76 C1204.65,373.58 1212.00,368.83 1213.72,367.12 C1215.99,364.77 1217.37,361.48 1219.69,355.00 C1219.81,354.63 1223.49,342.69 1224.03,340.74 C1225.23,336.25 1225.99,329.40 1225.28,326.28 C1224.51,323.21 1220.41,318.47 1217.30,316.23 C1214.50,314.27 1207.49,310.58 1203.98,309.23 C1199.38,307.50 1183.53,303.72 1175.76,300.13 C1171.55,298.16 1159.18,290.72 1156.68,289.26 C1154.36,287.99 1152.30,287.92 1151.56,289.26 C1150.99,290.39 1151.30,309.91 1151.27,309.98 C1150.94,310.91 1148.28,311.96 1146.50,312.38 C1143.31,313.07 1138.97,313.89 1138.46,314.03 C1136.26,314.60 1132.49,316.42 1130.56,317.77 C1127.69,319.86 1123.33,325.88 1121.58,329.86 C1120.00,333.62 1118.57,341.81 1119.47,345.60 C1120.03,347.76 1121.88,349.76 1123.39,349.87 C1125.68,349.92 1132.29,344.98 1135.71,341.59 C1136.77,340.50 1137.01,339.39 1135.85,339.76 C1134.41,340.20 1129.69,342.23 1128.68,341.85 C1127.68,341.44 1127.57,338.36 1128.30,336.26 C1128.99,334.47 1131.21,332.06 1132.78,331.39 C1133.91,330.92 1135.19,330.77 1136.23,330.13 C1137.51,329.32 1139.04,326.17 1139.09,324.45 C1139.10,324.11 1138.71,317.62 1138.99,316.23 C1139.38,314.40 1141.53,311.17 1143.12,309.87 C1146.08,307.55 1155.69,303.71 1157.88,303.60 C1159.54,303.55 1160.81,303.73 1161.70,304.15 C1162.67,304.61 1165.12,307.26 1167.10,308.38 C1167.73,308.74 1208.49,322.64 1210.14,323.66 C1211.50,324.55 1213.14,326.71 1213.46,328.05 C1214.12,331.29 1209.83,351.53 1208.42,354.65 C1207.73,356.14 1205.65,359.35 1204.65,360.42 C1202.47,362.67 1196.82,364.79 1193.14,365.28 C1189.77,365.70 1182.20,365.60 1178.37,365.07 C1173.19,364.32 1135.71,354.65 1135.51,354.31 C1135.29,353.80 1135.54,353.34 1136.27,352.93 C1137.51,352.24 1142.07,350.62 1143.54,349.36 C1144.97,348.10 1146.17,345.58 1146.58,343.22 C1147.26,338.91 1147.81,330.63 1148.09,328.98 C1148.41,327.33 1149.90,324.40 1151.04,323.33 C1151.36,323.04 1155.22,320.59 1156.00,319.82 C1156.96,318.78 1158.83,316.92 1159.59,316.92 C1160.22,316.94 1166.62,320.77 1170.88,322.36 C1177.89,324.92 1197.98,328.69 1200.00,329.46 C1201.39,330.05 1202.99,332.23 1202.91,333.82 C1202.88,334.20 1199.23,349.28 1199.05,349.66 C1198.34,351.10 1195.56,353.04 1193.77,353.55 C1190.30,354.44 1181.54,354.87 1177.69,354.48 C1173.81,354.07 1165.72,351.96 1162.13,350.49 C1160.45,349.77 1157.84,347.96 1157.16,346.92 C1156.45,345.77 1156.73,335.91 1157.36,333.86 C1157.86,332.40 1159.67,331.38 1160.84,331.76 C1161.60,332.02 1165.58,334.28 1166.50,334.67 C1170.29,336.25 1186.34,337.31 1188.10,338.43 C1189.87,339.65 1191.17,342.81 1190.49,344.55 C1189.89,345.89 1187.11,347.10 1185.13,347.01 C1183.44,346.89 1166.38,343.28 1165.22,343.04" fill="none" stroke="rgb(244, 67, 54)" stroke-width="16.00" stroke-opacity="1.00" stroke-linejoin="miter"/>
<path d="M1104.35,290.88 C1101.06,294.02 1098.13,297.31 1096.80,300.49 C1096.47,301.27 1095.37,304.63 1095.04,305.65" fill="none" stroke="rgb(255, 255, 255)" stroke-width="15.00" stroke-opacity="1.00" stroke-linejoin="miter"/>
<path d="M1172.33,246.45 C1179.02,246.46 1194.69,248.36 1202.08,250.05 C1208.50,251.54 1223.04,257.13 1229.48,260.47 C1236.20,263.98 1248.70,273.20 1254.30,278.67 C1259.81,284.09 1268.56,296.43 1271.90,303.11 C1275.17,309.70 1279.00,323.74 1279.75,330.96 C1280.46,338.10 1279.00,352.45 1277.09,359.52 C1275.17,366.49 1268.56,379.76 1264.17,385.98 C1259.81,392.11 1248.70,402.99 1242.26,407.75 C1236.20,412.21 1223.04,419.07 1216.10,421.75 C1208.50,424.66 1194.69,427.83 1187.30,428.74 C1179.02,429.73 1165.65,429.73 1157.37,428.74 C1149.98,427.83 1136.17,424.66 1128.57,421.75 C1121.63,419.07 1108.47,412.21 1102.41,407.75 C1095.97,402.99 1084.86,392.11 1080.50,385.98 C1076.11,379.76 1069.50,366.49 1067.58,359.52 C1065.67,352.45 1064.21,338.10 1064.92,330.96 C1065.67,323.74 1069.50,309.70 1072.77,303.11 C1076.11,296.43 1084.86,284.09 1090.37,278.67 C1095.97,273.20 1108.47,263.98 1115.19,260.47 C1121.63,257.13 1136.17,251.54 1142.59,250.05 C1149.98,248.36 1165.65,246.46 1172.33,246.45 Z" fill="none" stroke="rgb(135, 6, 4)" stroke-width="7.94" stroke-opacity="1.00" stroke-linejoin="round"/>
<path d="M1156.59,281.93 C1156.30,278.27 1157.04,272.20 1158.86,268.30 C1159.50,266.93 1161.49,262.27 1161.14,261.36 C1160.71,260.51 1151.14,262.84 1147.43,263.84 C1139.27,266.08 1134.85,267.19 1134.55,266.82 C1134.37,266.21 1149.66,258.70 1153.60,256.80 C1156.10,255.59 1157.51,254.57 1157.50,253.86 C1157.39,252.99 1150.34,249.20 1148.69,247.26 C1147.27,245.53 1138.66,229.54 1138.86,229.20 C1139.17,228.96 1146.86,237.39 1150.15,239.14 C1151.95,240.07 1160.15,242.71 1161.38,242.99 C1163.43,243.52 1164.77,244.39 1165.34,245.80 C1165.89,247.21 1166.00,251.41 1166.00,253.58 C1166.05,254.93 1166.54,254.80 1166.89,253.51 C1166.95,253.29 1170.20,241.22 1172.15,236.96 C1172.76,235.63 1175.64,229.99 1175.88,229.42 C1176.27,228.49 1175.46,228.89 1174.40,230.18 C1173.65,231.09 1168.94,237.30 1168.42,237.94 C1167.51,239.05 1167.17,239.05 1167.67,238.09 C1168.40,236.70 1174.96,225.67 1175.34,224.89 C1175.85,223.86 1177.74,219.11 1180.12,215.38 C1182.41,211.85 1185.91,208.51 1189.09,207.24 C1190.68,206.64 1193.08,207.08 1193.30,208.07 C1193.32,208.24 1185.78,214.87 1184.17,217.21 C1183.94,217.54 1178.90,225.53 1178.55,226.29 C1176.54,230.74 1171.60,252.09 1171.93,252.73 C1172.23,253.19 1175.91,250.76 1177.16,250.23 C1178.68,249.58 1186.54,251.14 1190.15,251.50 C1193.68,251.82 1199.77,251.26 1202.46,250.32 C1206.32,248.90 1210.99,244.96 1211.59,243.98 C1211.67,243.83 1202.62,249.14 1200.78,250.06 C1197.15,251.86 1188.71,254.02 1184.62,253.97 C1184.21,253.96 1179.03,253.61 1177.78,253.60 C1176.79,253.61 1176.67,254.01 1177.69,254.38 C1178.35,254.62 1189.93,258.10 1191.52,259.53 C1192.01,260.00 1195.62,265.45 1200.45,271.03 C1202.46,273.37 1203.85,275.17 1203.75,275.34 C1203.45,275.50 1195.86,269.10 1193.74,267.70 C1192.05,266.60 1188.46,264.96 1186.84,264.61 C1185.20,264.26 1177.11,264.62 1173.20,263.98 C1172.02,263.79 1167.89,263.17 1167.39,263.64 C1166.93,264.09 1166.44,269.08 1166.25,269.66 C1165.77,271.11 1160.82,274.97 1159.89,275.68" fill="none" stroke="rgb(82, 150, 67)" stroke-width="8.00" stroke-opacity="1.00" stroke-linejoin="miter"/>
<path d="M1148.41,241.59 C1149.84,242.93 1152.23,244.88 1153.52,245.45 C1154.40,245.85 1159.55,247.11 1160.11,247.50 C1160.98,248.12 1161.04,253.95 1162.39,255.45 C1163.26,256.38 1166.43,258.20 1167.61,258.41 C1168.35,258.53 1171.80,258.06 1172.50,258.18 C1173.31,258.32 1177.65,260.29 1178.18,260.45 C1179.22,260.78 1181.52,260.98 1182.95,261.02" fill="none" stroke="rgb(82, 150, 67)" stroke-width="8.00" stroke-opacity="1.00" stroke-linejoin="miter"/>
<path d="M1129.20,273.13 C1131.66,268.39 1134.30,264.85 1138.08,262.09 C1140.77,260.16 1147.50,256.14 1149.99,254.65 C1148.08,252.58 1143.08,247.06 1141.65,244.78 C1139.69,241.61 1137.12,233.66 1136.46,231.21 C1135.63,227.99 1135.04,223.38 1134.72,218.48 C1137.36,222.73 1140.10,226.43 1143.16,229.10 C1145.64,231.22 1152.36,236.02 1154.79,237.34 C1157.25,238.66 1161.90,240.08 1165.51,240.80" fill="none" stroke="rgb(135, 6, 4)" stroke-width="6.00" stroke-opacity="1.00" stroke-linejoin="miter"/>
<path d="M1165.64,253.88 C1164.57,251.06 1164.45,244.98 1165.34,239.64 C1166.13,235.13 1168.25,228.26 1169.86,225.05 C1171.34,222.17 1175.25,216.22 1177.58,213.29 C1182.21,207.54 1189.08,203.28 1190.01,202.70" fill="none" stroke="rgb(135, 6, 4)" stroke-width="6.00" stroke-opacity="1.00" stroke-linejoin="miter"/>
<path d="M1190.01,201.80 C1190.01,201.80 1198.99,207.57 1198.99,207.57 C1196.95,209.34 1192.31,213.42 1189.74,216.05 C1186.84,219.07 1183.41,224.15 1181.82,227.48 C1180.43,230.44 1178.13,236.61 1177.16,239.97 C1176.00,244.08 1175.31,249.51 1175.52,252.99" fill="none" stroke="rgb(135, 6, 4)" stroke-width="6.00" stroke-opacity="1.00" stroke-linejoin="miter"/>
<path d="M1176.70,245.45 C1178.83,245.98 1182.47,246.35 1188.57,246.61 C1193.61,246.75 1200.62,246.33 1204.23,245.47 C1211.29,243.68 1217.27,237.86 1218.64,236.48 C1217.42,240.91 1214.65,246.71 1212.11,249.43 C1209.68,251.93 1202.67,254.98 1198.86,255.34 C1196.15,255.57 1190.26,254.81 1189.09,254.66 C1191.56,256.24 1197.78,260.30 1200.00,262.39 C1202.36,264.65 1205.46,269.78 1206.48,272.61 C1207.20,274.68 1207.72,276.78 1208.48,280.74 C1208.93,283.13 1208.55,284.65 1207.16,287.05 C1206.75,285.15 1205.63,281.99 1204.55,280.23 C1203.30,278.23 1195.95,271.85 1193.26,270.13 C1189.00,267.49 1176.29,266.29 1173.18,266.02 C1167.87,271.09 1159.07,280.70 1157.00,284.87 C1156.65,285.58 1155.47,288.54 1155.11,289.43 C1153.72,286.19 1152.71,280.02 1153.10,275.82 C1153.51,272.08 1155.29,268.29 1157.50,264.55" fill="none" stroke="rgb(135, 6, 4)" stroke-width="6.00" stroke-opacity="1.00" stroke-linejoin="miter"/>
<path d="M1157.27,265.23 C1152.63,265.66 1148.38,266.15 1144.79,266.93 C1138.40,268.34 1128.83,272.74 1127.61,273.30" fill="none" stroke="rgb(135, 6, 4)" stroke-width="6.00" stroke-opacity="1.00" stroke-linejoin="miter"/>
</g>
</svg>
