<?xml version="1.0" encoding="UTF-8" standalone="no"?>
<!DOCTYPE svg PUBLIC "-//W3C//DTD SVG 1.1//EN" "http://www.w3.org/Graphics/SVG/1.1/DTD/svg11.dtd">
<svg width="1920.00" height="1080.00" viewBox="0.00 0.00 1920.00 1080.00" xmlns="http://www.w3.org/2000/svg" xmlns:xlink="http://www.w3.org/1999/xlink">
<g stroke-linecap="round" id="Capa_21">
<path d="M693.87,771.27 C694.50,766.45 695.17,763.20 695.77,762.95 C696.42,762.67 699.65,763.91 699.71,763.82 C699.89,763.52 696.73,756.31 697.08,756.23 C697.89,756.03 701.27,758.29 701.75,757.84 C702.19,757.42 699.77,747.14 700.00,746.88 C700.26,746.58 702.63,749.78 702.63,749.22 C702.62,749.10 697.94,740.83 698.10,740.16 C698.24,739.60 701.08,738.54 701.02,738.12 C700.75,736.49 693.76,730.85 692.99,730.96 C691.97,731.18 693.24,738.69 692.99,739.00 C692.78,739.25 689.96,737.67 689.63,737.83 C689.19,738.06 688.11,746.03 687.61,751.92 C687.32,755.60 688.15,759.81 687.88,760.17 C687.73,760.26 675.76,742.87 674.30,741.77 C673.46,741.15 670.94,739.53 671.08,739.58 C671.98,739.91 685.49,745.15 685.69,744.40 C685.70,743.69 673.83,734.87 674.15,734.03 C674.71,733.16 688.53,737.36 688.03,737.54 C685.59,737.75 669.24,732.42 668.75,731.40 C668.56,730.77 670.38,729.79 672.61,729.39 C682.62,727.66 692.87,728.63 692.70,728.33 C692.36,727.85 685.05,721.58 683.63,718.77 C683.18,717.90 682.95,716.90 682.37,716.11 C681.71,715.29 679.68,716.05 678.44,717.57 C678.21,717.86 674.48,723.30 673.57,724.25 C672.39,725.42 671.11,725.18 669.48,723.66 C666.28,720.57 660.70,714.46 660.23,712.25 C660.05,711.16 661.61,711.51 663.53,712.80 C666.96,715.15 674.96,720.95 675.61,721.18 C676.33,721.36 667.86,712.94 665.74,709.50 C664.75,707.84 664.91,706.32 665.97,706.66 C668.74,707.65 681.76,719.78 681.89,720.16 C682.09,720.71 682.16,722.32 681.75,721.91 C681.55,721.69 680.25,709.28 679.57,708.53 C679.52,708.49 669.47,702.12 669.19,701.02 C669.00,700.21 669.28,699.40 670.02,698.60 C670.68,697.93 673.32,696.47 674.15,695.33 C674.62,694.69 677.95,689.01 678.09,688.76 C679.48,686.29 680.18,685.45 680.29,686.27 C680.36,687.13 677.82,705.88 677.36,709.20" fill="none" stroke="rgb(82, 150, 67)" stroke-width="10.00" stroke-opacity="1.00" stroke-linejoin="miter"/>
<path d="M677.36,709.20 C678.16,710.85 678.60,711.72 678.68,711.83 C679.08,712.38 676.62,706.81 675.76,706.14" fill="none" stroke="rgb(82, 150, 67)" stroke-width="10.00" stroke-opacity="1.00" stroke-linejoin="miter"/>
<path d="M700.44,781.20 C704.32,779.98 709.23,778.34 711.88,777.13 C714.35,776.04 716.62,775.52 718.84,775.65 C721.21,775.82 731.42,779.41 731.55,778.87 C731.59,778.67 729.66,773.71 729.94,773.17 C730.32,772.51 742.22,776.13 744.98,777.70 C747.04,778.90 748.48,780.38 749.57,782.31 C750.67,784.33 755.63,791.49 757.21,793.07 C759.61,795.39 764.50,797.16 768.81,797.65 C772.15,798.00 778.98,798.58 782.12,798.67 C784.06,798.73 788.50,797.88 790.20,797.78 C791.81,797.69 791.46,798.72 789.84,799.99 C785.69,803.21 778.72,808.03 776.09,809.39 C772.39,811.25 767.44,811.86 764.12,811.44 C761.50,811.07 753.14,808.79 749.51,808.08 C745.61,807.32 735.88,806.18 733.88,805.74 C730.69,805.01 724.10,801.65 721.23,800.10 C715.31,796.88 709.29,793.32 708.91,792.89 C708.08,791.88 708.89,790.35 710.37,789.97 C711.40,789.73 719.20,790.38 722.49,790.70 C726.17,791.15 731.26,791.76 734.82,791.29 C737.06,791.01 743.38,793.09 747.29,794.48 C757.04,797.87 770.83,801.92 770.25,802.23 C770.09,802.30 742.16,799.28 737.15,798.43 C735.15,798.09 731.39,797.20 730.35,797.00 C728.32,796.55 726.30,794.99 726.52,793.54 C726.79,792.18 730.80,788.80 732.72,788.21 C734.92,787.58 743.28,788.91 743.52,788.51 C743.78,787.86 737.39,783.67 736.07,782.81" fill="none" stroke="rgb(82, 150, 67)" stroke-width="15.00" stroke-opacity="1.00" stroke-linejoin="miter"/>
<path d="M736.07,782.81 C736.07,782.81 743.87,792.56 743.87,792.56" fill="none" stroke="rgb(82, 150, 67)" stroke-width="15.00" stroke-opacity="1.00" stroke-linejoin="miter"/>
<path d="M599.75,884.11 C597.06,883.07 593.50,881.38 592.84,880.44 C592.03,879.25 594.06,876.62 596.23,875.36 C597.91,874.44 619.04,871.08 622.90,870.28 C625.48,869.74 634.30,867.62 636.16,868.58 C637.68,869.44 639.48,872.52 639.79,874.72 C639.98,876.52 638.79,878.96 637.41,879.60 C636.46,880.00 632.16,880.57 630.94,880.44 C628.28,880.09 625.86,878.38 626.28,877.05 C626.76,875.79 648.07,862.48 651.97,860.54 C654.74,859.19 658.04,857.92 659.39,857.76 C659.93,857.72 662.76,858.04 663.40,858.42 C664.52,859.14 670.95,866.25 671.02,866.61 C671.19,867.77 670.77,868.81 669.75,869.71 C669.27,870.11 664.72,870.23 663.52,870.26 C661.63,870.23 660.25,869.52 660.49,868.56 C660.74,867.72 669.91,848.93 671.69,842.82 C672.15,841.03 672.12,836.65 671.27,835.21 C670.62,834.09 669.18,833.67 668.27,832.75 C667.32,831.78 668.10,829.68 669.63,828.67 C673.52,826.28 679.20,825.22 680.05,825.83 C680.91,826.50 681.40,827.49 681.51,828.81 C681.64,830.47 681.13,832.13 681.19,833.79 C681.26,835.68 683.04,837.58 684.41,837.47 C685.35,837.35 690.22,835.75 691.09,835.57 C692.75,835.24 696.11,836.06 697.60,837.25 C699.21,838.62 700.80,842.01 700.23,843.04 C699.60,844.07 694.78,845.08 693.32,845.41 C692.17,845.67 691.51,846.01 691.34,846.43 C691.15,847.05 693.18,848.22 696.31,849.50 C700.44,851.14 705.83,852.50 707.32,852.56 C708.75,852.57 710.51,851.11 711.44,849.10 C712.29,847.08 712.17,845.18 710.93,843.77 C706.47,838.82 699.98,826.07 699.38,823.85 C698.80,821.51 698.95,819.34 699.80,817.97 C701.01,816.18 707.33,813.83 709.48,812.51 C710.94,811.66 712.76,811.84 714.07,813.03 C714.99,813.92 715.50,814.75 715.61,815.52 C715.75,816.50 715.21,817.49 715.31,818.48 C715.49,820.09 717.22,821.95 719.03,822.65 C722.39,823.85 731.02,826.39 732.26,827.10 C734.17,828.20 735.89,830.79 736.36,831.47 C737.09,832.52 740.18,834.58 741.72,834.86 C743.38,835.11 748.02,834.15 749.20,833.30 C750.19,832.55 751.02,829.77 750.89,828.51 C750.71,827.29 749.41,825.52 748.35,824.98 C745.77,823.79 728.44,825.70 720.80,826.56 C711.83,827.61 692.27,829.81 690.47,829.89 C690.07,829.90 670.00,829.88 661.06,830.04 C650.02,830.31 639.30,831.89 638.98,832.18 C638.16,832.99 638.00,833.92 638.51,834.97 C639.28,836.51 640.85,837.50 641.85,838.90 C642.58,839.92 642.85,840.88 642.65,841.77 C642.44,842.58 639.49,843.34 637.38,843.37 C635.22,843.34 631.33,842.57 630.09,841.77 C628.40,840.60 626.72,837.37 626.80,835.30 C626.93,833.51 629.08,830.29 630.93,829.09 C633.46,827.51 636.31,827.11 636.16,828.22 C635.92,829.48 621.32,844.97 615.62,848.91 C614.07,849.94 610.20,851.76 608.43,852.17 C606.41,852.60 603.44,851.91 601.29,850.77 C599.99,849.98 597.24,848.27 596.79,847.70 C595.36,845.79 594.99,843.19 595.94,841.35 C596.83,839.78 598.72,838.10 600.04,837.96 C601.25,837.84 605.64,837.74 606.81,836.69 C607.76,835.79 607.73,820.68 607.80,816.66 C607.76,814.68 606.75,811.77 605.63,810.36 C605.40,810.08 602.74,807.76 602.72,807.20 C602.73,806.78 604.88,803.81 605.54,803.25 C606.87,802.16 610.63,800.76 611.61,801.13 C612.44,801.47 615.21,804.55 617.68,805.50 C620.64,806.65 637.78,806.35 640.65,805.71 C641.94,805.37 643.21,803.94 642.64,802.97 C642.12,802.13 636.78,798.35 635.51,797.37 C633.96,796.15 633.25,794.28 634.35,793.93 C635.47,793.63 640.21,794.11 641.95,794.64 C645.05,795.64 650.31,800.59 652.07,803.20 C652.72,804.15 655.27,807.71 656.37,808.24 C657.65,808.82 660.86,808.68 662.48,808.12 C665.21,807.09 673.15,802.18 676.07,800.92 C677.75,800.24 681.46,799.93 682.75,800.63 C682.80,800.66 685.90,804.22 686.40,803.81 C686.80,803.41 686.78,800.66 686.47,797.25 C686.17,794.58 685.03,791.03 683.94,789.94 C683.00,789.06 680.49,789.00 679.51,789.53 C678.48,790.16 675.85,791.69 674.51,791.98 C670.62,792.80 655.49,790.60 642.86,788.20 C634.76,786.55 624.73,784.32 622.39,782.98 C620.28,781.72 618.07,776.98 617.70,773.53 C617.56,771.81 618.84,769.78 620.90,768.27 C621.98,767.53 625.17,766.09 625.86,766.13 C625.97,766.14 653.28,775.18 655.77,775.47 C657.45,775.62 660.61,774.79 661.94,773.75 C663.36,772.57 664.71,769.52 664.24,768.39 C663.70,767.23 661.67,766.09 658.28,764.78 C656.40,764.06 652.88,762.06 652.18,761.20 C651.55,760.35 652.66,759.29 654.09,759.09 C655.85,758.92 658.99,759.05 660.15,759.64 C661.59,760.38 664.94,763.38 664.67,763.03 C664.64,763.00 647.43,742.25 646.18,741.30 C644.98,740.36 641.34,738.45 641.10,738.05 C640.54,737.07 640.29,732.79 640.68,731.28 C641.07,729.93 643.09,727.79 644.35,727.32 C645.61,726.90 649.11,726.86 650.42,727.18 C651.57,727.52 652.94,728.95 653.24,730.15 C653.48,731.22 653.63,734.06 653.66,736.07" fill="none" stroke="rgb(224, 3, 0)" stroke-width="32.00" stroke-opacity="1.00" stroke-linejoin="miter"/>
<path d="M617.67,890.27 C614.48,893.87 611.19,896.98 607.73,898.24 C604.08,899.50 596.92,899.50 593.16,898.20 C589.68,896.93 583.81,891.87 582.08,888.94 C580.39,885.95 578.98,878.44 579.54,874.73 C579.89,872.70 581.09,869.32 582.08,867.77 C583.58,865.49 588.53,861.14 589.52,860.28" fill="none" stroke="rgb(134, 4, 2)" stroke-width="8.00" stroke-opacity="1.00" stroke-linejoin="round"/>
<path d="M608.02,861.35 C608.02,861.35 610.97,863.08 610.97,863.08" fill="none" stroke="rgb(134, 4, 2)" stroke-width="8.00" stroke-opacity="1.00" stroke-linejoin="round"/>
<path d="M615.29,867.76 C615.29,867.76 617.00,868.49 617.00,868.49" fill="none" stroke="rgb(134, 4, 2)" stroke-width="8.00" stroke-opacity="1.00" stroke-linejoin="round"/>
<path d="M618.09,851.42 C616.72,853.56 610.10,860.09 606.62,861.37 C603.24,862.54 595.90,862.46 592.17,861.19 C588.69,859.94 582.80,854.86 581.08,851.94 C579.40,848.98 577.98,841.41 578.55,837.73 C578.90,835.72 580.11,832.32 581.08,830.77 C582.07,829.23 584.02,827.18 586.45,824.97 C588.23,823.39 589.52,822.61 591.89,821.54" fill="none" stroke="rgb(134, 4, 2)" stroke-width="8.00" stroke-opacity="1.00" stroke-linejoin="round"/>
<path d="M614.29,826.58 C614.29,826.58 614.85,832.12 614.85,832.12" fill="none" stroke="rgb(134, 4, 2)" stroke-width="8.00" stroke-opacity="1.00" stroke-linejoin="round"/>
<path d="M652.29,885.72 C648.46,890.09 644.63,893.81 641.02,895.13 C637.46,896.36 629.87,896.29 626.00,894.97 C624.03,894.26 621.06,892.55 619.46,891.19 C616.28,888.40 612.75,882.29 611.94,878.16 C611.59,876.19 611.55,872.66 611.85,870.63 C612.21,868.52 613.46,865.02 614.50,863.40 C618.26,857.68 623.88,854.53 623.85,854.55" fill="none" stroke="rgb(134, 4, 2)" stroke-width="8.30" stroke-opacity="1.00" stroke-linejoin="round"/>
<path d="M644.95,855.58 C644.95,855.58 646.50,861.34 646.50,861.34" fill="none" stroke="rgb(134, 4, 2)" stroke-width="8.30" stroke-opacity="1.00" stroke-linejoin="round"/>
<path d="M682.65,853.82 C684.34,856.05 685.12,857.42 685.86,859.66 C686.87,862.83 687.51,865.54 687.59,867.36 C687.70,870.80 684.96,878.12 682.61,880.91 C679.94,883.96 674.06,887.36 670.06,888.16 C666.42,888.81 658.78,887.36 655.83,885.69 C652.91,883.98 647.84,878.08 646.59,874.60 C645.30,870.82 645.25,863.68 646.48,860.13 C647.74,856.67 653.48,850.49 655.83,849.02 C657.20,848.18 659.24,847.45 660.29,847.27" fill="none" stroke="rgb(134, 4, 2)" stroke-width="8.00" stroke-opacity="1.00" stroke-linejoin="round"/>
<path d="M686.81,816.26 C686.81,816.26 688.44,819.09 688.44,819.09" fill="none" stroke="rgb(134, 4, 2)" stroke-width="8.00" stroke-opacity="1.00" stroke-linejoin="round"/>
<path d="M695.51,834.41 C695.54,836.31 693.58,841.14 691.03,844.65 C689.80,846.29 687.15,848.72 685.51,849.69 C682.28,851.52 675.29,852.76 671.38,852.19 C667.77,851.60 661.11,847.71 658.91,845.18 C656.74,842.59 654.00,835.50 653.87,831.81 C653.83,829.75 654.40,826.27 655.10,824.56 C657.81,818.16 661.80,815.10 661.83,815.06" fill="none" stroke="rgb(134, 4, 2)" stroke-width="8.00" stroke-opacity="1.00" stroke-linejoin="round"/>
<path d="M651.68,822.85 C651.68,822.85 653.31,834.61 653.31,834.61" fill="none" stroke="rgb(134, 4, 2)" stroke-width="8.00" stroke-opacity="1.00" stroke-linejoin="round"/>
<path d="M655.08,843.75 C654.14,846.23 653.40,847.57 651.82,849.33 C649.56,851.80 647.54,853.71 646.00,854.69 C643.07,856.51 635.36,857.80 631.78,857.16 C627.80,856.37 621.91,852.98 619.22,849.91 C616.84,847.08 614.31,839.86 614.24,836.36 C614.24,834.69 614.88,830.70 615.42,829.14 C617.52,823.42 625.26,817.70 626.26,817.17" fill="none" stroke="rgb(134, 4, 2)" stroke-width="8.00" stroke-opacity="1.00" stroke-linejoin="round"/>
<path d="M621.50,794.21 C621.50,794.21 621.53,796.64 621.53,796.64" fill="none" stroke="rgb(134, 4, 2)" stroke-width="8.00" stroke-opacity="1.00" stroke-linejoin="round"/>
<path d="M625.04,816.51 C622.17,820.10 617.10,825.09 613.62,826.37 C610.24,827.54 602.89,827.46 599.17,826.19 C595.69,824.94 589.80,819.86 588.08,816.94 C586.41,814.00 584.96,806.36 585.62,802.72 C586.39,798.82 589.95,792.54 592.74,790.12 C598.71,785.13 607.20,785.19 609.66,785.60" fill="none" stroke="rgb(134, 4, 2)" stroke-width="8.00" stroke-opacity="1.00" stroke-linejoin="round"/>
<path d="M625.16,789.15 C625.16,789.15 623.29,790.81 623.29,790.81" fill="none" stroke="rgb(134, 4, 2)" stroke-width="8.00" stroke-opacity="1.00" stroke-linejoin="round"/>
<path d="M620.16,790.69 C618.43,790.43 615.50,789.58 613.83,788.69 C611.46,787.41 605.76,781.03 604.51,777.59 C603.26,773.95 603.29,766.91 604.59,763.11 C605.84,759.63 610.87,753.78 613.83,752.02 C615.27,751.20 619.02,749.83 620.73,749.49 C624.34,748.86 632.67,750.61 635.00,752.02 C636.61,753.00 638.83,755.06 639.95,756.38" fill="none" stroke="rgb(134, 4, 2)" stroke-width="8.00" stroke-opacity="1.00" stroke-linejoin="round"/>
<path d="M641.96,778.41 C641.96,778.41 639.32,780.57 639.32,780.57" fill="none" stroke="rgb(134, 4, 2)" stroke-width="8.00" stroke-opacity="1.00" stroke-linejoin="round"/>
<path d="M640.17,780.64 C640.17,780.64 639.06,780.50 639.06,780.50" fill="none" stroke="rgb(134, 4, 2)" stroke-width="8.00" stroke-opacity="1.00" stroke-linejoin="round"/>
<path d="M662.54,809.57 C661.91,810.81 656.29,817.20 654.00,818.69 C651.09,820.55 643.35,821.79 639.78,821.16 C635.80,820.37 629.91,816.98 627.22,813.91 C624.84,811.08 622.30,803.84 622.24,800.36 C622.25,798.70 622.91,794.72 623.45,793.13 C626.16,785.75 633.56,781.62 636.13,780.64" fill="none" stroke="rgb(134, 4, 2)" stroke-width="8.00" stroke-opacity="1.00" stroke-linejoin="round"/>
<path d="M647.02,782.72 C647.02,782.72 648.06,784.04 648.06,784.04" fill="none" stroke="rgb(134, 4, 2)" stroke-width="8.00" stroke-opacity="1.00" stroke-linejoin="round"/>
<path d="M659.00,787.63 C659.00,787.63 660.40,788.12 660.40,788.12" fill="none" stroke="rgb(134, 4, 2)" stroke-width="8.00" stroke-opacity="1.00" stroke-linejoin="round"/>
<path d="M682.01,773.25 C685.45,773.28 692.91,775.88 695.78,778.31 C698.90,781.04 702.33,787.00 703.14,791.06 C703.81,794.76 702.33,802.52 700.64,805.51 C698.90,808.48 692.91,813.64 689.38,814.91 C685.45,816.24 678.57,816.24 674.65,814.91 C671.11,813.64 665.13,808.48 663.38,805.51 C661.69,802.52 660.21,794.76 660.88,791.06 C661.69,787.00 665.13,781.04 668.24,778.31 C671.11,775.88 678.57,773.28 682.01,773.25 Z" fill="none" stroke="rgb(134, 4, 2)" stroke-width="8.13" stroke-opacity="1.00" stroke-linejoin="round"/>
<path d="M709.94,795.24 C713.07,795.65 721.08,797.84 723.97,800.26 C726.70,802.62 730.37,809.15 731.14,813.06 C731.81,816.76 730.33,824.52 728.64,827.51 C726.90,830.48 720.91,835.64 717.38,836.91 C713.46,838.24 706.49,838.24 702.65,836.93 C699.19,835.67 693.00,830.55 691.38,827.51 C690.15,825.13 688.92,819.02 688.67,817.81" fill="none" stroke="rgb(134, 4, 2)" stroke-width="8.13" stroke-opacity="1.00" stroke-linejoin="round"/>
<path d="M733.52,811.02 C738.99,809.16 744.11,807.86 747.82,808.50 C751.42,809.19 757.83,812.98 760.46,815.99 C762.89,818.86 765.49,826.32 765.52,829.76 C765.49,833.20 762.89,840.66 760.46,843.53 C757.73,846.64 751.76,850.09 747.71,850.89 C744.05,851.55 736.26,850.20 733.26,848.39 C731.72,847.43 729.08,845.02 727.41,843.15 C724.96,840.32 723.68,836.61 723.44,835.29" fill="none" stroke="rgb(134, 4, 2)" stroke-width="8.13" stroke-opacity="1.00" stroke-linejoin="round"/>
<path d="M723.22,835.76 C724.70,837.94 727.38,846.04 727.52,848.76 C727.66,852.26 724.84,859.71 722.46,862.53 C719.75,865.63 713.75,869.09 709.71,869.89 C706.07,870.54 698.24,869.23 695.26,867.39 C693.70,866.40 691.69,864.52 689.36,861.99 C687.77,860.22 686.97,858.73 685.89,855.85" fill="none" stroke="rgb(134, 4, 2)" stroke-width="8.13" stroke-opacity="1.00" stroke-linejoin="round"/>
<path d="M688.39,847.72 C688.39,847.72 688.67,847.73 688.67,847.73" fill="none" stroke="rgb(134, 4, 2)" stroke-width="8.13" stroke-opacity="1.00" stroke-linejoin="round"/>
<path d="M658.44,787.02 C653.57,786.02 649.09,784.70 646.21,782.29 C643.28,779.74 639.63,773.42 638.87,769.45 C638.22,765.75 639.69,758.00 641.38,755.00 C643.13,752.04 649.11,746.88 652.65,745.61 C656.57,744.28 663.47,744.28 667.38,745.61 C670.87,746.87 676.93,751.93 678.64,755.00 C679.49,756.59 680.60,760.03 681.10,762.42 C681.81,766.09 680.93,770.27 680.42,771.69" fill="none" stroke="rgb(134, 4, 2)" stroke-width="8.13" stroke-opacity="1.00" stroke-linejoin="round"/>
<path d="M638.68,753.65 C636.22,752.47 629.86,746.80 628.38,744.51 C626.52,741.55 625.23,733.69 625.88,730.06 C626.67,726.02 630.13,720.04 633.24,717.31 C636.11,714.88 643.57,712.28 647.01,712.25 C650.45,712.28 657.90,714.88 660.78,717.29 C663.83,719.94 667.49,726.26 668.23,730.08 C668.87,733.77 667.78,738.31 666.20,743.01" fill="none" stroke="rgb(134, 4, 2)" stroke-width="8.13" stroke-opacity="1.00" stroke-linejoin="round"/>
<path d="M655.69,710.93 C656.19,709.59 659.10,701.87 661.58,698.21 C663.17,695.90 667.96,690.69 670.79,688.14 C677.03,682.60 687.54,677.44 688.56,676.95 C686.33,681.67 684.66,685.78 684.07,689.18 C683.50,692.68 683.61,699.00 684.44,702.68 C685.37,706.63 688.37,713.62 690.42,716.35 C691.43,717.66 697.15,723.85 699.35,726.61 C701.11,728.84 705.36,734.92 706.63,737.21 C708.24,740.19 708.79,743.64 708.54,749.35 C708.48,752.72 708.28,759.44 707.44,761.85 C706.36,764.81 699.98,773.75 699.24,774.79" fill="none" stroke="rgb(135, 6, 4)" stroke-width="10.00" stroke-opacity="1.00" stroke-linejoin="miter"/>
<path d="M698.98,775.73 C698.98,775.73 750.55,728.01 750.55,728.01" fill="none" stroke="rgb(135, 6, 4)" stroke-width="10.00" stroke-opacity="1.00" stroke-linejoin="miter"/>
<path d="M710.85,765.06 C722.16,765.15 734.90,765.93 740.69,768.55 C745.55,770.82 757.48,781.52 765.11,785.14 C768.00,786.50 776.50,789.81 778.86,790.14 C779.34,790.20 790.48,789.96 790.74,789.95 C794.45,789.72 798.32,787.71 802.03,785.29" fill="none" stroke="rgb(135, 6, 4)" stroke-width="10.00" stroke-opacity="1.00" stroke-linejoin="miter"/>
<path d="M801.17,785.89 C800.03,791.27 798.75,795.73 796.83,799.17 C794.74,802.81 790.06,808.03 786.71,810.64 C783.50,813.08 775.92,817.61 773.68,818.42 C770.03,819.71 765.80,819.35 764.72,819.27" fill="none" stroke="rgb(135, 6, 4)" stroke-width="10.00" stroke-opacity="1.00" stroke-linejoin="miter"/>
<path d="M704.02,786.58 C707.33,785.07 713.44,783.60 717.98,783.20 C722.15,782.87 728.89,783.59 732.72,785.06 C736.08,786.40 739.96,789.54 741.33,790.84" fill="none" stroke="rgb(135, 6, 4)" stroke-width="10.00" stroke-opacity="1.00" stroke-linejoin="miter"/>
<path d="M685.75,769.33 C687.85,765.65 689.75,761.97 690.92,758.34 C692.20,754.23 692.74,747.91 692.06,744.77 C691.37,741.80 689.63,738.31 687.54,734.58" fill="none" stroke="rgb(135, 6, 4)" stroke-width="10.00" stroke-opacity="1.00" stroke-linejoin="miter"/>
<path d="M639.37,723.14 C641.00,721.76 642.68,720.92 644.35,720.98 C644.83,721.00 645.86,721.12 647.45,721.36" fill="none" stroke="rgb(255, 255, 255)" stroke-width="5.00" stroke-opacity="1.00" stroke-linejoin="miter"/>
<path d="M614.67,761.18 C614.67,761.18 619.74,757.23 619.74,757.23" fill="none" stroke="rgb(255, 255, 255)" stroke-width="5.00" stroke-opacity="1.00" stroke-linejoin="miter"/>
<path d="M653.74,756.48 C655.04,754.96 656.21,754.24 658.17,753.92 C658.92,753.81 659.66,753.69 660.41,753.57" fill="none" stroke="rgb(255, 255, 255)" stroke-width="5.00" stroke-opacity="1.00" stroke-linejoin="miter"/>
<path d="M596.73,797.52 C596.73,797.52 603.59,794.05 603.59,794.05" fill="none" stroke="rgb(255, 255, 255)" stroke-width="5.00" stroke-opacity="1.00" stroke-linejoin="miter"/>
<path d="M633.45,790.48 C633.45,790.48 637.68,786.53 637.68,786.53" fill="none" stroke="rgb(255, 255, 255)" stroke-width="5.00" stroke-opacity="1.00" stroke-linejoin="miter"/>
<path d="M668.67,790.66 C668.67,790.66 670.08,788.41 670.08,788.41" fill="none" stroke="rgb(255, 255, 255)" stroke-width="5.00" stroke-opacity="1.00" stroke-linejoin="miter"/>
<path d="M625.28,827.95 C625.28,827.95 628.29,824.29 628.29,824.29" fill="none" stroke="rgb(255, 255, 255)" stroke-width="5.00" stroke-opacity="1.00" stroke-linejoin="miter"/>
<path d="M587.06,836.03 C587.06,836.03 589.31,833.58 589.31,833.58" fill="none" stroke="rgb(255, 255, 255)" stroke-width="5.00" stroke-opacity="1.00" stroke-linejoin="miter"/>
<path d="M589.31,833.58 C589.31,833.58 589.31,833.58 589.31,833.58 Z" fill="none" stroke="rgb(255, 255, 255)" stroke-width="5.00" stroke-opacity="1.00" stroke-linejoin="miter"/>
<path d="M588.94,872.37 C588.94,872.37 588.66,869.08 588.66,869.08" fill="none" stroke="rgb(255, 255, 255)" stroke-width="5.00" stroke-opacity="1.00" stroke-linejoin="miter"/>
<path d="M620.40,871.06 C620.40,871.06 619.74,866.45 619.74,866.45" fill="none" stroke="rgb(255, 255, 255)" stroke-width="5.00" stroke-opacity="1.00" stroke-linejoin="miter"/>
<path d="M653.36,868.14 C653.36,868.14 652.52,863.45 652.52,863.45" fill="none" stroke="rgb(255, 255, 255)" stroke-width="5.00" stroke-opacity="1.00" stroke-linejoin="miter"/>
</g>
</svg>
