<?xml version="1.0" encoding="UTF-8" standalone="no"?>
<!DOCTYPE svg PUBLIC "-//W3C//DTD SVG 1.1//EN" "http://www.w3.org/Graphics/SVG/1.1/DTD/svg11.dtd">
<svg width="1920.00" height="1080.00" viewBox="0.00 0.00 1920.00 1080.00" xmlns="http://www.w3.org/2000/svg" xmlns:xlink="http://www.w3.org/1999/xlink">
<g stroke-linecap="round" id="Capa_29">
<path d="M1619.88,803.05 C1625.50,810.42 1631.26,818.96 1634.34,824.98 C1639.54,835.23 1645.45,850.41 1645.88,851.37 C1649.07,858.16 1654.79,876.15 1655.20,878.18 C1655.47,879.52 1655.76,884.39 1655.90,885.74 C1656.13,887.80 1657.41,889.16 1658.96,888.95 C1660.04,888.77 1663.43,887.65 1665.50,887.67 C1665.59,887.67 1678.32,888.20 1679.68,887.34 C1680.66,886.66 1681.06,885.13 1681.14,882.56 C1681.25,876.61 1684.32,863.93 1687.72,854.52 C1690.51,846.78 1694.45,833.02 1696.41,828.12 C1698.36,823.28 1706.56,806.75 1708.98,803.88 C1710.56,802.02 1715.67,797.67 1715.48,797.43 C1715.30,797.25 1709.83,797.80 1708.95,797.79 C1707.66,797.78 1704.98,796.80 1703.50,796.03 C1701.04,794.66 1699.37,791.97 1698.96,790.84" fill="none" stroke="rgb(181, 207, 127)" stroke-width="6.00" stroke-opacity="1.00" stroke-linejoin="miter"/>
<path d="M1715.78,797.35 C1712.50,796.49 1703.07,794.13 1701.72,793.95 C1698.90,793.62 1696.75,794.21 1695.76,795.65 C1694.97,796.89 1692.38,804.41 1690.99,807.35 C1685.35,819.22 1682.98,825.17 1682.29,826.00 C1681.28,827.15 1679.43,827.12 1679.05,825.91 C1678.79,824.97 1681.55,785.09 1680.38,784.16 C1680.11,783.98 1677.02,786.19 1676.11,786.59 C1674.73,787.20 1666.48,786.43 1664.38,785.88 C1661.81,785.20 1656.98,781.26 1656.88,781.47 C1656.84,781.59 1658.76,786.79 1659.18,788.45 C1659.57,790.02 1660.24,809.54 1660.93,816.95 C1661.99,826.93 1661.65,839.81 1661.40,847.31 C1661.36,849.73 1661.41,852.73 1661.04,852.87 C1660.20,853.12 1659.31,852.75 1658.39,851.76 C1657.68,850.96 1653.25,804.79 1652.09,801.90 C1651.35,800.15 1649.57,797.52 1647.79,795.46 C1646.01,793.50 1643.76,791.67 1642.87,791.86 C1642.27,792.01 1638.75,796.03 1637.96,796.70 C1636.57,797.91 1630.74,799.28 1627.21,798.95 C1625.37,798.80 1623.82,799.46 1622.59,800.89 C1622.33,801.21 1621.87,801.84 1621.20,802.80" fill="none" stroke="rgb(181, 207, 127)" stroke-width="6.00" stroke-opacity="1.00" stroke-linejoin="miter"/>
<path d="M1626.17,803.56 C1628.50,805.80 1631.62,810.43 1633.80,814.58 C1636.20,819.38 1643.86,837.82 1645.12,840.65 C1646.58,843.89 1653.71,858.10 1656.22,865.47 C1657.51,869.30 1659.43,879.71 1659.68,881.09 C1660.08,883.12 1661.15,884.41 1662.37,884.17 C1663.37,883.94 1666.20,882.90 1667.99,882.96 C1671.47,883.07 1678.07,884.64 1678.32,884.08 C1678.44,883.78 1678.21,874.28 1679.22,868.91 C1682.61,852.62 1689.63,830.88 1691.49,826.99 C1692.40,825.11 1706.57,803.85 1706.16,801.93 C1705.85,800.65 1705.15,799.72 1704.07,799.12 C1702.76,798.47 1701.70,798.55 1700.88,799.37 C1700.19,800.04 1699.61,805.78 1699.38,805.96 C1699.09,806.19 1695.82,803.87 1695.39,803.93 C1694.87,804.01 1694.48,812.04 1693.42,814.71 C1692.70,816.47 1689.63,821.72 1686.93,825.89 C1685.85,827.58 1682.69,833.50 1681.95,833.61 C1681.00,833.69 1678.13,831.26 1676.89,829.57 C1675.27,827.24 1674.08,821.29 1674.08,816.84 C1674.14,808.06 1676.77,793.14 1676.77,793.13 C1676.83,791.61 1675.09,790.14 1673.32,790.20 C1671.92,790.27 1666.92,791.18 1665.91,790.88 C1664.87,790.60 1663.98,789.47 1662.92,789.65 C1662.71,789.70 1664.94,799.58 1665.33,803.35 C1665.87,808.71 1666.14,828.69 1666.51,832.77 C1667.05,837.85 1667.20,842.62 1667.01,846.57 C1666.83,849.48 1666.19,857.81 1665.10,858.45 C1663.80,859.13 1655.35,854.47 1653.77,852.92 C1652.65,851.78 1651.42,848.99 1651.28,847.47 C1651.17,845.83 1651.89,838.21 1652.07,833.83 C1652.25,829.35 1651.93,822.04 1651.33,818.19 C1650.03,810.17 1646.59,800.29 1645.64,798.70 C1644.81,797.42 1643.26,796.40 1642.52,796.97 C1642.47,797.02 1639.16,801.22 1638.05,801.71 C1637.47,801.97 1632.48,802.52 1632.18,802.92 C1631.94,803.32 1637.53,809.42 1638.88,811.92 C1639.33,812.77 1642.73,820.79 1643.16,821.95 C1644.22,824.80 1646.64,833.90 1646.97,833.35 C1647.79,831.48 1645.76,814.74 1645.00,812.61 C1644.52,811.35 1643.54,810.17 1641.88,808.70 C1640.65,807.59 1640.69,806.65 1641.95,805.67 C1642.22,805.48 1642.82,805.09 1643.75,804.51" fill="none" stroke="rgb(181, 207, 127)" stroke-width="9.00" stroke-opacity="1.00" stroke-linejoin="miter"/>
<path d="M1659.19,859.50 C1660.97,863.59 1662.84,868.27 1663.31,871.69 C1663.70,874.35 1664.83,876.42 1666.53,877.34 C1667.33,877.73 1671.69,877.47 1672.41,877.18 C1673.57,876.64 1675.00,874.25 1674.48,873.70 C1674.41,873.63 1670.12,872.34 1669.04,871.54 C1668.20,870.92 1666.65,867.29 1666.25,866.28 C1665.54,864.35 1665.74,861.45 1666.66,861.66 C1666.81,861.69 1670.42,866.95 1671.69,867.56 C1672.85,868.11 1674.02,868.13 1675.21,867.60 C1676.20,867.09 1676.66,866.38 1676.60,865.45 C1676.51,864.54 1670.06,859.22 1669.98,858.56 C1669.94,857.68 1673.35,856.65 1675.27,856.17 C1677.44,855.40 1680.40,852.94 1679.76,852.49 C1679.35,852.24 1670.01,853.50 1669.19,852.94 C1668.42,852.35 1669.54,849.52 1671.02,848.00 C1672.39,846.67 1675.62,845.50 1677.46,845.67 C1678.74,845.78 1683.17,846.58 1683.89,845.81 C1685.05,844.52 1685.07,839.75 1683.96,838.46 C1683.23,837.70 1681.30,838.35 1678.16,839.93 C1675.57,841.26 1671.70,842.71 1671.39,842.36 C1671.20,842.08 1676.95,836.07 1676.77,835.70 C1676.53,835.26 1671.52,835.93 1671.32,835.84 C1670.62,835.52 1671.93,832.30 1671.85,831.54 C1671.83,831.18 1671.12,831.22 1670.97,830.89 C1670.96,830.88 1671.18,821.12 1670.14,816.97 C1669.13,812.96 1669.51,805.84 1669.76,801.96 C1669.87,799.90 1669.97,796.91 1670.00,795.27" fill="none" stroke="rgb(181, 207, 127)" stroke-width="9.00" stroke-opacity="1.00" stroke-linejoin="miter"/>
<path d="M1637.89,779.81 C1637.48,781.62 1636.68,784.19 1635.97,785.39 C1635.00,786.98 1632.21,788.79 1630.27,789.15 C1629.03,789.35 1625.01,788.67 1623.88,788.52 C1622.15,788.30 1620.21,789.32 1619.37,790.87 C1618.89,791.77 1617.62,794.65 1616.32,795.45 C1615.32,796.03 1611.47,797.15 1609.73,797.40 C1607.19,797.73 1605.37,797.24 1603.66,795.95 C1602.28,794.91 1601.44,794.98 1598.33,796.22 C1596.20,797.05 1594.21,796.83 1593.30,795.55 C1591.78,793.22 1589.40,784.39 1589.31,784.16 C1588.82,783.04 1586.73,782.04 1585.28,782.24 C1584.14,782.39 1580.32,783.13 1578.97,782.54 C1577.68,781.94 1575.89,779.49 1575.00,777.33 C1574.26,775.42 1574.36,773.67 1575.16,770.97 C1575.78,768.90 1575.60,767.27 1574.51,766.14 C1572.44,764.11 1564.90,759.16 1564.36,757.87 C1563.85,756.54 1564.47,752.22 1565.26,750.69 C1565.83,749.65 1570.27,745.06 1572.56,740.61 C1573.92,738.00 1577.20,731.83 1578.62,730.28 C1580.68,728.11 1585.99,726.14 1587.72,726.45 C1588.53,726.61 1590.90,727.27 1592.83,727.56 C1595.06,727.85 1598.04,727.82 1598.82,727.11 C1599.77,726.23 1602.12,720.46 1602.37,720.15 C1603.40,718.92 1607.66,717.88 1608.63,718.48 C1609.40,719.03 1609.16,721.97 1608.46,724.88 C1607.86,727.27 1606.76,731.27 1606.59,732.04 C1606.20,734.00 1607.00,736.88 1608.37,738.56 C1609.13,739.47 1611.94,742.14 1612.38,743.45 C1613.13,745.79 1612.66,756.11 1612.80,758.18 C1613.15,763.01 1618.39,772.36 1619.76,773.61 C1622.03,775.61 1630.19,778.00 1630.18,778.70 C1630.10,779.50 1626.40,781.91 1624.94,781.99 C1624.02,782.04 1619.58,780.45 1618.94,780.66 C1617.91,781.00 1616.44,784.71 1615.91,785.59 C1614.81,787.35 1612.78,788.13 1610.42,787.73 C1605.61,786.86 1597.55,787.12 1597.98,786.74 C1598.43,786.40 1608.35,781.81 1609.71,780.89 C1611.59,779.56 1612.52,777.96 1612.06,776.50 C1611.35,774.57 1609.44,772.49 1607.99,772.30 C1606.62,772.15 1598.59,778.49 1598.51,778.54 C1597.61,779.01 1595.23,778.73 1593.51,778.08 C1592.33,777.62 1582.83,774.13 1583.24,773.87 C1584.49,773.15 1593.76,771.69 1596.88,771.26 C1600.02,770.76 1608.99,768.13 1609.75,767.00 C1610.47,765.84 1609.51,763.17 1608.19,762.48 C1607.28,762.04 1600.76,763.09 1595.00,763.69 C1589.66,764.29 1583.82,765.65 1583.35,765.49 C1582.21,765.06 1573.14,757.25 1572.78,756.91 C1571.63,755.77 1571.58,753.63 1572.70,752.55 C1574.00,751.42 1576.08,751.88 1578.22,753.61 C1580.44,755.43 1582.55,756.53 1584.34,756.65 C1586.76,756.77 1593.14,756.16 1598.18,755.39 C1600.28,755.07 1603.04,755.21 1603.99,755.15 C1605.17,755.05 1606.32,752.36 1606.18,750.13 C1606.03,748.50 1605.60,747.35 1604.89,746.66 C1604.17,746.02 1599.82,747.50 1598.55,747.91 C1594.86,749.17 1585.29,749.41 1584.22,749.43 C1582.18,749.43 1580.07,748.60 1579.71,747.52 C1579.68,747.43 1583.16,741.34 1584.94,737.74 C1586.26,735.34 1591.28,734.20 1591.37,734.87 C1591.52,735.82 1589.44,739.35 1590.06,740.04 C1590.52,740.55 1595.02,740.15 1597.57,739.66 C1600.00,739.14 1601.23,737.92 1600.52,736.81 C1600.31,736.52 1599.74,736.03 1598.80,735.35" fill="none" stroke="rgb(78, 150, 90)" stroke-width="12.00" stroke-opacity="1.00" stroke-linejoin="miter"/>
<path d="M1598.80,735.35 C1598.80,735.35 1615.68,739.48 1615.68,739.48" fill="none" stroke="rgb(78, 150, 90)" stroke-width="12.00" stroke-opacity="1.00" stroke-linejoin="miter"/>
<path d="M1622.49,739.35 C1620.93,736.69 1619.54,731.51 1619.64,727.78 C1619.78,724.50 1622.11,720.26 1624.55,717.52 C1625.73,716.22 1631.37,710.73 1632.46,709.17 C1633.82,707.21 1636.45,700.01 1637.39,698.36 C1638.97,695.64 1643.72,691.01 1646.91,689.37 C1650.47,687.60 1656.13,686.87 1659.64,687.63 C1661.37,688.02 1664.03,689.06 1665.77,689.75 C1667.57,690.40 1668.16,690.06 1668.54,688.32 C1668.91,686.56 1670.15,684.95 1671.82,684.27 C1672.85,683.87 1683.01,680.68 1683.75,680.60 C1684.97,680.50 1687.20,681.39 1688.20,682.36 C1688.71,682.88 1691.58,686.70 1691.59,686.72 C1692.93,688.58 1694.04,689.66 1695.18,689.72 C1696.60,689.76 1705.21,687.50 1706.77,687.47 C1710.64,687.47 1717.19,689.87 1719.02,691.80 C1720.75,693.69 1724.31,698.93 1725.19,700.82 C1726.26,703.21 1727.40,711.03 1727.52,711.42 C1728.12,713.22 1729.72,715.38 1730.87,715.55 C1731.64,715.65 1736.34,714.43 1737.19,714.39 C1738.66,714.33 1742.10,715.51 1743.64,716.52 C1746.50,718.45 1750.47,724.54 1751.26,725.38 C1751.96,726.11 1756.48,729.79 1757.17,729.89 C1757.42,729.93 1760.14,728.61 1761.43,728.51 C1762.89,728.41 1765.46,729.00 1766.93,729.82 C1768.27,730.62 1770.68,733.02 1771.16,734.27 C1772.20,737.25 1770.37,748.74 1770.66,749.49 C1770.99,750.30 1774.37,750.86 1774.47,750.93 C1775.20,751.48 1776.25,755.13 1776.37,756.84 C1776.41,758.11 1775.64,759.90 1774.66,760.82 C1773.62,761.76 1769.77,764.29 1768.81,764.96 C1767.44,765.87 1766.51,766.06 1764.97,765.77 C1763.71,765.52 1758.67,764.04 1758.01,763.99 C1756.64,763.89 1755.83,765.31 1756.32,766.63 C1757.04,768.42 1762.62,777.52 1762.83,778.02 C1763.06,778.67 1761.97,781.33 1761.21,782.21 C1759.91,783.62 1757.27,784.80 1755.52,784.80 C1753.94,784.76 1750.81,784.74 1750.29,785.22 C1749.58,785.90 1749.83,789.23 1749.79,790.16 C1749.71,792.10 1746.61,795.23 1744.23,796.14 C1740.45,797.52 1735.02,798.35 1732.12,797.25 C1730.33,796.52 1726.59,794.10 1725.61,792.90 C1724.95,792.08 1722.98,787.87 1722.56,787.51 C1722.18,787.20 1717.18,787.96 1713.34,787.42 C1710.84,787.01 1707.62,786.18 1706.39,785.43 C1705.09,784.60 1702.86,781.65 1702.01,779.86 C1701.27,778.21 1700.38,774.75 1700.37,773.35 C1700.36,772.30 1700.72,768.38 1700.35,767.69 C1699.89,766.89 1697.08,765.93 1695.71,765.94 C1694.47,765.97 1686.97,768.05 1685.13,768.77 C1684.05,769.20 1676.21,773.10 1673.39,773.95 C1671.80,774.41 1668.49,774.74 1666.98,774.59 C1665.14,774.35 1663.24,773.30 1661.99,771.90 C1659.31,768.80 1656.31,766.31 1654.60,764.97" fill="none" stroke="rgb(78, 150, 90)" stroke-width="12.00" stroke-opacity="1.00" stroke-linejoin="miter"/>
<path d="M1664.26,776.50 C1661.80,774.91 1656.26,771.24 1653.18,769.16 C1650.95,767.62 1649.81,766.43 1650.67,766.29 C1653.22,765.99 1661.23,768.64 1661.14,769.05 C1660.95,769.44 1651.40,769.12 1647.37,769.05 C1645.00,769.02 1642.42,769.43 1641.09,770.06 C1640.53,770.32 1638.47,771.14 1636.67,770.71 C1634.82,770.23 1632.33,768.57 1630.81,766.81 C1628.29,763.79 1626.42,758.44 1625.84,754.62 C1625.19,749.99 1625.45,745.59 1625.69,742.61 C1625.72,741.41 1625.03,734.74 1624.86,731.20 C1624.78,728.96 1625.22,726.73 1626.13,725.14 C1627.26,723.27 1633.40,718.40 1635.18,717.29 C1639.05,714.98 1642.07,712.30 1643.99,709.56 C1645.00,708.06 1645.47,704.55 1645.59,703.32 C1645.82,701.08 1646.81,699.26 1648.30,698.45 C1651.52,696.83 1659.10,695.71 1661.82,696.74 C1662.55,697.02 1665.03,698.56 1666.29,698.70 C1667.20,698.79 1671.20,698.10 1672.75,697.67 C1674.61,697.11 1675.87,695.75 1676.02,694.26 C1676.24,691.98 1676.86,690.85 1678.71,689.90 C1680.53,689.03 1682.44,689.47 1683.39,690.91 C1683.88,691.65 1685.42,693.83 1686.67,694.34 C1688.39,695.03 1696.77,697.19 1700.70,696.94 C1701.45,696.89 1706.23,696.41 1707.32,696.41 C1708.96,696.45 1711.40,697.32 1712.70,698.42 C1715.00,700.46 1719.36,708.12 1719.63,710.05 C1719.82,711.41 1719.69,717.07 1719.89,717.67 C1720.45,719.26 1726.86,722.38 1728.36,722.40 C1729.63,722.41 1733.92,721.74 1734.40,721.77 C1736.45,721.90 1738.06,723.01 1738.76,724.66 C1739.72,727.03 1741.36,728.90 1744.93,732.42 C1746.94,734.36 1749.39,736.58 1750.38,737.21 C1751.91,738.15 1754.14,738.65 1755.74,738.44 C1756.56,738.32 1760.68,737.48 1761.31,737.54 C1762.01,737.61 1763.65,738.51 1763.37,737.87 C1762.83,736.76 1761.98,736.06 1760.84,735.79 C1760.59,735.74 1763.00,744.39 1763.09,747.37 C1763.14,748.53 1763.97,750.11 1765.14,751.28 C1766.27,752.41 1770.53,755.06 1770.55,755.08 C1770.71,755.35 1767.01,756.87 1766.00,757.18 C1764.30,757.64 1761.14,757.67 1759.43,757.23 C1758.34,756.96 1754.40,755.61 1754.16,756.12 C1753.52,757.51 1753.59,758.38 1754.37,758.73 C1754.63,758.81 1755.86,747.50 1755.70,747.13 C1755.47,746.64 1753.64,746.62 1752.62,745.59" fill="none" stroke="rgb(78, 150, 90)" stroke-width="12.00" stroke-opacity="1.00" stroke-linejoin="miter"/>
<path d="M1752.62,745.59 C1749.98,756.11 1748.72,763.45 1749.10,766.26 C1749.48,768.67 1754.59,774.75 1754.26,775.45 C1754.01,775.93 1750.05,776.81 1748.92,777.09 C1747.15,777.55 1744.84,779.31 1744.07,780.84 C1743.65,781.70 1742.77,786.04 1742.42,786.67 C1741.72,787.89 1739.66,788.69 1737.92,788.47 C1734.04,787.89 1727.15,784.50 1726.68,782.85 C1726.49,782.01 1728.21,780.56 1729.66,780.10 C1731.69,779.48 1741.16,777.68 1743.19,776.60 C1745.18,775.50 1746.89,773.33 1746.70,772.07 C1746.50,771.15 1744.75,770.40 1743.26,770.49 C1740.20,770.76 1732.51,773.17 1730.07,774.94 C1729.22,775.56 1726.37,777.85 1724.37,778.60 C1721.75,779.56 1713.04,780.19 1711.02,779.47 C1709.53,778.88 1708.65,777.73 1708.02,775.73 C1707.29,773.26 1703.64,765.40 1704.00,765.11 C1704.59,764.76 1713.61,772.03 1713.69,772.07 C1714.92,772.81 1717.83,773.40 1719.79,773.41 C1722.29,773.36 1724.56,772.85 1724.34,772.21 C1724.06,771.50 1719.63,769.11 1718.32,768.29 C1717.03,767.48 1717.49,766.76 1719.01,766.87 C1719.73,766.93 1726.04,767.78 1727.60,767.90 C1729.80,768.05 1733.93,767.49 1735.47,766.78 C1736.15,766.45 1739.60,763.74 1740.56,763.20 C1741.48,762.67 1744.16,761.15 1743.65,760.69 C1743.21,760.36 1738.90,759.16 1737.44,758.95 C1733.30,758.40 1727.49,760.56 1726.34,760.66 C1725.40,760.73 1725.25,759.22 1725.85,758.01 C1726.89,756.02 1738.18,739.67 1738.79,738.90 C1739.98,737.47 1742.61,736.67 1744.32,737.23 C1745.97,737.85 1746.80,739.77 1746.29,741.38 C1745.55,743.59 1745.49,744.67 1745.89,748.09 C1746.16,750.63 1745.09,752.77 1743.17,753.37 C1741.90,753.70 1740.95,753.62 1740.32,753.11 C1739.55,752.46 1739.05,749.47 1738.95,747.26" fill="none" stroke="rgb(78, 150, 90)" stroke-width="12.00" stroke-opacity="1.00" stroke-linejoin="miter"/>
<path d="M1629.86,728.50 C1631.36,737.92 1632.35,753.59 1632.85,755.57 C1633.32,757.31 1634.71,760.04 1635.62,760.84 C1636.58,761.63 1638.84,761.78 1640.22,761.16 C1640.53,761.02 1644.64,758.61 1645.95,758.09 C1648.07,757.27 1651.54,756.58 1653.37,756.64 C1655.79,756.77 1662.17,760.93 1663.87,762.70 C1664.73,763.58 1667.07,765.94 1668.64,766.11 C1670.48,766.25 1671.70,765.92 1673.81,764.68 C1677.53,762.48 1684.31,760.15 1689.25,758.63 C1693.75,757.28 1696.90,756.90 1700.51,757.72 C1702.97,758.29 1709.20,758.39 1713.54,759.95 C1714.91,760.41 1715.77,760.51 1716.11,760.24 C1716.45,759.96 1716.94,754.72 1717.33,753.52 C1717.93,751.69 1724.42,746.48 1727.56,744.58 C1732.43,741.62 1736.22,738.35 1737.61,735.77 C1738.28,734.42 1738.49,731.08 1737.87,729.72 C1737.37,728.72 1736.66,728.20 1735.75,728.17 C1734.61,728.19 1727.75,735.46 1725.74,737.34 C1724.37,738.60 1716.71,744.53 1715.04,745.73 C1710.86,748.70 1702.39,752.46 1700.27,751.87 C1699.36,751.57 1699.77,749.62 1700.79,748.28 C1702.91,745.60 1710.22,738.58 1712.52,736.88 C1715.04,735.04 1716.72,734.15 1719.65,733.00 C1721.07,732.43 1722.41,730.81 1722.36,729.63 C1722.27,728.70 1720.52,726.58 1719.53,726.39 C1718.23,726.18 1715.52,726.84 1713.83,727.70 C1710.10,729.68 1704.64,733.68 1702.53,736.62 C1701.79,737.66 1696.62,745.20 1694.29,747.23 C1691.92,749.24 1686.36,752.10 1682.92,753.26 C1682.39,753.43 1671.05,757.01 1669.84,757.45 C1667.10,758.38 1665.32,758.83 1664.34,758.49 C1663.04,757.99 1662.15,757.28 1661.67,756.38 C1661.20,755.38 1661.29,754.40 1661.93,753.46 C1662.56,752.60 1668.48,750.63 1677.01,748.12 C1681.55,746.78 1688.94,744.17 1691.23,742.23 C1693.17,740.54 1698.40,733.21 1700.51,730.18 C1702.00,728.06 1703.95,726.29 1705.88,725.35 C1707.27,724.70 1711.16,724.08 1712.33,723.92 C1714.57,723.60 1716.82,722.62 1717.62,721.49 C1718.35,720.37 1718.57,717.51 1718.20,715.26 C1717.65,712.20 1714.95,702.68 1713.55,701.64 C1712.31,700.77 1710.23,701.31 1710.07,702.57 C1709.96,703.65 1714.62,714.05 1714.66,714.45 C1714.69,715.25 1713.12,716.98 1711.66,718.05 C1709.47,719.57 1707.52,720.17 1706.78,719.43 C1705.96,718.49 1707.13,708.63 1707.07,707.28 C1706.91,704.76 1705.95,702.55 1704.66,702.24 C1703.08,701.96 1700.50,703.35 1699.88,704.94 C1699.34,706.44 1702.31,718.54 1702.36,718.90 C1702.56,720.29 1702.08,722.87 1701.41,724.45 C1700.50,726.45 1698.99,728.50 1697.95,728.89 C1696.94,729.22 1694.03,728.22 1693.12,727.21 C1691.31,725.05 1691.62,721.16 1692.99,713.79 C1693.73,709.80 1693.41,701.57 1692.30,699.87 C1691.36,698.53 1689.26,698.59 1688.06,699.94 C1687.20,700.98 1684.66,709.38 1684.52,711.90 C1684.39,715.16 1686.66,720.85 1688.24,724.18 C1690.53,728.95 1692.74,731.39 1693.16,732.29 C1693.58,733.27 1692.25,734.78 1690.33,735.76 C1688.41,736.66 1681.86,739.56 1681.32,739.03 C1680.72,738.38 1679.77,730.57 1679.78,726.04 C1679.78,722.79 1679.17,716.37 1679.79,712.81 C1680.19,710.64 1683.81,698.56 1683.49,697.44 C1683.14,696.38 1682.49,695.79 1681.54,695.66 C1680.11,695.55 1677.50,697.54 1676.57,699.31 C1675.63,701.21 1674.63,704.29 1674.52,705.70 C1674.48,706.29 1676.58,713.28 1677.19,718.54 C1678.44,730.09 1678.32,740.71 1677.83,741.92 C1677.11,743.55 1674.20,745.19 1672.75,744.71 C1671.59,744.27 1670.61,741.82 1670.62,739.93 C1670.69,737.39 1672.45,726.67 1672.62,723.79 C1672.87,718.80 1671.06,712.21 1669.58,708.97 C1668.77,707.29 1666.86,704.11 1666.21,703.85 C1664.95,703.41 1663.28,705.50 1662.99,707.73 C1662.90,708.49 1666.36,727.86 1666.64,735.06 C1666.74,738.12 1666.57,745.73 1666.00,747.02 C1665.37,748.35 1662.84,750.55 1660.58,751.77 C1657.64,753.28 1654.35,754.09 1653.57,753.39 C1653.04,752.83 1653.64,750.15 1654.59,747.82 C1656.82,742.40 1658.17,736.74 1658.13,733.01 C1658.02,726.13 1660.02,713.79 1660.49,709.83 C1660.72,707.69 1660.24,704.20 1659.39,702.51 C1658.87,701.51 1658.28,701.01 1657.64,701.00 C1656.66,701.07 1655.70,709.62 1655.63,712.76 C1655.56,716.39 1656.22,725.38 1656.28,726.98 C1656.40,730.73 1655.32,737.67 1654.08,742.07 C1652.98,745.86 1650.75,749.94 1648.36,751.46 C1647.73,751.85 1644.62,753.40 1643.43,753.98 C1641.06,755.08 1639.36,755.53 1639.24,754.92 C1639.20,754.49 1640.91,751.53 1641.87,750.20 C1643.57,747.90 1650.44,744.02 1650.33,743.96 C1650.08,743.86 1643.72,745.26 1643.12,745.32 C1642.05,745.41 1641.45,745.23 1641.32,744.78 C1641.19,744.02 1650.08,736.82 1649.91,736.44 C1649.85,736.34 1641.39,739.08 1641.09,738.63 C1640.86,738.14 1649.45,730.40 1649.22,729.88 C1648.95,729.45 1640.34,732.47 1640.07,732.15 C1639.78,731.77 1646.65,726.00 1646.70,725.76 C1646.70,725.58 1641.81,728.63 1641.31,728.86 C1640.07,729.41 1639.10,729.54 1638.39,729.23 C1637.40,728.75 1636.86,724.83 1637.34,722.64 C1637.82,720.72 1640.03,719.02 1641.74,719.23 C1643.06,719.40 1647.31,720.45 1648.47,719.78 C1650.15,718.76 1650.55,712.76 1650.66,711.39" fill="none" stroke="rgb(78, 150, 90)" stroke-width="12.00" stroke-opacity="1.00" stroke-linejoin="miter"/>
<path d="M1616.78,804.68 C1621.62,811.56 1630.21,824.99 1632.29,828.54 C1636.51,835.81 1641.41,846.84 1645.38,856.84 C1648.35,864.65 1654.11,889.47 1654.77,892.36" fill="none" stroke="rgb(0, 0, 0)" stroke-width="6.00" stroke-opacity="1.00" stroke-linejoin="miter"/>
<path d="M1654.43,892.27 C1654.43,892.27 1683.29,890.31 1683.29,890.31 C1684.45,880.83 1686.15,871.61 1688.71,861.96 C1691.84,851.10 1695.36,840.73 1698.50,833.60 C1707.21,814.48 1713.35,805.00 1717.69,798.87" fill="none" stroke="rgb(0, 0, 0)" stroke-width="6.00" stroke-opacity="1.00" stroke-linejoin="miter"/>
<path d="M1660.34,851.44 C1658.65,836.42 1655.90,813.02 1654.52,806.69 C1653.72,803.13 1651.35,797.38 1649.28,794.73 C1648.02,793.14 1643.87,789.16 1642.88,788.18" fill="none" stroke="rgb(0, 0, 0)" stroke-width="4.00" stroke-opacity="1.00" stroke-linejoin="miter"/>
<path d="M1660.27,851.36 C1660.08,833.86 1658.70,802.57 1657.32,793.93 C1656.31,787.81 1653.63,779.12 1653.36,778.25" fill="none" stroke="rgb(0, 0, 0)" stroke-width="4.00" stroke-opacity="1.00" stroke-linejoin="miter"/>
<path d="M1681.38,824.74 C1681.38,824.74 1682.31,781.51 1682.31,781.51" fill="none" stroke="rgb(0, 0, 0)" stroke-width="4.00" stroke-opacity="1.00" stroke-linejoin="miter"/>
<path d="M1681.30,824.43 C1684.57,813.89 1688.27,803.31 1691.97,796.19 C1693.83,792.66 1695.67,789.70 1697.83,786.47" fill="none" stroke="rgb(0, 0, 0)" stroke-width="4.00" stroke-opacity="1.00" stroke-linejoin="miter"/>
<path d="M1658.44,819.44 C1657.48,813.64 1656.69,809.30 1655.77,805.42 C1654.78,801.34 1652.70,796.01 1650.59,793.75 C1650.01,793.14 1645.71,789.59 1644.00,788.00" fill="none" stroke="rgb(0, 0, 0)" stroke-width="6.00" stroke-opacity="1.00" stroke-linejoin="miter"/>
<path d="M1657.75,811.62 C1657.01,804.14 1655.32,786.83 1654.81,784.94 C1654.27,782.95 1652.38,777.75 1652.00,776.69" fill="none" stroke="rgb(0, 0, 0)" stroke-width="6.00" stroke-opacity="1.00" stroke-linejoin="miter"/>
<path d="M1683.50,811.38 C1683.50,811.38 1683.50,778.88 1683.50,778.88" fill="none" stroke="rgb(0, 0, 0)" stroke-width="6.00" stroke-opacity="1.00" stroke-linejoin="miter"/>
<path d="M1684.50,811.38 C1688.84,801.78 1693.26,792.81 1698.31,785.69" fill="none" stroke="rgb(0, 0, 0)" stroke-width="6.00" stroke-opacity="1.00" stroke-linejoin="miter"/>
<path d="M1643.09,780.36 C1643.60,781.19 1642.13,786.54 1639.83,789.49 C1638.67,790.93 1636.06,793.00 1634.37,793.79 C1631.27,795.19 1624.62,795.67 1621.85,795.39 C1621.45,795.35 1620.86,795.27 1620.06,795.15" fill="none" stroke="rgb(0, 0, 0)" stroke-width="6.00" stroke-opacity="1.00" stroke-linejoin="round"/>
<path d="M1622.98,794.43 C1621.76,797.47 1616.42,802.49 1613.42,803.62 C1611.81,804.21 1608.55,804.62 1606.91,804.47 C1605.42,804.31 1602.59,803.15 1601.89,802.42 C1601.26,801.73 1601.06,800.49 1601.09,800.00 C1601.10,799.87 1601.14,799.59 1601.19,799.15" fill="none" stroke="rgb(0, 0, 0)" stroke-width="6.00" stroke-opacity="1.00" stroke-linejoin="round"/>
<path d="M1602.15,801.75 C1601.56,802.09 1595.79,802.34 1593.78,801.86 C1592.60,801.54 1589.98,799.81 1588.86,798.61 C1586.47,795.99 1584.80,790.15 1585.35,787.98 C1585.47,787.54 1585.97,786.57 1586.30,786.28 C1586.47,786.13 1586.92,785.79 1587.66,785.24" fill="none" stroke="rgb(0, 0, 0)" stroke-width="6.00" stroke-opacity="1.00" stroke-linejoin="round"/>
<path d="M1586.09,786.28 C1584.90,787.35 1579.42,787.65 1575.98,786.04 C1574.47,785.31 1571.67,783.25 1570.66,781.97 C1569.63,780.62 1568.11,777.32 1567.81,775.77 C1567.20,772.26 1569.05,768.90 1569.79,768.29 C1569.90,768.20 1570.15,768.01 1570.54,767.72" fill="none" stroke="rgb(0, 0, 0)" stroke-width="6.00" stroke-opacity="1.00" stroke-linejoin="round"/>
<path d="M1567.74,768.48 C1566.87,768.26 1564.47,767.09 1563.14,765.80 C1562.23,764.90 1560.12,761.71 1559.37,759.91 C1558.52,757.87 1557.75,753.84 1557.80,751.92 C1557.92,748.67 1560.68,742.74 1562.33,741.33 C1564.00,739.95 1565.64,740.02 1566.23,740.21 C1566.38,740.25 1566.55,740.35 1566.76,740.48" fill="none" stroke="rgb(0, 0, 0)" stroke-width="6.00" stroke-opacity="1.00" stroke-linejoin="round"/>
<path d="M1566.26,740.00 C1566.13,739.76 1566.54,736.96 1567.10,735.31 C1568.06,732.49 1571.34,727.29 1572.88,725.56 C1574.43,723.87 1577.80,721.46 1579.82,720.64 C1583.60,719.15 1589.60,719.28 1591.47,719.63 C1592.28,719.78 1593.75,720.17 1594.31,720.39 C1594.51,720.46 1594.89,720.63 1595.44,720.87" fill="none" stroke="rgb(0, 0, 0)" stroke-width="6.00" stroke-opacity="1.00" stroke-linejoin="round"/>
<path d="M1593.99,721.06 C1594.08,720.23 1594.48,718.98 1595.67,717.75 C1597.12,716.27 1599.93,714.76 1601.32,714.38 C1604.11,713.65 1609.89,714.36 1611.21,714.95 C1611.33,715.01 1611.57,715.13 1611.94,715.31" fill="none" stroke="rgb(0, 0, 0)" stroke-width="6.00" stroke-opacity="1.00" stroke-linejoin="round"/>
<path d="M1620.11,744.58 C1618.35,743.43 1613.70,733.65 1613.46,729.37 C1613.36,727.27 1614.00,722.66 1614.88,720.21 C1615.82,717.62 1619.16,711.97 1620.89,709.95 C1623.08,707.44 1626.58,705.10 1628.06,704.58 C1628.26,704.50 1628.70,704.37 1629.37,704.17" fill="none" stroke="rgb(0, 0, 0)" stroke-width="6.00" stroke-opacity="1.00" stroke-linejoin="round"/>
<path d="M1611.05,714.09 C1611.05,714.09 1616.24,716.76 1616.24,716.76" fill="none" stroke="rgb(0, 0, 0)" stroke-width="6.00" stroke-opacity="1.00" stroke-linejoin="round"/>
<path d="M1627.39,704.20 C1627.01,702.69 1631.67,693.16 1633.75,690.71 C1635.10,689.15 1638.85,686.05 1641.60,684.56 C1643.68,683.46 1649.23,681.66 1652.25,681.25 C1654.50,680.97 1658.66,681.42 1660.41,682.09 C1661.90,682.68 1663.39,684.04 1663.69,684.50 C1663.85,684.74 1664.00,684.98 1664.15,685.23" fill="none" stroke="rgb(0, 0, 0)" stroke-width="6.00" stroke-opacity="1.00" stroke-linejoin="round"/>
<path d="M1664.55,684.13 C1665.92,681.68 1671.95,677.34 1675.57,676.21 C1677.74,675.56 1682.12,675.05 1684.19,675.21 C1686.16,675.38 1689.39,676.31 1690.97,677.05 C1692.53,677.82 1695.53,680.03 1696.95,681.62 C1697.13,681.83 1697.47,682.23 1697.97,682.83" fill="none" stroke="rgb(0, 0, 0)" stroke-width="6.00" stroke-opacity="1.00" stroke-linejoin="round"/>
<path d="M1698.09,682.39 C1698.75,681.45 1701.68,680.12 1702.98,679.89 C1706.49,679.32 1714.21,680.55 1718.70,682.83 C1721.08,684.07 1725.41,687.41 1727.26,689.54 C1729.11,691.72 1731.83,696.81 1732.65,699.57 C1733.36,702.04 1733.70,706.72 1733.42,708.36 C1733.29,709.09 1732.99,710.09 1732.83,710.48" fill="none" stroke="rgb(0, 0, 0)" stroke-width="6.00" stroke-opacity="1.00" stroke-linejoin="round"/>
<path d="M1734.21,710.41 C1734.21,710.41 1733.99,710.58 1733.99,710.58 C1734.17,709.73 1739.11,708.04 1742.23,708.51 C1744.04,708.81 1747.49,710.16 1749.34,711.30 C1751.24,712.50 1754.62,715.54 1755.72,717.09 C1756.94,718.88 1757.74,721.96 1757.50,722.98 C1757.43,723.24 1757.36,723.49 1757.28,723.74" fill="none" stroke="rgb(0, 0, 0)" stroke-width="6.00" stroke-opacity="1.00" stroke-linejoin="round"/>
<path d="M1757.27,723.46 C1758.13,722.49 1760.37,721.66 1762.00,721.57 C1764.10,721.47 1766.98,722.08 1768.34,722.69 C1769.95,723.46 1772.71,725.69 1773.89,727.24 C1776.13,730.26 1778.12,737.59 1777.75,740.14 C1777.59,741.10 1776.85,742.41 1776.60,742.59 C1776.46,742.68 1776.08,742.88 1775.47,743.18" fill="none" stroke="rgb(0, 0, 0)" stroke-width="6.00" stroke-opacity="1.00" stroke-linejoin="round"/>
<path d="M1775.39,743.64 C1777.63,744.76 1781.13,751.27 1781.58,754.50 C1781.81,756.22 1781.44,759.38 1780.83,761.07 C1780.21,762.76 1778.09,766.11 1776.61,767.68 C1773.23,771.20 1767.47,773.75 1766.18,773.89 C1765.13,773.99 1763.98,773.84 1763.38,773.59" fill="none" stroke="rgb(0, 0, 0)" stroke-width="6.00" stroke-opacity="1.00" stroke-linejoin="round"/>
<path d="M1765.87,773.04 C1766.93,773.37 1767.90,774.69 1768.15,776.52 C1768.43,778.83 1765.81,785.65 1763.29,788.31 C1762.13,789.51 1759.48,791.28 1757.66,791.83 C1756.75,792.08 1754.56,791.93 1753.56,791.09 C1753.37,790.93 1753.11,790.62 1752.75,790.15" fill="none" stroke="rgb(0, 0, 0)" stroke-width="6.00" stroke-opacity="1.00" stroke-linejoin="round"/>
<path d="M1751.46,791.25 C1752.19,792.02 1752.59,793.04 1751.83,794.36 C1750.64,796.33 1746.55,800.52 1743.19,802.62 C1741.61,803.58 1737.84,804.71 1735.94,804.70 C1734.10,804.67 1730.17,803.71 1728.27,802.88 C1726.34,802.01 1723.06,799.72 1721.71,798.23 C1718.97,795.14 1718.04,791.28 1718.26,790.38 C1718.30,790.26 1718.38,790.00 1718.51,789.60" fill="none" stroke="rgb(0, 0, 0)" stroke-width="6.00" stroke-opacity="1.00" stroke-linejoin="round"/>
<path d="M1718.28,793.66 C1717.78,794.67 1709.48,793.68 1706.27,792.26 C1704.17,791.30 1700.75,788.72 1699.25,786.96 C1697.78,785.21 1695.56,781.21 1694.86,779.16 C1694.17,777.09 1693.70,773.63 1693.96,772.68 C1694.04,772.40 1694.13,772.13 1694.21,771.86" fill="none" stroke="rgb(0, 0, 0)" stroke-width="6.00" stroke-opacity="1.00" stroke-linejoin="round"/>
<path d="M1692.05,770.78 C1692.05,770.78 1692.17,771.00 1692.17,771.00 C1691.67,772.72 1683.59,778.64 1678.58,780.48 C1675.66,781.54 1669.91,782.28 1666.97,781.97 C1664.27,781.65 1658.86,779.80 1655.98,778.13 C1654.17,777.06 1650.41,774.03 1648.99,772.59 C1648.25,771.82 1647.02,770.19 1646.50,769.28 C1646.35,769.01 1646.17,768.64 1645.98,768.15" fill="none" stroke="rgb(0, 0, 0)" stroke-width="6.00" stroke-opacity="1.00" stroke-linejoin="round"/>
<path d="M1650.31,775.56 C1648.21,776.24 1639.84,777.69 1636.59,777.06 C1634.35,776.59 1629.80,774.39 1627.70,772.54 C1625.43,770.49 1621.82,764.90 1620.68,761.62 C1619.00,756.72 1619.19,750.00 1619.72,748.43 C1620.00,747.63 1620.54,747.06 1621.24,746.47" fill="none" stroke="rgb(0, 0, 0)" stroke-width="6.00" stroke-opacity="1.00" stroke-linejoin="round"/>
<path d="M1587.61,766.35 C1586.50,765.22 1584.27,759.34 1584.57,756.82 C1584.94,753.99 1587.46,748.80 1588.52,747.26 C1590.28,744.81 1593.49,742.60 1594.96,742.05 C1595.17,741.98 1595.51,741.87 1595.99,741.73" fill="none" stroke="rgb(0, 0, 0)" stroke-width="6.00" stroke-opacity="1.00" stroke-linejoin="round"/>
<path d="M1643.46,718.68 C1643.08,719.20 1644.56,716.11 1650.14,714.42 C1655.14,713.00 1663.73,713.83 1664.72,714.26 C1664.96,714.37 1665.38,714.62 1665.98,715.03" fill="none" stroke="rgb(0, 0, 0)" stroke-width="6.00" stroke-opacity="1.00" stroke-linejoin="round"/>
<path d="M1728.83,742.82 C1728.93,742.73 1731.51,742.94 1732.66,743.40 C1734.21,744.05 1736.71,746.36 1737.48,747.72 C1740.90,754.14 1740.04,757.59 1739.78,757.87 C1739.72,757.94 1739.58,758.05 1739.35,758.21" fill="none" stroke="rgb(0, 0, 0)" stroke-width="6.00" stroke-opacity="1.00" stroke-linejoin="round"/>
</g>
</svg>
