<?xml version="1.0" standalone="no"?>
<!DOCTYPE svg PUBLIC "-//W3C//DTD SVG 20010904//EN" "http://www.w3.org/TR/2001/REC-SVG-20010904/DTD/svg10.dtd">
<svg xmlns="http://www.w3.org/2000/svg" version="1.0" width="474.000000pt" height="414.000000pt" viewBox="0 0 474.000000 414.000000" preserveAspectRatio="xMidYMid meet">
<metadata>
Created by potrace 1.16, written by Peter Selinger 2001-2019
<meta name="Producer" content="Online-Convert"/></metadata>
<g transform="translate(0.000000,414.000000) scale(0.100000,-0.100000)" fill="#000000" stroke="none">
<path d="M2245 3585 c4 -16 10 -46 14 -65 4 -19 15 -49 24 -67 22 -41 116 -134 187 -184 30 -21 74 -52 98 -69 23 -16 49 -30 56 -30 8 0 17 -7 20 -16 5 -12 1 -14 -17 -8 -12 4 -36 8 -53 9 -19 1 -65 22 -114 54 -45 28 -103 59 -129 67 -50 17 -159 67 -316 144 -55 28 -104 50 -108 50 -17 0 -5 -21 19 -32 24 -11 24 -13 8 -25 -15 -11 -13 -17 32 -58 27 -24 62 -51 78 -59 44 -22 15 -30 -111 -32 -99 -2 -116 -4 -144 -25 -29 -21 -30 -23 -14 -35 20 -15 23 -13 -59 -33 -56 -14 -66 -9 -41 19 18 20 17 20 -12 20 -17 0 -47 -12 -69 -26 -29 -20 -46 -25 -71 -21 -18 3 -33 2 -33 -4 0 -5 5 -9 12 -9 6 0 9 -3 5 -6 -3 -4 0 -13 8 -21 11 -11 20 -11 37 -3 23 11 23 11 3 -5 -11 -10 -32 -21 -47 -27 -16 -5 -28 -14 -28 -19 0 -5 -6 -9 -13 -9 -8 0 -19 -11 -25 -25 -15 -31 -25 -32 -42 0 -15 27 -26 24 -76 -22 -38 -34 -54 -63 -54 -96 0 -38 23 -39 71 -4 l44 32 -22 -31 c-13 -17 -34 -39 -48 -48 -14 -9 -25 -24 -25 -34 0 -10 -6 -27 -14 -38 -13 -17 -14 -16 -6 19 10 45 -5 60 -31 29 -23 -29 -29 -28 -29 8 0 36 -9 38 -39 6 -23 -25 -85 -165 -76 -174 2 -3 12 1 21 9 16 13 17 11 11 -20 -9 -44 -12 -46 -41 -33 -20 9 -27 7 -49 -16 -23 -25 -25 -33 -23 -117 2 -95 -9 -132 -35 -127 -39 7 -76 -91 -47 -126 9 -9 18 -32 21 -50 4 -18 13 -40 21 -47 12 -13 11 -20 -5 -52 -10 -20 -19 -49 -19 -64 0 -15 -7 -29 -16 -33 -26 -10 -36 -7 -30 9 7 20 -11 19 -22 -2 -15 -25 -2 -95 23 -125 13 -15 26 -24 29 -21 11 11 6 -42 -9 -91 -8 -27 -15 -67 -15 -88 0 -35 2 -38 19 -28 31 16 37 12 13 -10 -12 -12 -22 -30 -22 -40 0 -26 -12 -25 -28 0 -7 12 -17 18 -22 15 -16 -10 -11 42 5 55 16 13 21 55 7 64 -25 16 -59 -65 -40 -98 15 -27 -1 -102 -28 -127 -16 -15 -24 -33 -23 -53 0 -30 1 -30 11 -8 6 12 14 22 18 22 17 0 19 -32 5 -54 -9 -13 -19 -43 -24 -67 -4 -28 -12 -43 -20 -41 -24 5 -51 -39 -51 -82 1 -38 2 -40 15 -22 8 11 15 26 15 33 0 7 4 13 8 13 5 0 14 10 21 23 11 22 11 22 5 -3 -4 -14 -6 -44 -5 -67 0 -23 -3 -45 -9 -48 -6 -4 -10 7 -10 27 -1 30 -2 31 -12 13 -6 -11 -14 -22 -18 -25 -12 -9 -40 -90 -40 -115 0 -17 8 -29 25 -37 l24 -11 -20 -39 c-12 -24 -25 -38 -34 -35 -7 3 -22 -5 -34 -17 -28 -30 -28 -89 0 -117 18 -18 19 -24 9 -55 -15 -44 -7 -78 31 -125 22 -27 28 -44 24 -62 -8 -32 18 -55 40 -37 9 8 19 9 24 4 4 -5 26 -32 49 -60 40 -49 45 -52 99 -58 135 -15 158 -18 168 -27 12 -12 79 -11 91 1 7 7 17 5 30 -5 15 -12 16 -14 3 -15 -22 0 -51 -35 -47 -57 2 -10 15 -20 33 -24 69 -15 489 -7 895 16 518 30 626 38 714 55 54 11 109 20 121 20 12 0 28 7 35 15 7 8 27 19 44 23 51 13 69 73 26 87 -34 11 -11 46 49 72 31 14 82 42 113 64 32 21 62 39 68 39 5 0 14 8 19 18 5 9 24 24 43 33 18 9 44 22 58 28 29 14 104 124 88 130 -6 2 -15 -4 -20 -13 -5 -9 -13 -16 -19 -16 -5 0 0 14 13 30 14 19 28 28 38 25 24 -8 67 30 106 91 40 62 41 70 14 79 -18 6 -18 8 -5 21 8 9 15 28 15 44 0 16 4 40 10 55 8 20 14 24 33 20 25 -7 54 16 43 33 -3 5 3 17 14 27 14 13 20 31 20 60 0 47 25 141 41 150 13 8 77 -58 109 -113 18 -32 39 -50 84 -72 32 -17 65 -30 72 -30 7 0 34 -9 60 -20 40 -18 52 -19 76 -9 15 6 28 14 28 16 0 13 -36 81 -53 100 -17 19 -18 25 -7 38 11 13 11 23 0 58 -8 23 -14 47 -15 52 0 6 -5 22 -9 38 -5 17 -4 32 3 41 7 9 8 17 3 20 -6 3 -13 22 -16 41 -4 19 -10 35 -15 35 -4 0 -14 19 -21 43 -7 23 -26 68 -42 100 -23 46 -33 57 -46 52 -9 -4 -34 -9 -54 -12 -23 -3 -35 -10 -32 -18 3 -8 -4 -10 -24 -7 -24 3 -29 9 -28 28 0 15 7 24 16 23 8 -1 30 -1 48 0 38 1 44 25 10 41 -21 10 -21 10 -5 -3 16 -14 16 -15 -5 -21 -15 -4 -27 0 -35 11 -15 20 -17 37 -3 28 6 -3 10 -1 10 4 0 6 -5 11 -10 11 -6 0 -8 11 -4 26 5 21 0 31 -24 54 -28 25 -31 34 -31 83 1 31 -2 60 -5 66 -4 5 5 26 19 46 13 21 23 41 20 44 -2 4 -22 14 -45 21 -51 17 -54 22 -30 48 20 21 20 21 -2 36 -17 12 -19 19 -11 27 7 7 8 20 3 33 -9 25 -2 76 11 76 5 0 9 5 9 11 0 6 -8 9 -18 7 -12 -4 -18 1 -19 12 -1 13 7 19 28 22 16 3 29 1 29 -3 0 -4 15 -17 34 -28 l34 -22 38 26 c47 32 55 44 47 72 -5 22 12 34 19 13 5 -15 43 -1 56 21 7 11 8 19 2 19 -5 0 -10 -4 -10 -10 0 -20 -18 -9 -24 15 -4 14 -13 25 -21 25 -7 0 -17 9 -20 21 -8 25 3 39 14 20 7 -11 12 -8 21 10 10 17 10 24 1 27 -14 5 -15 32 -1 32 6 0 10 7 10 16 0 8 -4 12 -10 9 -6 -3 -10 5 -10 18 0 21 -6 26 -37 30 -85 12 -148 30 -171 48 -14 10 -31 19 -38 19 -8 0 -14 6 -14 13 0 12 -60 52 -60 39 0 -4 -4 -13 -9 -21 -12 -19 -51 21 -51 54 0 16 -6 25 -15 25 -8 0 -15 -4 -15 -9 0 -13 -61 -25 -69 -15 -3 5 -12 10 -19 12 -10 2 -12 -4 -7 -20 3 -13 3 -18 -2 -13 -4 6 -16 16 -26 24 -16 13 -16 11 -2 -23 15 -36 15 -36 -5 -24 -16 10 -25 10 -49 -5 -16 -9 -38 -17 -49 -17 -12 0 -24 -4 -27 -10 -10 -16 -55 -12 -55 5 0 8 -5 15 -11 15 -6 0 -9 7 -5 15 3 8 1 26 -4 40 -7 20 -6 25 5 25 8 0 15 5 15 10 0 6 -9 10 -20 10 -11 0 -20 -4 -20 -10 0 -5 -18 -10 -40 -10 -40 0 -46 7 -41 46 1 7 -10 14 -23 16 -17 3 -23 1 -19 -8 3 -8 -2 -11 -15 -7 -11 2 -23 0 -27 -6 -3 -6 -3 -11 2 -10 4 1 17 0 28 -1 14 -2 11 -4 -10 -9 -27 -6 -30 -10 -27 -39 2 -18 -1 -32 -7 -32 -6 0 -11 7 -11 16 0 22 -32 53 -38 36 -5 -15 -32 -16 -32 -1 0 8 -4 8 -14 -1 -8 -6 -12 -18 -9 -26 8 -21 -17 -17 -36 7 -10 13 -30 22 -51 23 -41 2 -52 23 -14 28 24 3 26 5 13 18 -24 25 -64 83 -89 128 -13 23 -30 42 -37 42 -7 0 -12 5 -11 12 2 7 -2 12 -9 13 -6 0 -14 3 -18 7 -4 4 -12 5 -18 2 -17 -6 -78 94 -86 141 -5 29 -12 41 -26 43 -52 8 -72 23 -67 48 2 14 0 24 -7 24 -6 0 -11 -9 -11 -20 0 -22 -5 -23 -35 -10 -19 8 -19 9 -1 9 26 1 10 16 -17 16 -12 0 -21 6 -19 13 1 6 -1 12 -5 13 -5 0 -45 4 -91 8 l-84 6 7 -30z"/>
</g>
</svg>
