<?xml version="1.0" encoding="UTF-8" standalone="no"?>
<!DOCTYPE svg PUBLIC "-//W3C//DTD SVG 1.1//EN" "http://www.w3.org/Graphics/SVG/1.1/DTD/svg11.dtd">
<svg width="1920.00" height="1080.00" viewBox="0.00 0.00 1920.00 1080.00" xmlns="http://www.w3.org/2000/svg" xmlns:xlink="http://www.w3.org/1999/xlink">
<g stroke-linecap="round" id="Capa_22">
<path d="M1636.37,261.77 C1634.10,262.22 1631.33,262.27 1630.66,261.58 C1630.14,261.02 1633.55,252.93 1634.28,248.72 C1634.57,247.02 1635.90,236.95 1636.72,233.09 C1638.34,225.75 1641.12,212.71 1641.14,211.10 C1641.15,210.23 1641.17,207.65 1641.90,207.67 C1642.38,207.71 1663.04,217.08 1666.45,219.00 C1669.86,220.93 1675.86,224.69 1677.53,225.96 C1679.99,227.85 1695.27,242.80 1697.55,246.00 C1697.91,246.50 1703.15,253.79 1705.75,255.56 C1707.42,256.72 1708.28,257.35 1708.35,257.48 C1708.82,258.40 1707.67,260.67 1706.52,261.69 C1704.34,263.50 1697.02,268.25 1694.76,270.24 C1691.91,272.81 1688.78,277.72 1687.70,281.76 C1686.81,285.18 1685.37,289.76 1683.69,294.32 C1682.16,298.57 1680.77,306.68 1680.75,306.62 C1680.65,306.32 1679.71,294.24 1678.62,291.00 C1677.60,288.01 1675.02,283.45 1673.58,281.95 C1672.70,281.09 1672.61,282.52 1673.30,284.50 C1673.67,285.55 1676.60,293.09 1676.85,293.92 C1677.15,294.99 1676.53,294.76 1675.89,293.88 C1674.46,291.85 1668.99,282.62 1667.46,280.28 C1664.87,276.38 1659.21,269.71 1656.40,268.21 C1655.40,267.70 1643.86,263.23 1640.75,262.62 C1640.10,262.51 1665.20,271.28 1669.15,274.23 C1669.45,274.45 1672.34,277.34 1673.22,277.41 C1675.41,277.51 1682.06,273.94 1685.22,271.70 C1689.13,268.90 1695.50,263.19 1696.12,262.00 C1697.09,260.02 1696.87,256.35 1695.53,255.55 C1694.43,254.96 1691.28,255.83 1689.59,256.98 C1687.04,258.79 1679.76,265.56 1679.88,265.38 C1680.35,264.74 1689.57,255.33 1690.35,253.84 C1690.82,252.87 1689.74,252.50 1688.28,253.02 C1685.74,253.98 1669.46,262.33 1669.25,262.12 C1668.88,261.29 1683.49,248.98 1683.25,249.12 C1682.53,249.61 1664.21,264.02 1662.79,264.89 C1662.16,265.25 1662.37,264.78 1663.12,264.00 C1664.80,262.29 1672.50,255.19 1676.94,251.11 C1681.37,246.98 1685.65,241.90 1685.38,241.12 C1684.98,240.43 1679.27,242.46 1674.17,245.12 C1666.33,249.29 1660.07,252.44 1657.48,253.44 C1656.30,253.87 1655.21,253.80 1655.47,253.19 C1656.06,252.00 1667.71,242.27 1668.72,241.30 C1669.42,240.62 1669.29,240.47 1668.58,240.90 C1666.83,241.99 1652.38,251.96 1648.41,253.95 C1646.58,254.83 1642.87,255.78 1641.44,255.54 C1640.05,255.27 1638.13,252.68 1637.72,251.06 C1637.46,249.76 1637.86,247.21 1638.50,246.10 C1639.27,244.88 1641.83,242.70 1643.31,242.06 C1644.79,241.47 1648.92,241.04 1650.91,241.28 C1652.52,241.49 1659.15,243.16 1659.26,243.18 C1660.25,243.36 1659.96,242.72 1658.86,242.08 C1657.55,241.31 1646.95,235.69 1646.12,234.00 C1645.61,232.82 1645.61,231.83 1646.12,231.05 C1646.67,230.22 1651.73,227.26 1652.12,226.75 C1653.10,225.51 1652.43,224.24 1650.35,222.64 C1649.06,221.68 1649.47,221.47 1651.23,222.17 C1658.47,225.11 1680.59,233.19 1680.68,233.26 C1681.99,234.37 1665.38,234.10 1660.00,234.00" fill="none" stroke="rgb(82, 150, 67)" stroke-width="16.10" stroke-opacity="1.00" stroke-linejoin="miter"/>
<path d="M1660.00,234.00 C1660.00,234.00 1707.38,277.62 1707.38,277.62" fill="none" stroke="rgb(82, 150, 67)" stroke-width="16.10" stroke-opacity="1.00" stroke-linejoin="miter"/>
<path d="M1687.75,303.12 C1689.71,301.81 1695.45,297.98 1698.77,296.74 C1705.11,294.43 1723.64,291.56 1731.51,291.11 C1735.74,290.89 1742.52,291.33 1744.53,292.67 C1746.58,294.21 1753.90,299.24 1756.05,299.85 C1757.73,300.29 1760.00,299.35 1760.61,298.10 C1761.24,296.66 1762.88,288.56 1764.05,284.22 C1766.45,275.39 1771.48,267.83 1771.88,265.62 C1772.22,263.55 1771.14,253.34 1771.25,252.12 C1771.40,250.07 1771.45,248.99 1771.38,248.88 C1771.28,248.75 1747.12,253.73 1742.00,255.25 C1735.29,257.26 1721.92,263.64 1715.68,266.59 C1711.54,268.53 1705.64,272.16 1702.63,275.04 C1701.17,276.45 1697.78,280.44 1696.93,281.48 C1695.44,283.35 1694.88,284.98 1695.45,285.93 C1696.00,286.72 1697.66,286.93 1699.72,286.60 C1713.08,284.35 1722.07,283.65 1730.28,284.24 C1733.39,284.48 1741.65,285.31 1743.66,285.77 C1745.41,286.16 1748.21,288.11 1749.37,288.42 C1750.97,288.82 1753.16,287.44 1754.23,285.57 C1756.11,282.10 1760.00,273.62 1761.08,270.56 C1762.70,265.79 1763.00,262.75 1762.38,262.00 C1762.22,261.83 1736.32,268.29 1733.38,269.12 C1721.36,272.56 1716.99,274.92 1717.12,275.38 C1717.18,275.49 1737.18,276.61 1742.25,276.88 C1743.94,274.57 1744.77,274.03 1747.50,273.62 C1748.04,273.54 1748.96,273.29 1750.25,272.88" fill="none" stroke="rgb(82, 150, 67)" stroke-width="16.10" stroke-opacity="1.00" stroke-linejoin="miter"/>
<path d="M1750.25,272.88 C1750.25,272.88 1739.85,265.79 1739.85,265.79" fill="none" stroke="rgb(82, 150, 67)" stroke-width="16.10" stroke-opacity="1.00" stroke-linejoin="miter"/>
<path d="M1688.58,281.32 C1684.41,273.02 1677.90,262.85 1672.01,255.51 C1669.14,251.95 1666.63,249.60 1663.65,247.34" fill="none" stroke="rgb(0, 0, 0)" stroke-width="5.10" stroke-opacity="1.00" stroke-linejoin="miter"/>
<path d="M1712.57,293.10 C1718.29,288.75 1733.29,277.49 1736.72,275.57 C1739.62,273.96 1746.34,270.86 1749.45,269.45" fill="none" stroke="rgb(0, 0, 0)" stroke-width="5.10" stroke-opacity="1.00" stroke-linejoin="miter"/>
<path d="M1719.14,293.10 C1721.05,290.85 1726.06,285.03 1728.11,283.11 C1731.51,279.97 1744.46,272.08 1747.58,270.22" fill="none" stroke="rgb(0, 0, 0)" stroke-width="5.10" stroke-opacity="1.00" stroke-linejoin="miter"/>
<path d="M1624.17,263.84 C1624.78,254.48 1625.68,244.42 1626.77,237.11 C1627.91,229.51 1631.76,216.51 1635.17,207.94 C1636.53,204.49 1639.22,200.17 1640.19,198.97" fill="none" stroke="rgb(0, 0, 0)" stroke-width="6.00" stroke-opacity="1.00" stroke-linejoin="miter"/>
<path d="M1639.46,198.97 C1649.30,201.26 1659.33,205.24 1666.06,209.09 C1672.33,212.70 1684.88,221.84 1691.14,227.13 C1697.59,232.59 1706.34,241.56 1711.48,248.12 C1713.62,250.91 1715.18,253.69 1716.84,257.23" fill="none" stroke="rgb(0, 0, 0)" stroke-width="6.00" stroke-opacity="1.00" stroke-linejoin="miter"/>
<path d="M1679.13,311.36 C1679.62,308.63 1681.02,300.70 1682.09,297.45 C1683.45,293.40 1687.23,286.07 1689.29,282.82 C1691.56,279.28 1696.64,272.61 1698.86,270.25 C1701.82,267.14 1707.49,262.70 1711.22,260.42 C1717.26,256.78 1729.74,251.54 1737.12,249.24 C1741.44,247.91 1763.90,242.59 1767.36,242.15 C1771.81,241.60 1775.98,241.97 1777.07,242.05 C1777.75,248.40 1776.87,266.22 1776.32,270.89 C1775.83,274.91 1774.41,281.65 1773.32,284.65 C1771.14,290.52 1764.48,301.53 1761.98,305.58" fill="none" stroke="rgb(0, 0, 0)" stroke-width="6.00" stroke-opacity="1.00" stroke-linejoin="miter"/>
<path d="M1603.38,362.12 L1589.62,349.62 L1582.75,338.50 L1577.75,326.12 L1575.75,319.25 L1577.38,306.88 L1582.62,295.75 L1586.25,288.38 L1592.50,283.38 L1610.12,277.12 L1616.62,275.25 L1631.62,276.00 L1644.50,278.88 L1652.75,285.25 L1658.75,291.62 L1663.12,304.12 L1666.00,314.75 L1667.00,319.50 L1667.38,326.25 L1666.12,334.38 L1663.50,340.00 L1639.88,333.62 L1621.88,333.75 L1609.62,336.88 L1602.62,347.75 L1599.50,346.50 L1592.62,337.38 L1590.62,327.88 L1586.00,317.12 L1587.75,305.00 L1598.50,291.00 L1615.38,286.88 L1628.00,284.00 L1643.50,289.62 L1649.12,292.75 L1654.75,305.25 L1659.25,322.38 L1657.75,331.38 L1627.62,324.62 L1609.62,327.12 L1601.38,332.38 L1598.50,329.50 L1595.88,317.50 L1598.62,304.12 L1608.75,298.62 L1627.75,296.25 L1636.62,299.50 L1644.88,308.38 L1648.88,319.38 L1645.62,318.62 L1617.00,315.75 L1601.50,319.00 L1602.62,310.75 L1618.75,308.25 L1631.75,310.50 L1643.12,298.12" fill="none" stroke="rgb(155, 190, 255)" stroke-width="14.10" stroke-opacity="1.00" stroke-linejoin="miter"/>
<path d="M1598.25,372.62 C1597.90,375.94 1597.07,384.42 1597.25,388.12 C1597.43,391.21 1598.82,397.13 1600.08,400.75 C1601.20,403.92 1604.56,411.15 1606.01,413.58 C1608.04,416.91 1612.97,422.04 1616.44,424.43 C1619.31,426.37 1626.74,430.20 1630.20,431.16 C1632.47,431.77 1640.89,432.89 1644.37,433.14 C1649.21,433.46 1654.87,433.20 1658.56,432.13 C1662.77,430.86 1668.51,427.51 1669.96,425.07 C1670.50,424.15 1673.24,416.88 1675.19,413.71 C1677.26,410.60 1681.31,404.30 1682.02,401.02 C1682.23,400.00 1682.95,389.77 1683.14,386.41 C1683.41,381.58 1682.38,375.14 1680.64,371.99 C1679.29,369.60 1675.12,364.97 1672.50,362.00 C1670.35,359.67 1668.24,358.77 1662.21,356.81 C1657.75,355.42 1647.36,352.31 1646.00,352.00 C1640.91,350.90 1634.51,351.34 1631.57,351.79 C1628.27,352.33 1621.57,353.60 1618.00,354.76 C1615.65,355.56 1613.09,356.91 1612.12,358.00 C1610.45,360.01 1609.77,367.66 1610.00,371.38 C1610.62,380.01 1612.43,391.58 1614.25,397.62 C1615.72,402.38 1618.47,407.44 1621.23,409.77 C1624.08,412.09 1630.38,415.42 1634.26,416.37 C1637.72,417.19 1646.48,418.06 1649.87,417.52 C1653.24,416.93 1658.56,413.53 1661.57,410.46 C1664.48,407.42 1667.53,402.51 1668.50,399.25 C1669.44,395.98 1669.92,390.16 1669.72,385.43 C1669.59,382.86 1669.10,379.74 1668.51,378.05 C1667.87,376.35 1666.11,373.70 1664.83,372.50 C1662.38,370.32 1654.94,367.49 1649.75,366.62 C1644.06,365.72 1625.29,365.88 1621.75,367.25 C1619.50,368.18 1617.58,370.00 1617.37,371.61 C1617.15,373.82 1618.69,380.48 1620.28,384.61 C1620.91,386.22 1624.17,393.94 1625.72,396.64 C1626.73,398.34 1632.20,400.05 1637.50,401.00 C1640.60,401.52 1644.18,401.86 1646.25,401.75 C1648.27,401.60 1651.50,400.40 1652.70,399.28 C1654.29,397.69 1656.76,389.60 1656.85,387.03 C1656.87,385.32 1655.65,383.39 1653.88,382.12 C1652.17,380.98 1644.50,378.45 1640.68,377.78 C1638.82,377.48 1635.18,377.58 1633.59,378.07 C1631.97,378.62 1630.30,380.68 1630.62,381.75 C1631.04,382.89 1633.06,384.58 1636.18,386.58 C1638.48,388.03 1640.11,388.49 1643.00,388.75" fill="none" stroke="rgb(155, 190, 255)" stroke-width="21.00" stroke-opacity="1.00" stroke-linejoin="miter"/>
<path d="M1643.00,388.75 C1653.57,377.35 1672.04,357.13 1674.90,353.63 C1678.17,349.54 1681.05,344.81 1680.48,342.32 C1679.64,338.76 1680.00,334.87 1681.44,331.39 C1682.88,328.02 1686.44,322.79 1688.99,320.38 C1691.35,318.18 1696.69,314.04 1698.85,312.90 C1702.04,311.25 1722.79,305.50 1723.64,305.57 C1724.26,305.62 1727.55,307.13 1728.25,307.25 C1729.19,307.42 1734.44,306.69 1734.77,306.67 C1738.52,306.56 1746.09,309.42 1750.19,311.66 C1753.87,313.72 1757.17,317.15 1758.30,320.11 C1759.07,322.23 1763.19,339.58 1764.04,349.07 C1764.44,354.23 1763.82,361.52 1762.28,364.22 C1761.62,365.34 1758.83,368.16 1758.14,368.85 C1757.12,369.87 1755.97,372.11 1755.65,373.69 C1755.48,374.50 1754.80,377.08 1753.41,378.17 C1751.06,379.94 1744.66,381.71 1743.07,383.07 C1741.85,384.12 1739.83,387.44 1739.03,388.31 C1737.88,389.52 1734.59,391.05 1732.63,391.36 C1729.55,391.79 1719.84,391.52 1716.73,390.92 C1713.71,390.30 1709.18,388.23 1705.43,385.85 C1702.31,383.84 1700.39,381.88 1698.69,378.58 C1695.09,371.45 1688.10,357.62 1688.00,357.40 C1687.31,355.80 1687.29,353.89 1688.07,353.30 C1688.89,352.76 1692.40,352.53 1694.53,352.86 C1697.09,353.30 1700.24,354.86 1701.59,356.36 C1702.55,357.51 1703.70,360.60 1703.86,362.24 C1703.94,364.12 1704.18,367.75 1704.78,369.40 C1705.38,370.96 1707.39,373.56 1708.81,374.61 C1710.27,375.64 1713.92,377.14 1716.09,377.62 C1720.18,378.48 1728.06,377.71 1731.94,376.32 C1739.37,373.58 1750.22,365.80 1752.53,363.01 C1753.90,361.31 1754.30,359.02 1753.52,357.84 C1752.55,356.55 1745.94,354.56 1741.49,354.14 C1737.37,353.78 1729.52,354.45 1725.82,355.45 C1724.25,355.89 1713.57,359.37 1712.84,359.43 C1711.13,359.57 1706.16,359.28 1706.59,359.32 C1706.96,359.34 1731.86,362.50 1737.58,362.14 C1739.07,362.02 1742.87,361.43 1744.09,361.02 C1746.53,360.14 1749.64,358.08 1750.58,356.49 C1751.39,355.06 1752.03,351.32 1751.94,349.37 C1751.82,347.76 1750.97,345.04 1750.23,344.09 C1749.18,342.87 1746.37,341.38 1744.39,341.07 C1740.79,340.57 1731.67,341.72 1727.94,342.86 C1725.49,343.63 1717.51,347.33 1714.54,347.67 C1711.04,348.02 1704.05,346.35 1700.18,344.15 C1698.46,343.15 1695.72,341.16 1694.48,340.04 C1693.36,338.95 1692.31,336.79 1692.49,335.63 C1692.74,334.44 1695.36,332.23 1697.19,331.73 C1700.45,330.90 1709.29,331.62 1712.69,332.25 C1724.60,334.67 1734.88,335.74 1739.00,335.23 C1741.26,334.93 1744.94,333.29 1745.88,332.29 C1746.68,331.33 1746.42,329.34 1745.33,328.24 C1742.76,325.80 1734.21,322.40 1730.34,322.10 C1727.55,321.92 1713.69,323.64 1709.89,324.09" fill="none" stroke="rgb(155, 190, 255)" stroke-width="21.00" stroke-opacity="1.00" stroke-linejoin="miter"/>
<path d="M1587.65,301.35 C1588.78,300.24 1590.43,298.67 1590.28,298.21 C1589.87,296.84 1587.62,295.49 1587.90,295.39 C1587.97,295.37 1594.04,293.82 1594.06,293.65 C1594.24,292.90 1593.45,292.94 1591.69,293.78 C1591.20,294.01 1590.26,295.24 1590.79,295.13 C1591.52,295.08 1593.66,292.28 1594.45,292.50 C1595.23,292.72 1597.68,296.89 1597.33,297.70 C1597.20,298.00 1594.23,299.81 1594.13,300.39 C1593.93,301.21 1593.98,303.15 1593.81,303.08 C1593.30,302.87 1591.01,300.00 1591.24,299.68 C1591.52,299.31 1592.61,299.42 1592.46,298.98 C1592.28,298.45 1590.77,298.56 1591.05,298.08 C1591.45,297.61 1592.79,298.56 1592.91,297.95 C1592.96,297.39 1591.02,296.78 1591.56,296.93 C1592.68,297.23 1593.79,298.66 1594.83,298.14 C1595.69,297.69 1592.94,297.10 1592.71,296.16 C1592.66,295.91 1593.36,295.80 1594.83,295.84" fill="none" stroke="rgb(52, 93, 169)" stroke-width="4.00" stroke-opacity="1.00" stroke-linejoin="miter"/>
<path d="M1594.83,295.84 C1594.83,295.84 1587.93,300.34 1587.93,300.34" fill="none" stroke="rgb(52, 93, 169)" stroke-width="4.00" stroke-opacity="1.00" stroke-linejoin="miter"/>
<path d="M1593.60,302.78 C1593.60,302.78 1591.74,299.36 1591.74,299.36" fill="none" stroke="rgb(52, 93, 169)" stroke-width="4.00" stroke-opacity="1.00" stroke-linejoin="miter"/>
<path d="M1594.18,304.54 C1594.18,304.54 1593.50,297.90 1593.50,297.90" fill="none" stroke="rgb(52, 93, 169)" stroke-width="4.00" stroke-opacity="1.00" stroke-linejoin="miter"/>
<path d="M1621.39,311.11 C1621.39,311.11 1628.33,302.64 1628.33,302.64" fill="none" stroke="rgb(155, 190, 255)" stroke-width="4.00" stroke-opacity="1.00" stroke-linejoin="miter"/>
<path d="M1622.67,420.11 C1625.20,421.94 1636.19,420.93 1636.31,420.80 C1636.36,420.67 1632.94,420.42 1631.18,420.43 C1629.11,420.47 1627.00,421.44 1626.49,422.61 C1626.20,423.34 1625.39,426.85 1625.45,427.84 C1625.57,428.49 1627.64,424.77 1628.41,424.49 C1629.65,424.03 1634.13,427.78 1634.32,427.56 C1635.19,426.27 1628.03,417.56 1627.95,416.82 C1627.89,416.16 1629.00,415.28 1628.47,414.89 C1627.76,414.77 1627.02,417.38 1626.08,418.69" fill="none" stroke="rgb(52, 93, 169)" stroke-width="6.00" stroke-opacity="1.00" stroke-linejoin="miter"/>
<path d="M1626.31,418.75 C1626.31,418.75 1632.22,423.24 1632.22,423.24" fill="none" stroke="rgb(52, 93, 169)" stroke-width="6.00" stroke-opacity="1.00" stroke-linejoin="miter"/>
<path d="M1746.30,370.03 C1746.89,368.32 1747.43,366.28 1746.88,365.99 C1746.71,365.90 1743.62,365.62 1743.74,365.57 C1744.19,365.36 1747.93,364.08 1747.89,363.94 C1747.78,363.42 1746.48,363.88 1746.42,363.36 C1746.33,362.64 1748.71,360.69 1749.29,361.34 C1750.50,362.74 1751.23,363.47 1751.46,363.51 C1752.59,363.75 1753.70,362.94 1754.84,362.73 C1755.94,362.63 1748.72,365.39 1748.63,365.80 C1748.40,366.67 1750.18,366.73 1750.92,367.24 C1751.40,367.55 1752.01,368.20 1752.74,369.18" fill="none" stroke="rgb(52, 93, 169)" stroke-width="6.00" stroke-opacity="1.00" stroke-linejoin="miter"/>
<path d="M1592.15,362.33 C1588.60,359.92 1585.79,357.50 1583.33,354.40 C1580.55,350.81 1576.91,345.64 1575.24,342.57 C1573.50,339.33 1571.22,332.77 1570.57,329.30 C1569.98,326.07 1569.51,319.02 1569.77,315.62 C1570.06,312.12 1571.40,305.37 1572.48,301.98 C1573.55,298.71 1576.74,292.49 1578.63,289.64 C1580.54,286.80 1585.07,281.47 1587.68,279.23 C1590.40,276.94 1596.09,273.14 1599.25,271.50 C1602.31,269.94 1608.97,267.80 1612.33,267.12 C1615.68,266.46 1622.66,265.90 1626.09,266.16 C1629.63,266.46 1636.34,267.80 1639.73,268.88 C1643.00,269.94 1649.23,273.14 1652.07,275.03 C1654.91,276.94 1660.24,281.47 1662.48,284.08 C1664.77,286.80 1668.61,292.53 1670.21,295.65 C1671.74,298.68 1674.04,305.37 1674.74,308.52 C1675.48,311.98 1675.84,318.96 1675.41,322.71 C1674.87,327.17 1671.81,339.00 1669.91,343.41" fill="none" stroke="rgb(1, 25, 68)" stroke-width="7.75" stroke-opacity="1.00" stroke-linejoin="round"/>
<path d="M1639.66,338.00 C1642.63,338.01 1650.00,339.03 1653.40,339.91 C1657.20,340.91 1662.71,343.19 1666.10,345.17 C1669.13,346.95 1675.06,351.44 1677.17,353.54 C1679.27,355.65 1683.76,361.59 1685.55,364.61 C1687.52,368.01 1689.80,373.51 1690.81,377.31 C1691.68,380.71 1692.70,388.08 1692.71,391.05 C1692.70,394.03 1691.68,401.40 1690.81,404.80 C1689.80,408.60 1687.52,414.10 1685.55,417.50 C1683.76,420.52 1679.27,426.46 1677.17,428.57 C1675.06,430.67 1669.13,435.16 1666.10,436.94 C1662.71,438.92 1657.20,441.20 1653.40,442.20 C1650.00,443.08 1642.63,444.10 1639.66,444.11 C1636.68,444.10 1629.31,443.08 1625.91,442.20 C1622.11,441.20 1616.61,438.92 1613.21,436.94 C1610.19,435.16 1604.26,430.67 1602.14,428.57 C1600.04,426.46 1595.55,420.52 1593.77,417.50 C1591.79,414.10 1589.51,408.60 1588.51,404.80 C1587.63,401.40 1586.61,394.03 1586.60,391.05 C1586.61,388.08 1587.63,380.71 1588.51,377.31 C1589.51,373.51 1591.79,368.01 1593.77,364.61 C1595.55,361.59 1600.04,355.65 1602.14,353.54 C1604.26,351.44 1610.19,346.95 1613.21,345.17 C1616.61,343.19 1622.11,340.91 1625.91,339.91 C1629.31,339.03 1636.68,338.01 1639.66,338.00 Z" fill="none" stroke="rgb(1, 25, 68)" stroke-width="7.75" stroke-opacity="1.00" stroke-linejoin="round"/>
<path d="M1670.62,346.88 C1672.22,336.03 1674.23,326.26 1677.69,320.26 C1679.27,317.57 1683.98,311.68 1686.14,309.54 C1688.45,307.29 1694.18,302.95 1697.21,301.16 C1700.61,299.19 1706.11,296.91 1709.91,295.91 C1713.31,295.03 1720.68,294.01 1723.66,294.00 C1726.63,294.01 1734.00,295.03 1737.40,295.91 C1741.20,296.91 1746.71,299.19 1750.10,301.17 C1753.13,302.95 1759.06,307.44 1761.17,309.54 C1763.27,311.65 1767.76,317.59 1769.55,320.61 C1771.52,324.01 1773.80,329.51 1774.81,333.31 C1775.68,336.71 1776.70,344.08 1776.71,347.05 C1776.70,350.03 1775.68,357.40 1774.81,360.80 C1773.80,364.60 1771.52,370.10 1769.55,373.50 C1767.76,376.52 1763.27,382.46 1761.17,384.57 C1759.06,386.67 1753.13,391.16 1750.10,392.94 C1746.82,394.86 1741.18,397.23 1737.48,398.26 C1733.91,399.24 1727.07,400.17 1723.66,400.11 C1720.31,400.02 1713.29,398.86 1709.24,397.82 C1701.05,395.66 1695.66,391.94 1694.67,391.27" fill="none" stroke="rgb(1, 25, 68)" stroke-width="7.75" stroke-opacity="1.00" stroke-linejoin="round"/>
<path d="M1584.48,303.34 L1587.06,297.66 L1584.85,293.48 L1590.16,293.39 L1595.70,289.26 L1596.87,294.98 L1601.80,298.04 L1595.65,301.61 L1595.56,308.13 L1590.30,301.84 L1584.48,303.34 Z" fill="none" stroke="rgb(1, 25, 68)" stroke-width="3.80" stroke-opacity="1.00" stroke-linejoin="miter"/>
<path d="M1740.08,365.50 L1746.13,361.42 L1748.35,356.35 L1752.17,361.21 L1758.73,361.52 L1752.69,368.03 L1755.89,372.93 L1748.50,369.78 L1743.49,374.85 L1744.32,367.67 L1740.08,365.50 Z" fill="none" stroke="rgb(1, 25, 68)" stroke-width="3.80" stroke-opacity="1.00" stroke-linejoin="miter"/>
<path d="M1618.24,420.08 L1623.97,424.26 L1623.64,431.02 L1629.04,427.17 L1637.68,429.85 L1635.42,424.30 L1640.26,419.05 L1632.09,416.70 L1627.77,409.42 L1624.62,417.12 L1617.16,419.28 L1618.24,420.08 Z" fill="none" stroke="rgb(1, 25, 68)" stroke-width="3.80" stroke-opacity="1.00" stroke-linejoin="miter"/>
</g>
</svg>
