<?xml version="1.0" standalone="no"?>
<!DOCTYPE svg PUBLIC "-//W3C//DTD SVG 20010904//EN" "http://www.w3.org/TR/2001/REC-SVG-20010904/DTD/svg10.dtd">
<svg xmlns="http://www.w3.org/2000/svg" version="1.0" width="408.000000pt" height="360.000000pt" viewBox="0 0 408.000000 360.000000" preserveAspectRatio="xMidYMid meet">
<metadata>
Created by potrace 1.16, written by Peter Selinger 2001-2019
<meta name="Producer" content="Online-Convert"/></metadata>
<g transform="translate(0.000000,360.000000) scale(0.100000,-0.100000)" fill="#000000" stroke="none">
<path d="M1956 3384 c-11 -8 -17 -14 -13 -14 5 0 2 -6 -5 -14 -11 -13 -16 -12 -36 0 -25 16 -64 4 -58 -19 1 -6 1 -9 -1 -4 -11 18 -68 4 -119 -28 -31 -20 -53 -32 -51 -28 3 5 -3 9 -13 9 -15 0 -17 -3 -7 -15 10 -12 8 -13 -13 -8 -27 6 -47 -5 -73 -43 -9 -13 -17 -18 -17 -11 0 20 -136 -125 -176 -187 -19 -29 -31 -58 -28 -64 4 -6 3 -8 -4 -4 -10 6 -82 -163 -82 -195 0 -8 30 -41 68 -74 64 -55 125 -122 77 -85 -11 8 -29 26 -41 39 -21 25 -48 22 -37 -4 3 -8 0 -15 -7 -15 -7 0 -10 8 -7 20 4 15 1 20 -11 18 -10 -2 -16 3 -14 11 2 9 -4 12 -18 8 -18 -4 -19 -3 -9 9 10 13 14 12 30 -2 11 -10 21 -15 24 -12 3 3 -4 13 -15 23 -18 17 -24 17 -43 6 -13 -8 -22 -10 -24 -4 -2 6 -9 18 -16 27 -11 15 -12 11 -10 -26 1 -29 -1 -38 -7 -28 -12 19 -27 4 -32 -30 -3 -22 -6 -19 -19 20 -13 37 -22 47 -50 55 -19 6 -34 17 -34 25 0 9 -10 16 -25 17 -14 0 -30 1 -37 2 -7 1 -11 12 -8 30 2 22 -1 30 -16 34 -12 3 -17 1 -13 -6 5 -8 2 -7 -7 1 -10 9 -10 15 -1 24 9 9 5 15 -17 24 -33 14 -83 8 -59 -7 7 -5 23 -9 36 -9 20 0 21 -2 10 -20 -11 -17 -14 -18 -28 -5 -21 19 -45 19 -63 0 -13 -13 -16 -13 -27 0 -7 8 -20 15 -30 15 -9 0 -22 10 -28 23 -7 15 -11 17 -11 6 -1 -9 8 -24 19 -34 18 -17 19 -20 5 -28 -10 -5 -21 -4 -31 3 -7 7 -14 9 -14 4 0 -5 -5 -1 -11 9 -5 9 -16 17 -23 17 -8 0 -19 6 -26 14 -18 22 -42 9 -29 -16 6 -11 17 -17 25 -14 8 3 14 1 14 -4 0 -13 -31 -13 -64 0 -14 5 -28 6 -30 1 -8 -12 -56 -1 -56 13 0 8 -2 8 -8 0 -4 -6 -14 -14 -22 -17 -8 -3 -2 -6 15 -7 l30 -1 -23 -16 c-22 -15 -21 -16 53 -55 42 -21 80 -36 86 -33 5 4 9 2 9 -3 0 -13 78 -63 93 -60 7 1 29 -14 50 -33 20 -20 45 -36 54 -36 9 0 24 -10 32 -22 16 -23 26 -33 121 -125 30 -29 63 -64 74 -77 10 -13 30 -36 44 -52 25 -26 25 -28 8 -45 -18 -16 -19 -16 -13 1 4 9 2 17 -4 17 -5 0 -13 8 -16 18 -8 21 -29 43 -40 41 -23 -4 -35 2 -29 16 3 8 1 15 -5 15 -6 0 -18 9 -27 20 -10 12 -31 22 -49 23 -17 1 -29 5 -27 8 4 6 -95 59 -110 59 -11 0 16 -23 49 -42 33 -18 50 -56 20 -45 -9 4 -14 3 -11 -2 3 -5 19 -11 35 -14 31 -7 74 -41 63 -51 -9 -10 -60 -7 -67 4 -3 6 -15 10 -26 10 -19 0 -19 0 0 -19 10 -10 27 -24 37 -30 16 -8 11 -10 -22 -8 -23 1 -40 5 -37 10 2 4 -4 7 -13 7 -10 0 -26 8 -37 18 -11 9 -18 12 -15 7 4 -7 -14 -10 -48 -10 -30 0 -54 4 -54 8 0 11 -70 5 -77 -7 -3 -5 -2 -7 3 -3 13 7 47 -19 40 -31 -3 -6 -4 -17 0 -25 4 -12 14 -12 67 -1 115 25 201 18 346 -28 47 -15 60 -23 50 -30 -11 -8 -10 -8 4 -4 27 9 98 -29 176 -94 l70 -59 4 27 c3 23 4 21 6 -8 0 -20 8 -46 17 -58 8 -12 12 -22 8 -22 -4 0 1 -10 12 -21 19 -21 19 -22 -3 -15 -13 4 -28 4 -35 -1 -21 -12 -50 -14 -63 -3 -9 7 -21 7 -39 0 -36 -13 -37 -13 -29 7 6 15 5 16 -9 3 -9 -8 -13 -19 -10 -24 3 -5 -3 -15 -13 -23 -11 -7 -13 -13 -7 -13 7 0 12 -7 12 -15 0 -8 7 -15 15 -15 24 0 17 -36 -9 -48 -22 -10 -26 -8 -41 24 -9 19 -15 43 -13 52 4 27 -26 67 -79 103 -27 18 -49 36 -51 41 -2 4 -14 8 -26 8 -13 0 -26 3 -29 6 -4 4 -26 8 -49 10 l-43 3 50 -19 c28 -10 46 -19 41 -19 -13 -1 66 -60 82 -61 6 0 12 -10 12 -21 0 -19 2 -20 17 -8 15 12 16 12 10 -5 -4 -10 -3 -24 2 -30 17 -21 17 -51 -1 -71 -17 -18 -17 -20 -1 -29 10 -5 21 -14 25 -20 6 -8 8 -8 8 0 0 6 13 9 30 6 17 -2 30 -8 30 -13 0 -5 17 -9 38 -9 58 0 190 -74 282 -159 29 -26 52 -40 63 -37 14 3 16 2 7 -9 -13 -15 -2 -42 24 -65 14 -10 16 -10 17 6 0 11 2 29 5 42 2 12 -1 22 -6 22 -6 0 -9 6 -8 13 2 7 -7 12 -20 11 -18 0 -21 3 -16 20 6 19 5 20 -11 6 -11 -9 -16 -10 -11 -2 4 7 1 14 -8 18 -8 3 -17 13 -21 22 -5 14 -4 15 6 5 7 -7 22 -12 34 -12 14 1 15 3 4 6 -12 3 -15 13 -12 41 2 20 0 33 -4 27 -5 -5 -13 -11 -20 -12 -20 -4 24 61 80 119 81 83 165 133 290 173 128 40 217 55 217 35 0 -9 15 -11 56 -8 48 4 57 2 61 -13 3 -9 13 -19 24 -22 20 -5 27 -27 9 -27 -6 0 -5 -8 2 -20 8 -12 24 -20 39 -20 37 0 101 -57 90 -79 -8 -15 -4 -16 27 -14 29 2 33 1 17 -6 -18 -9 -18 -10 7 -10 28 -1 41 -11 73 -56 11 -15 27 -36 37 -46 9 -9 19 -28 22 -41 6 -23 6 -23 -5 -1 -6 12 -19 25 -27 28 -12 4 -11 1 3 -17 11 -13 29 -31 40 -41 20 -18 20 -18 -2 -12 -19 5 -25 1 -35 -22 -13 -33 -20 -145 -8 -138 4 3 10 -2 14 -10 8 -21 -10 -28 -27 -10 -20 19 -33 20 -17 0 7 -8 36 -28 65 -45 29 -17 59 -37 66 -46 7 -8 30 -24 50 -35 38 -19 112 -88 130 -121 8 -14 4 -16 -21 -13 -35 5 -36 1 -10 -50 11 -22 20 -46 20 -53 0 -8 6 -12 14 -9 9 4 13 1 10 -7 -2 -6 2 -28 10 -48 8 -19 13 -38 10 -40 -2 -3 2 -17 9 -31 8 -15 17 -24 20 -20 4 3 7 1 7 -5 0 -7 -8 -12 -17 -12 -15 0 -15 -1 1 -13 11 -8 17 -20 14 -27 -3 -9 -9 -8 -22 6 -18 18 -18 17 -12 -4 5 -13 3 -22 -4 -22 -6 0 -9 -14 -7 -35 3 -19 0 -35 -4 -35 -13 0 -11 -24 3 -38 7 -7 16 -8 23 -2 8 7 10 -10 8 -63 -2 -40 -6 -79 -10 -87 -3 -8 -7 -22 -8 -30 -1 -8 -5 -25 -9 -36 -6 -20 1 -25 66 -50 71 -28 78 -29 248 -28 142 1 192 5 263 23 116 28 188 62 242 114 49 47 66 82 54 112 -7 19 -8 19 -8 -2 -1 -22 -21 -44 -21 -23 0 7 -8 9 -20 5 -19 -6 -50 13 -50 31 0 5 5 3 12 -4 18 -18 27 -14 21 9 -4 12 -11 18 -20 15 -8 -3 -11 -1 -8 4 3 6 1 10 -4 10 -6 0 -11 7 -11 15 0 8 -5 15 -11 15 -8 0 -8 4 1 14 6 8 19 12 27 9 10 -4 14 -2 10 4 -4 6 0 13 8 17 8 3 15 10 15 16 0 17 -28 11 -39 -8 -9 -15 -10 -14 -11 6 0 13 4 21 9 17 6 -3 15 4 21 15 6 11 15 20 21 20 6 0 8 -4 5 -9 -3 -4 1 -28 8 -52 8 -24 15 -35 15 -24 1 17 3 18 12 5 9 -12 10 -11 6 7 -3 13 1 28 9 34 13 10 14 7 9 -20 -4 -21 -2 -30 5 -26 5 3 10 13 10 21 0 8 4 14 9 14 9 0 23 42 25 75 1 14 7 19 21 17 16 -2 23 6 34 42 9 33 10 50 2 64 -7 14 -8 23 -1 27 5 3 10 3 11 -2 0 -4 4 2 9 14 5 13 5 47 -1 84 -11 71 -15 79 -34 79 -18 0 -31 25 -40 78 -5 34 -4 42 8 42 25 0 12 35 -14 38 -13 2 -32 11 -41 19 -23 20 -23 12 0 -29 27 -48 46 -109 36 -117 -12 -8 -11 -44 1 -53 6 -5 5 -8 -3 -8 -10 0 -10 -3 2 -15 17 -17 33 -19 38 -6 2 5 11 4 21 -4 15 -11 16 -17 6 -39 -15 -33 -27 -33 -35 -1 -11 43 -34 23 -34 -29 0 -27 -28 -68 -41 -61 -5 4 -9 3 -9 -2 0 -9 -58 -36 -117 -54 -49 -14 -54 -25 -18 -41 29 -13 33 -27 8 -30 -65 -5 -80 -3 -75 12 5 13 3 13 -11 1 -9 -7 -17 -9 -17 -4 0 6 -18 13 -40 17 -38 6 -39 7 -29 33 7 19 7 29 0 31 -6 2 -11 9 -11 15 0 7 -8 17 -18 23 -10 7 -24 31 -32 55 -8 24 -17 46 -20 49 -3 3 -11 21 -18 40 -13 35 -18 51 -26 90 -3 11 -8 25 -12 31 -8 14 25 117 49 149 22 29 7 39 -29 19 -18 -9 -21 -15 -12 -21 10 -6 8 -8 -4 -8 -11 0 -15 -5 -12 -15 5 -11 2 -13 -10 -9 -9 3 -16 1 -16 -5 0 -6 6 -11 13 -12 6 -1 -4 -5 -23 -10 -19 -4 -43 -6 -54 -2 -13 3 -16 1 -11 -7 4 -7 20 -10 36 -8 17 3 26 1 21 -4 -4 -4 -24 -9 -45 -10 -20 -2 -37 -7 -37 -13 0 -5 -4 -4 -9 4 -13 20 -42 6 -35 -16 4 -13 1 -12 -13 5 -23 28 -37 18 -17 -13 14 -21 13 -23 -8 -28 -27 -8 -38 1 -18 13 12 8 10 10 -7 10 -13 0 -23 -4 -23 -10 0 -5 -10 -14 -21 -21 -15 -8 -19 -8 -15 0 5 7 -2 10 -18 9 -13 -1 -24 -7 -23 -13 1 -5 -8 -9 -20 -8 -13 2 -23 -2 -23 -7 0 -18 -49 -11 -60 9 -13 25 -13 34 0 26 6 -3 10 -1 10 5 0 7 -9 14 -20 17 -16 4 -18 9 -9 24 11 21 0 26 -18 8 -8 -8 -13 -7 -18 3 -5 7 -5 10 0 6 13 -12 37 30 30 52 -4 12 -2 20 5 20 6 0 8 5 4 11 -12 20 19 59 90 113 90 68 176 112 186 96 6 -9 9 -9 12 1 2 7 19 12 41 11 20 -1 37 3 37 8 0 6 12 10 26 10 l26 0 -31 35 c-17 20 -31 40 -31 46 0 5 -12 20 -27 33 -20 17 -25 28 -20 47 11 40 23 53 43 44 12 -4 14 -9 7 -12 -7 -2 -9 -11 -6 -19 7 -19 23 -8 23 16 0 14 5 18 17 13 12 -5 15 -2 10 10 -3 9 -2 17 3 17 5 0 7 6 4 14 -4 9 5 15 25 18 17 3 31 1 31 -4 0 -4 6 -8 13 -8 7 0 19 -9 27 -20 8 -11 20 -20 27 -20 7 0 13 -9 13 -20 0 -22 10 -26 26 -11 8 9 69 -5 132 -30 15 -6 21 -6 17 0 -3 5 -1 12 5 16 5 3 10 1 10 -5 0 -7 9 -19 20 -28 20 -16 31 -77 31 -167 0 -27 1 -28 9 -9 9 23 36 38 51 28 5 -3 9 2 9 11 0 22 -27 72 -42 78 -8 3 -6 6 5 6 15 1 17 7 13 29 -3 15 -8 44 -12 64 -4 25 -15 43 -32 54 -15 10 -48 38 -75 63 -73 68 -195 107 -257 81 -17 -7 -30 -19 -30 -26 0 -16 -16 -19 -25 -4 -17 27 -75 -1 -78 -37 0 -12 -5 -19 -10 -16 -4 3 -6 11 -3 18 3 8 0 16 -7 19 -8 3 -3 13 14 28 14 13 23 30 21 37 -6 18 65 88 94 94 13 2 21 0 18 -4 -3 -5 9 -9 25 -9 17 0 39 -8 50 -19 11 -11 24 -16 31 -11 15 9 59 -8 61 -24 1 -6 1 -17 0 -23 -1 -7 5 -13 13 -13 21 0 87 -46 78 -54 -3 -4 1 -4 9 -1 18 7 54 -29 44 -44 -3 -6 -1 -12 4 -12 6 -1 17 -2 24 -3 6 -1 11 -7 10 -14 -2 -6 10 -18 27 -27 37 -19 71 -55 64 -67 -4 -5 3 -19 14 -31 22 -24 40 -62 52 -115 8 -33 -5 -56 -16 -28 -3 9 -12 16 -20 16 -7 0 -18 8 -23 18 -9 15 -10 13 -11 -10 0 -14 -3 -35 -6 -45 -3 -10 1 -7 9 6 l15 24 6 -21 c4 -12 12 -22 17 -22 5 0 9 -7 9 -15 0 -8 6 -15 13 -15 8 0 7 -4 -3 -11 -13 -9 -13 -10 0 -6 8 2 14 10 12 17 -5 23 9 52 24 46 28 -11 15 65 -25 148 -82 169 -315 346 -516 392 -16 3 -24 9 -17 11 6 3 12 9 12 14 0 10 -32 0 -41 -13 -3 -5 -17 -11 -31 -13 -22 -4 -25 -2 -20 20 2 14 8 25 13 25 5 0 6 -6 3 -14 -3 -8 -1 -17 5 -21 7 -4 9 6 6 30 -3 28 -1 36 9 32 15 -6 36 32 36 64 0 11 5 17 10 14 6 -3 10 2 10 12 0 10 7 27 15 37 8 11 15 32 15 47 0 31 24 82 34 72 4 -4 4 0 0 10 -3 10 -1 17 5 17 15 0 14 85 -1 113 -20 35 -40 57 -52 57 -6 0 -4 -5 4 -10 11 -7 12 -12 3 -21 -9 -9 -9 -18 -2 -31 9 -17 8 -19 -8 -16 -12 3 -17 11 -16 28 3 24 2 24 -11 6 -8 -10 -19 -15 -24 -12 -5 3 -12 -3 -15 -14 -3 -11 -1 -20 4 -20 4 0 6 -7 3 -15 -4 -8 -1 -15 5 -15 6 0 11 -7 11 -16 0 -11 -5 -14 -16 -10 -9 3 -20 6 -25 6 -6 0 -7 5 -4 11 4 6 -2 5 -14 -2 -14 -10 -17 -16 -8 -21 9 -6 7 -11 -6 -19 -9 -5 -25 -18 -35 -28 -33 -34 -47 -32 -47 10 -1 21 3 35 7 33 16 -10 7 6 -14 26 -23 21 -23 22 -3 36 17 13 18 16 5 24 -12 8 -12 10 5 11 11 1 25 2 32 2 6 0 9 5 6 13 -3 9 -11 10 -29 4 -23 -9 -28 -6 -25 14 1 5 -5 6 -13 3 -15 -6 -43 28 -38 46 1 5 -8 7 -20 5 -13 -2 -22 -9 -20 -17 3 -12 0 -12 -12 -1 -9 7 -16 8 -16 3 0 -6 -14 -8 -32 -5 -18 2 -42 4 -53 3 -101 -6 -215 -6 -215 1 0 5 -6 8 -12 7 -24 -3 -37 1 -52 16 -8 9 -29 17 -45 18 -16 1 -28 4 -27 7 2 3 -6 13 -16 23 -16 15 -19 16 -24 2 -4 -9 -20 -23 -36 -31 -25 -13 -30 -13 -44 0 -8 8 -21 13 -29 10 -21 -8 -19 6 3 22 15 12 14 12 -8 7 -14 -3 -31 -11 -39 -17 -12 -9 -13 -8 -9 5 7 19 -30 19 -42 0 -4 -8 -12 -11 -17 -8 -6 4 -21 -5 -33 -18 -27 -29 -40 -32 -40 -9 0 8 -4 13 -9 10 -5 -3 -14 1 -21 9 -7 8 -16 13 -20 10 -17 -11 4 41 24 60 12 11 32 40 44 64 13 24 30 50 38 59 14 14 14 16 0 24 -12 7 -27 -2 -60 -36 -24 -25 -46 -52 -50 -61 -3 -8 -17 -15 -33 -15 -15 0 -40 -6 -55 -14 -15 -8 -40 -17 -56 -21 -16 -3 -40 -17 -52 -31 -13 -13 -32 -24 -42 -24 -11 0 -18 -7 -18 -19 0 -19 -76 -79 -87 -67 -3 3 -1 6 6 6 7 0 9 5 5 13 -4 6 -4 9 0 6 9 -9 66 42 59 53 -3 5 -14 2 -24 -8 -10 -9 -19 -12 -19 -7 0 6 7 16 15 23 8 7 15 18 15 24 -1 21 -50 -49 -91 -129 -46 -88 -55 -103 -44 -65 5 14 9 36 10 50 1 14 22 66 48 116 25 51 43 95 40 98 -4 3 -1 6 5 6 12 0 66 77 67 95 2 30 18 56 31 51 11 -4 21 7 34 37 10 23 23 42 28 42 5 0 30 27 57 60 27 33 57 66 67 73 10 7 16 17 13 22 -3 4 1 11 7 13 10 4 10 6 1 6 -7 1 -10 8 -7 16 4 9 1 15 -7 15 -8 0 -5 6 7 16 18 15 18 15 -7 10 -18 -4 -26 -1 -26 9 0 8 4 12 9 9 4 -3 8 1 8 9 0 10 -7 13 -20 10 -11 -3 -20 -10 -20 -16 0 -6 -6 -3 -13 8 -10 13 -16 15 -21 6 -6 -9 -12 -9 -24 3 -15 13 -20 13 -36 0z m83 -761 c-1 -27 2 -70 6 -98 8 -59 8 -55 6 -79 -1 -15 -4 -16 -16 -6 -12 10 -15 10 -15 -3 0 -16 -26 -14 -67 6 -37 17 -27 30 17 23 l40 -6 0 45 c0 43 -1 45 -30 45 -22 0 -41 -11 -70 -40 -22 -22 -48 -40 -57 -40 -13 0 -14 -3 -5 -12 9 -9 15 -9 24 0 19 19 47 15 41 -6 -6 -26 30 -54 73 -55 34 -2 39 -6 45 -32 4 -16 14 -47 23 -68 16 -37 14 -63 -5 -52 -5 4 -9 2 -9 -4 0 -5 -8 -8 -17 -6 -10 1 -23 -1 -28 -6 -6 -4 -28 -10 -48 -12 -20 -2 -40 -7 -44 -12 -5 -4 -2 -5 6 0 10 5 12 4 7 -3 -5 -9 -13 -9 -28 -1 -16 9 -19 8 -13 -2 6 -9 4 -11 -7 -6 -10 3 -26 -5 -42 -24 -33 -37 -56 -38 -57 -1 0 15 -3 21 -6 13 -5 -11 -7 -11 -14 0 -6 10 -9 11 -9 2 0 -7 -6 -13 -14 -13 -8 0 -17 -6 -19 -12 -3 -7 -6 -2 -7 12 l-1 25 -23 -28 c-18 -23 -24 -26 -29 -14 -3 9 -1 18 6 21 7 4 -1 4 -18 0 -65 -12 -95 -14 -95 -3 0 5 -4 8 -9 5 -5 -3 -8 6 -8 20 0 35 -12 43 -29 20 -13 -19 -14 -19 -14 7 0 18 4 25 14 21 10 -4 12 2 8 21 -3 19 -7 23 -13 14 -14 -24 -19 -4 -4 23 7 15 9 28 4 30 -5 2 9 21 32 43 23 22 39 33 35 25 -4 -8 6 0 23 18 17 17 38 32 46 32 8 0 15 5 15 11 0 6 9 9 19 6 11 -3 29 2 40 10 12 8 21 11 21 7 0 -5 5 -3 12 4 15 15 32 16 23 2 -3 -5 1 -10 9 -10 9 0 16 6 16 14 0 20 84 56 160 69 36 6 68 15 71 20 4 5 10 27 13 48 9 53 16 49 15 -8z"/>
<path d="M2648 3098 c-21 -17 -30 -49 -19 -67 16 -25 2 -37 -35 -33 -41 5 -85 -11 -101 -37 -16 -26 24 -72 56 -64 21 5 58 59 53 76 -1 5 2 6 8 2 6 -4 22 0 35 9 30 20 64 20 101 1 16 -8 37 -15 47 -15 9 0 17 -4 17 -10 0 -5 4 -10 9 -10 5 0 26 -8 47 -17 22 -9 45 -18 52 -19 8 -1 21 -6 30 -10 19 -8 28 -11 42 -13 6 0 10 -8 10 -16 0 -8 5 -15 10 -15 6 0 10 11 10 24 0 19 -8 28 -35 37 -19 7 -35 16 -35 20 0 12 29 31 39 25 23 -15 21 19 -5 55 -34 50 -60 56 -118 30 -52 -23 -73 -19 -78 12 -6 40 -103 64 -140 35z"/>
<path d="M803 1976 c-18 -16 -28 -34 -28 -53 0 -27 -17 -37 -40 -23 -19 12 -40 5 -40 -14 0 -14 -10 -22 -33 -28 -17 -5 -33 -14 -33 -21 -6 -53 -3 -74 10 -85 14 -11 14 -11 -1 -6 -10 3 -18 2 -18 -3 0 -21 14 -21 64 -2 58 22 223 49 309 49 55 0 57 1 51 24 -3 14 -1 27 7 31 7 5 10 4 6 -2 -4 -6 0 -13 8 -17 18 -7 20 22 4 58 -8 16 -24 28 -46 33 -19 4 -34 12 -33 17 4 19 -24 24 -37 7 -13 -19 -53 -35 -53 -21 0 4 8 11 17 14 14 6 12 10 -12 26 -26 17 -27 20 -10 21 l20 0 -20 9 c-35 15 -63 11 -92 -14z"/>
<path d="M355 1980 c-4 -6 -10 -8 -14 -6 -17 11 -63 -98 -62 -147 0 -9 -4 -15 -9 -12 -16 10 -22 -60 -15 -151 5 -49 8 -99 8 -111 -1 -12 5 -24 13 -27 8 -3 11 0 7 10 -3 7 -1 14 5 14 5 0 12 -14 16 -31 3 -17 10 -28 15 -24 5 3 12 1 16 -5 3 -5 -2 -10 -12 -10 -15 0 -16 -2 -3 -10 11 -7 21 -1 40 23 52 67 124 127 140 117 17 -11 50 0 50 16 0 8 4 14 9 14 5 0 12 9 16 19 3 11 15 23 26 26 26 9 24 25 -3 17 -13 -3 -19 -1 -15 6 4 5 4 18 1 27 -5 13 -9 11 -20 -11 -8 -14 -14 -31 -14 -38 0 -6 -16 -12 -35 -13 -28 -2 -35 1 -35 15 0 10 4 22 10 28 5 5 11 23 12 39 1 17 12 38 25 48 13 10 23 26 23 35 0 10 18 28 40 42 45 28 50 38 18 34 -13 -1 -27 -3 -31 -3 -5 -1 -6 -5 -3 -10 3 -4 -8 -23 -24 -41 -17 -19 -30 -28 -30 -22 0 7 -7 12 -15 12 -10 0 -15 -10 -15 -34 0 -19 -6 -36 -12 -39 -10 -4 -10 -7 0 -18 6 -7 12 -17 12 -22 0 -5 -6 -7 -12 -4 -7 2 -21 0 -30 -4 -10 -6 -19 -5 -23 1 -5 8 -11 7 -21 -1 -10 -9 -14 -9 -14 0 0 6 7 14 15 17 8 4 15 10 15 15 0 5 -11 4 -25 -1 -14 -5 -25 -7 -25 -4 0 4 -7 1 -15 -6 -13 -11 -15 -9 -11 11 3 13 5 24 6 24 9 0 3 59 -7 66 -9 8 -9 15 0 30 6 10 17 19 23 19 6 0 10 11 9 25 -2 14 0 23 4 21 4 -3 13 -1 21 5 12 7 12 9 1 9 -8 0 -11 6 -7 17 6 15 4 14 -14 -2 -18 -16 -20 -17 -14 -2 7 18 -1 23 -11 7z"/>
<path d="M2188 1871 c-14 -12 -38 -21 -52 -21 -34 0 -75 -19 -109 -51 l-29 -26 11 -74 c6 -41 13 -87 15 -104 2 -23 3 -21 5 10 1 54 14 66 54 51 18 -6 35 -15 38 -20 4 -5 13 -5 20 0 8 5 19 9 24 9 26 2 44 19 50 46 7 29 25 50 25 29 0 -7 8 -9 23 -4 29 10 45 8 82 -7 17 -7 37 -11 47 -10 9 1 19 -3 23 -9 3 -5 1 -10 -5 -10 -6 0 -8 -4 -5 -10 3 -5 14 -10 24 -10 13 0 19 -8 19 -27 0 -14 7 -32 16 -39 20 -14 23 -57 7 -98 -13 -33 -11 -39 13 -30 9 3 16 17 16 31 0 13 5 34 11 45 8 15 8 19 0 14 -6 -4 -11 0 -11 8 0 10 6 13 15 10 10 -4 15 0 15 10 0 9 5 24 11 34 8 13 7 27 -4 55 -9 21 -12 37 -6 37 15 0 -23 46 -53 64 -14 9 -38 16 -52 16 -19 0 -32 10 -50 39 -32 50 -37 52 -105 58 -46 4 -61 1 -83 -16z"/>
<path d="M812 1645 c-17 -14 -41 -42 -53 -61 -13 -21 -27 -33 -35 -30 -8 3 -14 1 -14 -3 0 -5 6 -11 13 -14 14 -6 3 -11 -60 -27 -71 -18 -151 -120 -94 -120 10 0 33 -6 52 -14 35 -15 39 -13 85 33 13 13 21 28 18 33 -4 6 5 8 25 3 25 -5 39 -2 64 18 18 13 46 27 62 31 53 14 134 23 129 15 -3 -5 6 -11 20 -15 14 -3 23 -11 20 -17 -6 -18 36 -41 49 -28 6 6 19 11 28 11 11 0 19 11 23 31 9 47 8 55 -6 41 -22 -22 -25 -13 -15 35 9 36 8 48 -1 51 -7 2 -10 7 -7 12 3 4 -2 13 -9 19 -11 10 -21 9 -45 -3 -34 -18 -72 -21 -87 -6 -5 5 -25 12 -45 14 -19 3 -46 7 -60 11 -19 5 -34 0 -57 -20z"/>
<path d="M1768 1544 c-16 -8 -28 -17 -28 -20 0 -3 4 -3 9 0 5 3 11 -3 14 -14 5 -18 3 -18 -18 -4 -14 9 -21 22 -18 30 3 8 0 14 -7 14 -8 0 -10 -9 -5 -27 5 -23 4 -26 -6 -15 -19 18 -31 15 -24 -8 4 -13 2 -20 -7 -20 -8 0 -23 -7 -34 -15 -16 -13 -17 -16 -4 -25 9 -5 10 -10 3 -10 -6 0 -23 15 -38 33 -15 17 -36 35 -46 39 -16 6 -18 2 -13 -41 3 -37 1 -50 -11 -55 -8 -3 -15 -11 -15 -18 0 -9 3 -8 10 2 6 9 10 10 10 3 0 -6 -5 -15 -10 -18 -8 -5 -7 -11 0 -20 9 -11 7 -22 -7 -47 -10 -18 -19 -34 -20 -36 -1 -2 -11 2 -23 8 -25 13 -42 4 -20 -10 12 -8 10 -10 -8 -10 -12 0 -21 3 -21 8 4 23 -4 22 -25 -3 l-25 -29 25 -24 c13 -14 27 -22 31 -19 3 4 1 7 -5 7 -7 0 -12 5 -12 12 0 8 6 7 16 -4 11 -11 13 -21 7 -32 -8 -14 -11 -14 -31 0 -12 8 -20 20 -17 25 4 5 -1 9 -9 9 -8 0 -16 -7 -18 -16 -3 -14 -6 -13 -25 4 -13 10 -20 21 -17 24 9 10 -8 56 -23 62 -10 4 -13 2 -10 -7 3 -8 0 -14 -6 -15 -7 0 -23 -3 -37 -6 -22 -6 -23 -5 -5 4 17 9 15 9 -10 5 -16 -4 -35 -12 -40 -20 -6 -7 -24 -15 -40 -17 -22 -2 -29 -8 -27 -20 2 -11 -3 -18 -13 -18 -10 0 -13 5 -9 12 5 8 2 9 -11 5 -9 -4 -24 -2 -31 4 -9 8 -14 8 -14 1 0 -6 9 -14 20 -17 11 -3 20 -10 20 -15 0 -5 -7 -7 -15 -3 -9 3 -21 -2 -29 -12 -16 -23 -85 -30 -93 -10 -9 24 -20 17 -27 -16 -5 -26 -9 -29 -20 -20 -11 10 -17 7 -30 -11 -9 -12 -16 -19 -16 -15 0 4 -8 3 -19 -2 -14 -8 -24 -6 -42 9 -13 11 -28 23 -34 27 -15 12 -55 3 -62 -13 -4 -11 -7 -11 -20 1 -20 21 -34 19 -40 -6 -6 -20 -7 -20 -19 7 -8 19 -13 23 -13 12 -1 -22 -14 -23 -31 -3 -7 8 -19 15 -26 15 -8 0 -14 5 -14 11 0 5 4 8 9 4 6 -3 9 3 8 14 -1 18 -3 18 -28 5 -21 -11 -28 -11 -32 -1 -4 9 -7 9 -18 0 -9 -10 -10 -13 -1 -13 7 0 12 -4 12 -10 0 -19 -17 -10 -28 15 -13 28 -38 25 -48 -7 -6 -19 -6 -19 -18 3 -8 16 -10 32 -4 49 10 26 2 71 -13 81 -6 3 -11 17 -13 30 -1 14 -5 30 -9 35 -3 6 0 20 8 30 15 18 15 18 8 -1 -7 -24 -3 -20 22 20 15 25 16 28 2 16 -22 -17 -22 -7 0 27 15 24 16 25 1 14 -13 -10 -17 -10 -20 0 -9 24 -48 -54 -42 -82 4 -16 2 -21 -3 -12 -7 8 -15 -6 -28 -45 -23 -71 -31 -245 -12 -265 6 -7 12 -17 13 -23 2 -42 18 -115 24 -115 5 0 13 -22 20 -50 7 -27 16 -50 21 -50 5 0 11 -11 15 -25 3 -14 11 -25 16 -25 5 0 7 -13 3 -30 -5 -23 -3 -30 9 -30 9 0 16 -5 16 -11 0 -5 -6 -7 -12 -3 -19 11 20 -36 66 -79 29 -28 34 -35 16 -26 -54 27 2 -21 66 -57 154 -86 255 -111 503 -124 219 -11 271 -5 401 45 90 35 173 63 211 70 11 2 36 -19 70 -59 56 -65 161 -153 226 -190 113 -64 308 -93 445 -66 73 14 209 76 253 115 28 24 28 25 5 15 -19 -9 -15 -3 15 25 l40 37 -48 -26 -48 -25 22 37 c13 20 28 46 35 57 15 26 27 95 16 95 -4 0 -14 -6 -21 -12 -11 -11 -12 -7 -6 19 5 24 2 37 -9 49 -9 8 -17 32 -17 52 -1 25 -3 29 -6 14 -9 -46 -28 -16 -26 41 1 32 -3 57 -8 57 -6 0 -8 -4 -4 -9 3 -5 1 -12 -4 -15 -5 -3 -11 1 -15 9 -7 20 -42 19 -50 -1 -3 -9 1 -25 9 -37 15 -21 15 -21 15 6 0 15 4 27 8 27 5 0 7 -13 4 -30 -4 -30 -16 -38 -27 -20 -5 8 -12 7 -23 -2 -13 -11 -14 -11 -10 2 3 8 -3 26 -13 39 -23 29 -24 59 -3 83 14 15 15 18 2 23 -8 3 -26 2 -39 -4 -29 -10 -119 -3 -119 10 0 5 -7 9 -16 9 -27 0 -153 63 -147 73 3 6 -2 16 -12 23 -10 7 -18 26 -19 42 -1 18 -6 28 -13 25 -13 -5 -12 29 2 40 6 5 1 6 -11 2 -14 -3 -26 1 -35 12 -12 15 -12 16 4 10 9 -3 17 -3 17 1 0 14 -15 27 -30 27 -25 0 -30 117 -6 141 9 8 16 20 16 25 0 6 4 8 9 4 5 -3 12 -1 16 5 3 5 0 10 -8 10 -14 0 -71 -52 -73 -67 -2 -27 -18 -63 -26 -63 -6 0 -5 -6 2 -15 7 -8 9 -15 4 -15 -4 0 -3 -5 4 -12 15 -15 -4 -52 -24 -44 -8 3 -13 2 -10 -3 3 -4 -6 -14 -19 -21 -13 -7 -22 -17 -19 -22 3 -4 0 -8 -5 -8 -6 0 -11 -11 -11 -25 0 -14 3 -24 8 -23 8 3 12 -5 12 -23 0 -6 -9 -9 -20 -6 -11 3 -20 2 -20 -2 0 -11 -33 -10 -46 1 -8 6 -14 -2 -18 -24 -5 -29 -10 -33 -36 -33 -16 0 -30 3 -30 8 0 4 11 7 25 7 18 0 25 5 25 20 0 11 -7 20 -16 20 -8 0 -13 -3 -11 -7 3 -5 -8 -8 -23 -8 -19 0 -25 3 -19 11 5 6 6 13 3 16 -3 3 3 5 13 5 13 -2 19 6 21 26 3 28 3 28 -52 25 -46 -3 -55 -1 -51 12 14 50 16 70 6 70 -7 0 -7 7 1 25 6 14 15 25 19 25 5 0 6 7 3 15 -4 8 -1 15 5 15 6 0 8 7 4 17 -5 12 -3 14 7 8 10 -6 12 -4 7 9 -4 10 -7 20 -7 22 0 3 -4 2 -10 -1 -28 -17 -3 15 50 67 73 70 159 134 206 154 20 8 39 25 44 39 11 28 32 32 50 10 14 -17 30 -20 30 -5 0 6 -12 15 -27 21 -16 6 -37 18 -47 27 -18 16 -18 16 -8 -5 9 -17 9 -22 -4 -27 -9 -3 -19 -4 -23 -1 -4 2 -25 0 -46 -6 -28 -8 -35 -13 -24 -20 19 -12 6 -11 -25 1 -22 8 -26 7 -26 -7 0 -13 -3 -14 -12 -5 -9 9 -7 17 8 33 l19 22 -26 -17 c-25 -15 -27 -15 -33 0 -5 12 -15 15 -41 12 -26 -3 -32 -1 -24 9 6 7 16 11 21 10 6 -1 13 4 15 11 6 16 -16 15 -49 -4z m-124 -886 l22 -73 -110 -3 -110 -4 85 89 c46 49 85 84 87 77 2 -8 13 -46 26 -86z"/>
<path d="M3473 1478 c-9 -15 -33 -79 -33 -91 0 -5 13 -6 29 -2 24 5 32 1 51 -24 12 -17 32 -34 45 -37 28 -7 39 -31 29 -68 -6 -25 -38 -37 -46 -17 -1 5 -16 13 -32 17 -25 6 -28 5 -23 -10 4 -10 7 -24 7 -32 0 -8 7 -14 15 -14 8 0 15 -7 15 -17 0 -15 1 -15 18 0 20 18 52 23 52 8 0 -4 12 -20 26 -34 14 -14 27 -34 28 -43 4 -24 51 -37 67 -18 6 8 8 22 4 31 -12 29 -16 65 -14 108 7 118 7 116 -38 141 -24 12 -43 21 -43 20 0 -2 -22 19 -49 45 -50 49 -91 63 -108 37z"/>
<path d="M2260 1366 c-50 -14 -133 -56 -126 -63 2 -2 18 3 35 11 16 9 37 16 45 16 8 0 17 6 19 13 4 10 6 10 6 0 1 -13 33 -18 44 -7 4 4 26 8 50 9 33 1 47 -3 56 -17 8 -13 8 -18 0 -18 -8 0 -7 -6 2 -17 12 -15 11 -14 -13 1 -21 14 -37 16 -70 10 -24 -4 -56 -8 -73 -9 -44 -3 -43 -3 -56 -26 -8 -16 -8 -24 0 -32 9 -9 3 -15 -21 -23 -38 -12 -48 -42 -21 -66 23 -20 63 -32 63 -19 0 6 6 8 14 5 8 -3 23 -1 33 5 17 10 17 10 1 11 -26 0 -22 17 5 24 17 5 19 8 8 15 -11 7 -11 9 0 13 8 3 22 -1 32 -10 15 -14 17 -13 17 1 0 10 5 17 11 17 5 0 7 -4 4 -10 -3 -5 3 -10 13 -10 12 0 28 -14 41 -36 23 -39 28 -58 8 -30 -13 17 -15 16 -35 -15 -13 -22 -18 -37 -11 -45 5 -6 7 -14 4 -17 -3 -4 -2 -5 2 -2 3 3 12 0 18 -5 7 -6 31 -12 53 -14 38 -4 41 -2 32 14 -14 26 -13 30 10 30 14 0 18 5 13 17 -5 12 -3 14 8 8 8 -5 26 -8 41 -6 25 2 39 -16 43 -54 0 -5 6 -9 13 -7 21 4 13 -28 -10 -37 -13 -5 -17 -10 -10 -15 6 -4 28 1 49 10 34 14 36 17 18 24 -19 8 -19 9 3 9 15 1 26 10 33 28 9 24 7 31 -16 50 -14 13 -22 23 -17 23 16 0 22 29 11 53 -19 42 -59 57 -132 50 -75 -7 -98 4 -95 44 2 21 6 23 28 17 47 -12 90 -13 90 -1 0 7 5 4 11 -5 5 -9 16 -15 23 -12 8 3 29 -2 48 -11 l33 -16 -25 20 c-44 36 -183 101 -239 111 -63 12 -63 12 -121 -4z"/>
<path d="M1066 1361 c-12 -19 -91 -31 -151 -22 -35 5 -64 5 -70 0 -5 -6 -2 -9 8 -9 9 0 17 -7 17 -15 0 -11 -7 -14 -25 -9 -16 4 -30 0 -41 -10 -8 -9 -20 -14 -24 -11 -5 3 -27 -3 -49 -15 -44 -22 -66 -26 -56 -10 3 6 1 10 -4 10 -6 0 -11 8 -11 19 0 10 -8 25 -17 32 -15 12 -16 12 -10 -3 8 -22 -30 -16 -50 9 -8 10 -12 12 -8 6 4 -8 0 -13 -10 -13 -13 0 -14 -2 -3 -14 7 -8 16 -12 21 -9 4 2 7 -5 7 -16 0 -24 13 -33 54 -37 35 -4 125 14 142 27 6 5 20 6 29 2 14 -5 17 -3 12 9 -5 13 -1 14 23 5 31 -12 30 -32 -1 -22 -14 5 -19 2 -19 -12 0 -14 -2 -15 -9 -4 -6 10 -10 10 -13 1 -2 -7 -32 -14 -72 -17 -66 -6 -68 -6 -42 -20 27 -14 61 -12 122 6 19 5 37 5 48 -1 14 -8 21 -5 32 11 8 11 33 26 55 32 28 9 37 15 29 23 -8 8 -13 7 -18 -1 -4 -7 -13 -9 -20 -4 -7 4 1 12 24 20 30 11 38 11 45 0 7 -11 9 -10 9 4 0 12 12 23 30 30 17 6 30 17 30 24 0 15 -6 17 -14 4z"/>
</g>
</svg>
